<svg id="_1._Icons_Line_ab-testing" data-name="1. Icons / Line /  ab-testing" xmlns="http://www.w3.org/2000/svg" width="16" height="15.999" viewBox="0 0 16 15.999">
  <path id="user" d="M13.5,16H2.5A2.5,2.5,0,0,1,0,13.5v-.712a2.505,2.505,0,0,1,1.465-2.276l3.457-1.57a5,5,0,1,1,6.157,0l3.456,1.571A2.506,2.506,0,0,1,16,12.787V13.5A2.5,2.5,0,0,1,13.5,16ZM5.961,9.566,1.88,11.421A1.5,1.5,0,0,0,1,12.787V13.5A1.5,1.5,0,0,0,2.5,15h11A1.5,1.5,0,0,0,15,13.5v-.712a1.505,1.505,0,0,0-.88-1.366L10.039,9.566A4.924,4.924,0,0,1,8.013,10H7.987a4.931,4.931,0,0,1-2.027-.433ZM8,1a4,4,0,1,0,4,4A4.005,4.005,0,0,0,8,1Z" fill="#fff"/>
</svg>
