<svg xmlns="http://www.w3.org/2000/svg" width="31.706" height="29.932" viewBox="0 0 31.706 29.932">
  <path id="cod-icon-new" d="M1676.505,21.272h-2.259a1.138,1.138,0,0,0-.615.18l-2.152,1.383h-2.585V15.674a1.14,1.14,0,0,0-.975-1.208,2.216,2.216,0,0,1-1.956-1.845,1.138,1.138,0,0,0-1.131-1.005h-.756c-.008,0-.014,0-.022,0s-.014,0-.022,0h-1.778a.831.831,0,0,1,0-1.662h6.545l4.346,2.934a1.141,1.141,0,0,0,.637.195h2.723a1.139,1.139,0,0,0,0-2.277h-2.375l-4.346-2.934a1.141,1.141,0,0,0-.637-.195h-.255v-5.4A2.28,2.28,0,0,0,1666.616,0h-15.45a2.28,2.28,0,0,0-2.277,2.277V9.29a2.734,2.734,0,0,0-2.362,2.7,2.706,2.706,0,0,0,.29,1.2,2.711,2.711,0,0,0,0,4,2.684,2.684,0,0,0,.6,3.205,2.7,2.7,0,0,0,1.476,3.748v3.512a2.28,2.28,0,0,0,2.277,2.277h15.45a2.28,2.28,0,0,0,2.277-2.277V25.112h2.919a1.138,1.138,0,0,0,.615-.18l2.152-1.383h1.925a1.139,1.139,0,0,0,0-2.277m-14.251-7.378h.661v7.345a4.026,4.026,0,0,0-2.7,2.7h-2.629a4.005,4.005,0,0,0-2.41-2.589,2.7,2.7,0,0,0-.263-.959,2.7,2.7,0,0,0,.36-3.6,2.7,2.7,0,0,0,0-3.2,2.7,2.7,0,0,0-.39-3.629V8.693a4.027,4.027,0,0,0,2.7-2.7h2.629a3.993,3.993,0,0,0,1.18,1.826,3.1,3.1,0,0,0,.863,6.079M1651.166,2.277h15.45v5.4h-1.432a1.133,1.133,0,0,0-1.13-1.1,1.732,1.732,0,0,1-1.731-1.73,1.138,1.138,0,0,0-1.139-1.139h-4.577a1.138,1.138,0,0,0-1.139,1.139,1.732,1.732,0,0,1-1.73,1.73,1.138,1.138,0,0,0-1.139,1.139V9.252h-1.435Zm-1.9,9.252h3.79a.461.461,0,1,1,0,.923h-3.79a.461.461,0,1,1,0-.923m-1.051,3.662a.463.463,0,0,1,.462-.463h4.379a.462.462,0,0,1,0,.924h-4.379a.462.462,0,0,1-.462-.461m.589,3.2a.462.462,0,0,1,.461-.461h3.79a.461.461,0,1,1,0,.923h-3.79a.462.462,0,0,1-.461-.461m1.06,3.662a.462.462,0,0,1,0-.924h2.592a.462.462,0,0,1,0,.924Zm16.752,5.6h-15.45V24.331h1.291a2.727,2.727,0,0,0,1.962-.834,1.723,1.723,0,0,1,1.052,1.585,1.138,1.138,0,0,0,1.139,1.139h4.577a1.138,1.138,0,0,0,1.139-1.139,1.732,1.732,0,0,1,1.731-1.73,1.138,1.138,0,0,0,1.138-1.139v-6.6a4.239,4.239,0,0,0,1.423.87Z" transform="translate(-1645.938)" fill="#8b795b"/>
</svg>
