<svg xmlns="http://www.w3.org/2000/svg" width="15.847" height="21.211" viewBox="0 0 15.847 21.211">
  <g id="location" transform="translate(-1531.972 -1154.926)">
    <path id="Path_376" data-name="Path 376" d="M171.526,1832.742a3.687,3.687,0,1,1,3.687-3.687,3.691,3.691,0,0,1-3.687,3.687m0-5.658a1.971,1.971,0,1,0,1.971,1.971,1.973,1.973,0,0,0-1.971-1.971" transform="translate(1368.37 -666.208)" fill="#9f9ab8"/>
    <path id="Path_377" data-name="Path 377" d="M81.447,1752.3a.858.858,0,0,1-.706-.37l-5.86-8.482-.012-.018-.045-.068a7.924,7.924,0,1,1,13.244,0l-.043.066-.012.018-5.86,8.482a.858.858,0,0,1-.706.37m-5.148-9.818,5.148,7.451,5.148-7.451.039-.059a6.206,6.206,0,0,0-.8-7.8h0a6.207,6.207,0,0,0-9.577,7.8Zm11.008.479h0Z" transform="translate(1458.449 -576.163)" fill="#58537b"/>
  </g>
</svg>
