<svg xmlns="http://www.w3.org/2000/svg" xmlns:xlink="http://www.w3.org/1999/xlink" width="21.282" height="20.909" viewBox="0 0 21.282 20.909">
  <defs>
    <clipPath id="clip-path">
      <rect id="Rectangle_289" data-name="Rectangle 289" width="21.282" height="20.909" transform="translate(0 0)" fill="none"/>
    </clipPath>
  </defs>
  <g id="services_offered" transform="translate(0 -0.004)">
    <g id="Group_267" data-name="Group 267" transform="translate(0 0.004)" clip-path="url(#clip-path)">
      <path id="Path_510" data-name="Path 510" d="M941.479,4.176a.39.39,0,0,0-.056,0,.384.384,0,0,0-.325.435,4.553,4.553,0,0,1,.047.651,4.5,4.5,0,1,1-1.908-3.676.384.384,0,0,0,.442-.627,5.266,5.266,0,1,0,2.233,4.3,5.323,5.323,0,0,0-.055-.761.385.385,0,0,0-.379-.329" transform="translate(-922.379 -0.004)" fill="#a09cb8"/>
      <path id="Path_511" data-name="Path 511" d="M1217.511,19.48a.384.384,0,0,0-.542.031l-5.605,6.277-1.672-2a.384.384,0,0,0-.589.492l1.957,2.344a.383.383,0,0,0,.288.138h.006a.384.384,0,0,0,.286-.128l5.9-6.608a.384.384,0,0,0-.031-.542" transform="translate(-1197.317 -19.195)" fill="#a09cb8"/>
      <path id="Path_512" data-name="Path 512" d="M20.9,1088.244a1.651,1.651,0,0,0-2.322-.22l-1.841,1.529a.409.409,0,1,0,.521.63l1.842-1.529a.832.832,0,0,1,1.061,1.283l-5.554,4.6a.825.825,0,0,1-.551.19l-5.915-1.05a.408.408,0,0,0-.046-.007,1.641,1.641,0,0,0-1.181.373l-.318.263-2.554-3.088,2.474-2.057a1.771,1.771,0,0,1,1.277-.4l6.393,1.345h0a.83.83,0,0,1,.652.959.8.8,0,0,1-.345.518.838.838,0,0,1-.627.126h-.013l-3.1-.489a.409.409,0,1,0-.127.807l3.1.489h0a1.65,1.65,0,0,0,1.22-.251,1.612,1.612,0,0,0,.694-1.045,1.651,1.651,0,0,0-1.287-1.912h0l-6.384-1.343a.4.4,0,0,0-.072-.014,2.584,2.584,0,0,0-1.9.586l-2.473,2.056-.272-.328a.409.409,0,0,0-.575-.054L.148,1092.3a.409.409,0,0,0-.054.575l2.561,3.1a.409.409,0,1,0,.63-.521l-2.3-2.782,1.9-1.571,3.624,4.383-1.9,1.571-.113-.137a.409.409,0,1,0-.63.521l.374.452a.409.409,0,0,0,.575.055l2.529-2.092a.409.409,0,0,0,.055-.575l-.278-.336.318-.264a.827.827,0,0,1,.58-.189l5.927,1.053h0l.023,0,.02,0h0a1.645,1.645,0,0,0,1.135-.376l5.554-4.6a1.651,1.651,0,0,0,.22-2.322" transform="translate(0 -1077.124)" fill="#58537a"/>
    </g>
  </g>
</svg>
