<svg width="20" height="21" viewBox="0 0 20 21" fill="none" xmlns="http://www.w3.org/2000/svg">
<g clip-path="url(#clip0_3356_1072)">
<g clip-path="url(#clip1_3356_1072)">
<path fill-rule="evenodd" clip-rule="evenodd" d="M18.1573 15.2422C17.6664 14.6172 16.9791 14.0422 16.1773 13.5505C14.5736 12.5755 12.3973 11.8755 10 11.8755C7.60273 11.8755 5.42636 12.5672 3.82273 13.5505C3.02091 14.0422 2.34182 14.6172 1.84273 15.2422C1.36 15.8588 1 16.5922 1 17.3838C1 18.2255 1.40909 18.8922 2.00636 19.3672C2.56273 19.8172 3.30727 20.1172 4.09273 20.3255C5.67182 20.7422 7.77455 20.8838 10.0082 20.8838C12.2418 20.8838 14.3445 20.7422 15.9236 20.3255C16.7091 20.1172 17.4455 19.8172 18.01 19.3672C18.5991 18.8922 19.0164 18.2255 19.0164 17.3838C19.0164 16.6005 18.6564 15.8588 18.1736 15.2422H18.1573ZM16.7418 17.8088C16.4964 18.0088 16.0627 18.2172 15.4 18.3922C14.0827 18.7422 12.1927 18.8838 10 18.8838C7.80727 18.8838 5.91727 18.7422 4.6 18.3922C3.93727 18.2172 3.50364 18.0088 3.25818 17.8088C3.03727 17.6338 3.00455 17.5088 3.00455 17.3838C3.00455 17.2088 3.09455 16.8922 3.42182 16.4838C3.74091 16.0838 4.22364 15.6588 4.87 15.2588C6.16273 14.4672 7.97909 13.8838 10.0082 13.8838C12.0373 13.8838 13.8536 14.4755 15.1464 15.2588C15.7927 15.6505 16.2836 16.0838 16.5945 16.4838C16.9136 16.8922 17.0036 17.2005 17.0036 17.3838C17.0036 17.5088 16.9627 17.6338 16.75 17.8088H16.7418Z" fill="#4100E3"/>
<path fill-rule="evenodd" clip-rule="evenodd" d="M13.5346 2.35046C12.5937 1.40879 11.3255 0.883789 10.0001 0.883789C8.67461 0.883789 7.39825 1.40879 6.46552 2.35046C5.52461 3.29212 5.00098 4.55879 5.00098 5.88379C5.00098 7.20879 5.52461 8.48379 6.46552 9.41712C7.40643 10.3588 8.67461 10.8838 10.0001 10.8838C11.3255 10.8838 12.6019 10.3588 13.5346 9.41712C14.4755 8.47546 14.9992 7.20879 14.9992 5.88379C14.9992 4.55879 14.4755 3.28379 13.5346 2.35046ZM12.1192 8.00879C11.5546 8.57546 10.7937 8.88379 10.0001 8.88379C9.60734 8.88379 9.21461 8.80879 8.85461 8.65879C8.49461 8.50879 8.15916 8.28379 7.88098 8.00879C7.60279 7.73379 7.38189 7.40046 7.23461 7.03379C7.08734 6.66712 7.00552 6.28379 7.00552 5.88379C7.00552 5.48379 7.07916 5.10046 7.23461 4.73379C7.39007 4.36712 7.60279 4.04212 7.88098 3.75879C8.15916 3.48379 8.48643 3.25879 8.85461 3.10879C9.21461 2.95879 9.60734 2.88379 10.0001 2.88379C10.7937 2.88379 11.5628 3.20046 12.1192 3.75879C12.6837 4.32546 12.9946 5.08379 12.9946 5.88379C12.9946 6.68379 12.6755 7.44212 12.1192 8.00879Z" fill="#FFC500"/>
</g>
</g>
<defs>
<clipPath id="clip0_3356_1072">
<rect width="20" height="19.9997" fill="white" transform="translate(0 0.88501)"/>
</clipPath>
<clipPath id="clip1_3356_1072">
<rect width="18" height="20" fill="white" transform="translate(1 0.883789)"/>
</clipPath>
</defs>
</svg>
