<?xml version="1.0" standalone="no"?>
<!DOCTYPE svg PUBLIC "-//W3C//DTD SVG 20010904//EN"
 "http://www.w3.org/TR/2001/REC-SVG-20010904/DTD/svg10.dtd">
<svg version="1.0" xmlns="http://www.w3.org/2000/svg"
 width="732.000000pt" height="899.000000pt" viewBox="0 0 732.000000 899.000000"
 preserveAspectRatio="xMidYMid meet">

<g transform="translate(0.000000,899.000000) scale(0.100000,-0.100000)"
fill="#000000" stroke="none">
<path d="M5345 8983 c-431 -57 -910 -319 -1213 -663 -262 -298 -440 -669 -492
-1027 -17 -113 -10 -351 10 -363 23 -15 208 -12 306 5 298 52 637 233 887 473
303 292 520 701 592 1117 20 112 29 332 18 405 -8 54 -9 55 -43 56 -19 1 -48
0 -65 -3z"/>
<path d="M5142 6809 c-126 -12 -288 -45 -430 -88 -125 -38 -199 -65 -540 -195
-238 -92 -344 -119 -457 -119 -140 1 -218 23 -600 173 -415 163 -556 199 -811
207 -257 8 -456 -20 -701 -102 -583 -194 -1062 -637 -1335 -1235 -328 -721
-354 -1661 -73 -2685 106 -386 284 -833 466 -1168 208 -382 570 -883 844
-1165 155 -160 289 -264 428 -332 126 -61 231 -89 367 -96 198 -11 366 28 680
158 107 44 249 98 314 119 215 72 469 101 691 80 222 -21 348 -57 631 -177
325 -138 447 -168 684 -167 123 0 160 4 242 26 373 98 669 368 1126 1028 252
363 470 786 608 1183 33 96 44 141 36 144 -32 10 -206 104 -272 147 -254 163
-485 392 -636 631 -300 476 -372 1105 -190 1659 134 405 410 767 788 1032 43
30 78 59 78 63 0 21 -166 214 -271 315 -347 334 -789 523 -1323 565 -144 11
-222 11 -344 -1z"/>
</g>
</svg>
