<svg id="briefcase-new" xmlns="http://www.w3.org/2000/svg" xmlns:xlink="http://www.w3.org/1999/xlink" width="27.744" height="23.583" viewBox="0 0 27.744 23.583">
  <defs>
    <clipPath id="clip-path">
      <rect id="Rectangle_27" data-name="Rectangle 27" width="27.744" height="23.583" fill="#180c39"/>
    </clipPath>
  </defs>
  <g id="Group_16" data-name="Group 16" clip-path="url(#clip-path)">
    <path id="Path_41" data-name="Path 41" d="M11.432,12.009v-.041A1.371,1.371,0,0,1,12.8,10.6h2.135a1.37,1.37,0,0,1,1.369,1.369v.043L27.744,9.176V6.165A2.466,2.466,0,0,0,25.278,3.7H19.335V2.949A2.852,2.852,0,0,0,16.6,0H11.139A2.852,2.852,0,0,0,8.4,2.949V3.7H2.466A2.466,2.466,0,0,0,0,6.165V9.176ZM9.906,2.949A1.354,1.354,0,0,1,11.139,1.5H16.6A1.354,1.354,0,0,1,17.83,2.949V3.7H9.906Z" fill="#180c39"/>
    <path id="Path_42" data-name="Path 42" d="M16.305,73v1.969a1.37,1.37,0,0,1-1.369,1.369H12.8a1.37,1.37,0,0,1-1.369-1.369V73L0,70.164v11a2.466,2.466,0,0,0,2.466,2.466H25.278a2.466,2.466,0,0,0,2.466-2.466v-11Z" transform="translate(0 -60.045)" fill="#180c39"/>
    <path id="Path_43" data-name="Path 43" d="M86.792,83.847a.68.68,0,0,0,.666.694h1.369a.681.681,0,0,0,.668-.694V81.711a.681.681,0,0,0-.668-.693H87.458a.68.68,0,0,0-.666.693Z" transform="translate(-74.275 -69.333)" fill="#180c39"/>
  </g>
</svg>
