<svg xmlns="http://www.w3.org/2000/svg" width="27.214" height="24.053" viewBox="0 0 27.214 24.053">
  <g id="headphone" transform="translate(-34.16 -509.585)">
    <path id="Vector" d="M6.436,0A3.513,3.513,0,0,1,2.954,3.482H0" transform="translate(49.455 527.729)" fill="none" stroke="#ffc500" stroke-width="1.68"/>
    <path id="Vector-2" data-name="Vector" d="M4.643,2.321A2.321,2.321,0,1,1,2.321,0,2.321,2.321,0,0,1,4.643,2.321Z" transform="translate(46.29 528.995)" fill="#ffc500"/>
    <path id="Vector-3" data-name="Vector" d="M4.537,7.386a4.537,4.537,0,0,0,0,9.074V8.23A8.23,8.23,0,1,1,21,8.23v8.23a4.5,4.5,0,0,0,4.537-4.537,4.594,4.594,0,0,0-4.643-4.537" transform="translate(35 510.425)" fill="none" stroke="#4100e3" stroke-width="1.68"/>
  </g>
</svg>
