<svg width="20" height="20" viewBox="0 0 20 20" fill="none" xmlns="http://www.w3.org/2000/svg">
<g clip-path="url(#clip0_3458_2000)">
<g clip-path="url(#clip1_3458_2000)">
<path d="M10 0C4.48 0 0 4.48 0 10C0 15.52 4.48 20 10 20C15.52 20 20 15.52 20 10C20 4.48 15.52 0 10 0ZM15.66 15.66C14.16 17.16 12.12 18 10 18C7.88 18 5.84 17.16 4.34 15.66C2.84 14.16 2 12.12 2 10C2 7.88 2.84 5.84 4.34 4.34C5.84 2.84 7.88 2 10 2C12.12 2 14.16 2.84 15.66 4.34C17.16 5.84 18 7.88 18 10C18 12.12 17.16 14.16 15.66 15.66Z" fill="#4100E3"/>
<path d="M9.99047 7.99998C10.5505 7.99998 11.0005 8.44998 11.0005 9.00998V14.13C11.1905 14.24 11.3405 14.41 11.4205 14.61C11.5005 14.81 11.5205 15.04 11.4605 15.25C11.4005 15.46 11.2805 15.65 11.1005 15.78C10.9305 15.91 10.7105 15.99 10.4905 15.99H10.0005C9.87047 15.99 9.74047 15.96 9.61047 15.91C9.49047 15.86 9.38047 15.78 9.28047 15.69C9.19047 15.6 9.11047 15.48 9.06047 15.36C9.01047 15.24 8.98047 15.11 8.98047 14.97V9.97998C8.71047 9.97998 8.46047 9.86998 8.27047 9.68998C8.08047 9.50998 7.98047 9.24998 7.98047 8.97998C7.98047 8.70998 8.09047 8.45998 8.27047 8.26998C8.45047 8.07998 8.71047 7.97998 8.98047 7.97998H9.97047L9.99047 7.99998Z" fill="#FFC500"/>
<path d="M10 5C10.27 5 10.52 5.11 10.71 5.29C10.9 5.48 11 5.73 11 6C11 6.27 10.89 6.52 10.71 6.71C10.52 6.9 10.27 7 10 7C9.73 7 9.48 6.89 9.29 6.71C9.1 6.52 9 6.27 9 6C9 5.73 9.11 5.48 9.29 5.29C9.48 5.1 9.73 5 10 5Z" fill="#FFC500"/>
</g>
</g>
<defs>
<clipPath id="clip0_3458_2000">
<rect width="20" height="19.9997" fill="white"/>
</clipPath>
<clipPath id="clip1_3458_2000">
<rect width="20" height="20" fill="white"/>
</clipPath>
</defs>
</svg>
