<svg xmlns="http://www.w3.org/2000/svg" width="12.904" height="15.571" viewBox="0 0 12.904 15.571">
  <g id="account-feild" transform="translate(0.629 0.619)">
    <path id="Vector" d="M7.1,3.548A3.548,3.548,0,1,1,3.548,0,3.548,3.548,0,0,1,7.1,3.548Z" transform="translate(2.275 0)" fill="none" stroke="#ffc502" stroke-width="1.238"/>
    <path id="Vector-2" data-name="Vector" d="M5.823,4.825a16.085,16.085,0,0,0,5.819-.851,3.2,3.2,0,0,0-1.135-2.7C9.229.426,5.823,0,5.823,0S2.417.284,1.14,1.277A3.323,3.323,0,0,0,0,3.974,15.175,15.175,0,0,0,5.823,4.825Z" transform="translate(0 9.508)" fill="none" stroke="#4100e3" stroke-width="1.238"/>
  </g>
</svg>
