<svg xmlns="http://www.w3.org/2000/svg" width="18.166" height="21.378" viewBox="0 0 18.166 21.378">
  <g id="addressBook" transform="translate(1 1)">
    <path id="Vector" d="M14.611,19.378H1.554A1.594,1.594,0,0,1,0,17.824V1.554A1.594,1.594,0,0,1,1.554,0H14.611a1.594,1.594,0,0,1,1.554,1.554V17.824A1.526,1.526,0,0,1,14.611,19.378Z" fill="none" stroke="#4100e3" stroke-width="2"/>
    <path id="Vector-2" data-name="Vector" d="M2.073,1.036A1.036,1.036,0,1,1,1.036,0,1.036,1.036,0,0,1,2.073,1.036Z" transform="translate(3.731 5.803)" fill="#ffc500"/>
    <path id="Vector-3" data-name="Vector" d="M0,0H4.249" transform="translate(7.668 6.839)" fill="none" stroke="#4100e3" stroke-width="2"/>
    <path id="Vector-4" data-name="Vector" d="M2.073,1.036A1.036,1.036,0,1,1,1.036,0,1.036,1.036,0,0,1,2.073,1.036Z" transform="translate(3.731 11.503)" fill="#ffc500"/>
    <path id="Vector-5" data-name="Vector" d="M0,0H4.249" transform="translate(7.668 12.539)" fill="none" stroke="#4100e3" stroke-width="2"/>
  </g>
</svg>
