<svg width="20" height="21" viewBox="0 0 20 21" fill="none" xmlns="http://www.w3.org/2000/svg">
<g clip-path="url(#clip0_3358_974)">
<g clip-path="url(#clip1_3358_974)">
<path fill-rule="evenodd" clip-rule="evenodd" d="M18.5792 2.46712C18.1992 2.09212 17.687 1.88379 17.15 1.88379H15.1344C15.1344 1.61712 15.027 1.36712 14.837 1.17546C14.647 0.992122 14.3909 0.883789 14.1266 0.883789C13.8622 0.883789 13.5979 0.992122 13.4161 1.17546C13.2261 1.36712 13.1187 1.61712 13.1187 1.88379H7.06352C7.06352 1.61712 6.95613 1.36712 6.76613 1.17546C6.57613 0.992122 6.32004 0.883789 6.05569 0.883789C5.79134 0.883789 5.527 0.992122 5.34526 1.17546C5.15526 1.36712 5.04787 1.61712 5.04787 1.88379H3.03221C2.49526 1.88379 1.98308 2.09212 1.60308 2.46712C1.22308 2.84212 1.0083 3.35046 1.0083 3.88379V18.8838C1.0083 19.4171 1.22308 19.9255 1.60308 20.3005C1.98308 20.6755 2.49526 20.8838 3.03221 20.8838H17.1666C17.7035 20.8838 18.2157 20.6755 18.5957 20.3005C18.9757 19.9255 19.1905 19.4171 19.1905 18.8838V3.88379C19.1905 3.35046 18.9757 2.84212 18.5957 2.46712H18.5792ZM17.1583 18.8838H3.01569V3.88379H5.03134C5.03134 4.15046 5.13874 4.40046 5.32874 4.59212C5.51874 4.77546 5.77482 4.88379 6.03917 4.88379C6.30352 4.88379 6.56787 4.77546 6.74961 4.59212C6.93961 4.40046 7.047 4.15046 7.047 3.88379H13.1022C13.1022 4.15046 13.2096 4.40046 13.3996 4.59212C13.5896 4.77546 13.8457 4.88379 14.11 4.88379C14.3744 4.88379 14.6387 4.77546 14.8205 4.59212C15.0105 4.40046 15.1179 4.15046 15.1179 3.88379H17.1335V18.8838H17.1583Z" fill="#4100E3"/>
<path fill-rule="evenodd" clip-rule="evenodd" d="M12.2265 6.75879C11.6565 6.19212 10.8883 5.88379 10.087 5.88379C9.28565 5.88379 8.50913 6.20046 7.94739 6.75879C7.38565 7.31712 7.06348 8.08379 7.06348 8.88379C7.06348 9.68379 7.38565 10.4421 7.94739 11.0088C8.50913 11.5755 9.28565 11.8838 10.087 11.8838C10.8883 11.8838 11.6648 11.5671 12.2265 11.0088C12.7965 10.4421 13.1104 9.68379 13.1104 8.88379C13.1104 8.08379 12.7883 7.32546 12.2265 6.75879ZM10.7974 9.59212C10.6074 9.78379 10.3513 9.88379 10.087 9.88379C9.82261 9.88379 9.56652 9.77546 9.37652 9.59212C9.18652 9.40879 9.07913 9.15046 9.07913 8.88379C9.07913 8.61712 9.18652 8.36712 9.37652 8.17546C9.56652 7.98379 9.82261 7.88379 10.087 7.88379C10.3513 7.88379 10.6156 7.99212 10.7974 8.17546C10.9874 8.35879 11.0948 8.61712 11.0948 8.88379C11.0948 9.15046 10.9874 9.40046 10.7974 9.59212Z" fill="#FFC500"/>
<path fill-rule="evenodd" clip-rule="evenodd" d="M7.00566 16.2005C7.16261 15.7421 7.45174 15.4421 7.91435 15.2338C8.41826 15.0088 9.13696 14.8838 10.087 14.8838C11.037 14.8838 11.7474 15.0005 12.2596 15.2338C12.7304 15.4421 13.0196 15.7421 13.1683 16.2005C13.2509 16.4505 13.4326 16.6588 13.6722 16.7755C13.9117 16.8921 14.1926 16.9171 14.4404 16.8338C14.6965 16.7505 14.903 16.5671 15.027 16.3338C15.1426 16.1005 15.1674 15.8255 15.0848 15.5671C14.7296 14.5255 14.0109 13.8255 13.0939 13.4088C12.21 13.0088 11.1609 12.8838 10.087 12.8838C9.01305 12.8838 7.96392 13.0171 7.08 13.4088C6.16305 13.8255 5.43609 14.5255 5.08913 15.5671C5.00653 15.8171 5.02305 16.0921 5.14696 16.3338C5.27087 16.5671 5.47739 16.7505 5.73348 16.8338C5.98957 16.9171 6.26218 16.9005 6.50174 16.7755C6.74131 16.6588 6.92305 16.4505 7.00566 16.2005Z" fill="#FFC500"/>
</g>
</g>
<defs>
<clipPath id="clip0_3358_974">
<rect width="20" height="19.9997" fill="white" transform="translate(0 0.88501)"/>
</clipPath>
<clipPath id="clip1_3358_974">
<rect width="19" height="20" fill="white" transform="translate(1 0.883789)"/>
</clipPath>
</defs>
</svg>
