<svg width="20" height="20" viewBox="0 0 20 20" fill="none" xmlns="http://www.w3.org/2000/svg">
<g clip-path="url(#clip0_3458_1898)">
<path fill-rule="evenodd" clip-rule="evenodd" d="M3.13121 7.36922C3.13121 5.41478 3.90761 3.54039 5.28961 2.15839C6.6716 0.776397 8.54599 0 10.5004 0C12.4549 0 14.3293 0.776397 15.7113 2.15839C17.0933 3.54039 17.8696 5.41478 17.8696 7.36922V11.3318L19.7878 15.168C19.8761 15.3445 19.9177 15.5407 19.9089 15.7379C19.9 15.9352 19.8409 16.1268 19.7371 16.2948C19.6333 16.4627 19.4883 16.6013 19.3158 16.6974C19.1434 16.7935 18.9493 16.844 18.7519 16.8439H14.5788C14.3446 17.7474 13.817 18.5476 13.0789 19.1188C12.3407 19.6901 11.4338 20 10.5004 20C9.56707 20 8.66013 19.6901 7.92198 19.1188C7.18383 18.5476 6.65626 17.7474 6.4221 16.8439H2.24901C2.0516 16.844 1.85746 16.7935 1.68502 16.6974C1.51259 16.6013 1.36759 16.4627 1.26379 16.2948C1.16 16.1268 1.10086 15.9352 1.09199 15.7379C1.08312 15.5407 1.12481 15.3445 1.21311 15.168L3.13121 11.3318V7.36922ZM8.67707 16.8439C8.86188 17.164 9.12767 17.4297 9.44773 17.6145C9.7678 17.7993 10.1309 17.8966 10.5004 17.8966C10.87 17.8966 11.2331 17.7993 11.5531 17.6145C11.8732 17.4297 12.139 17.164 12.3238 16.8439H8.67707ZM10.5004 2.10549C9.1044 2.10549 7.76555 2.66006 6.77841 3.6472C5.79127 4.63434 5.2367 5.97319 5.2367 7.36922V11.3318C5.23668 11.6585 5.16063 11.9807 5.01457 12.2729L3.78286 14.7384H17.2191L15.9873 12.2729C15.8409 11.9808 15.7645 11.6585 15.7642 11.3318V7.36922C15.7642 5.97319 15.2096 4.63434 14.2224 3.6472C13.2353 2.66006 11.8965 2.10549 10.5004 2.10549Z" fill="#4100E3"/>
</g>
<defs>
<clipPath id="clip0_3458_1898">
<rect width="20" height="19.9997" fill="white"/>
</clipPath>
</defs>
</svg>
