<svg width="20" height="21" viewBox="0 0 20 21" fill="none" xmlns="http://www.w3.org/2000/svg">
<path fill-rule="evenodd" clip-rule="evenodd" d="M3.13072 7.48445C3.13072 5.53001 3.90712 3.65562 5.28912 2.27363C6.67111 0.891632 8.5455 0.115234 10.4999 0.115234C12.4544 0.115234 14.3288 0.891632 15.7108 2.27363C17.0928 3.65562 17.8692 5.53001 17.8692 7.48445V11.447L19.7873 15.2832C19.8756 15.4598 19.9173 15.656 19.9084 15.8532C19.8995 16.0504 19.8404 16.2421 19.7366 16.41C19.6328 16.5779 19.4878 16.7165 19.3154 16.8126C19.1429 16.9088 18.9488 16.9592 18.7514 16.9592H14.5783C14.3441 17.8627 13.8165 18.6628 13.0784 19.2341C12.3402 19.8053 11.4333 20.1152 10.4999 20.1152C9.56658 20.1152 8.65964 19.8053 7.92149 19.2341C7.18334 18.6628 6.65578 17.8627 6.42161 16.9592H2.24852C2.05111 16.9592 1.85697 16.9088 1.68453 16.8126C1.5121 16.7165 1.3671 16.5779 1.26331 16.41C1.15951 16.2421 1.10037 16.0504 1.0915 15.8532C1.08263 15.656 1.12432 15.4598 1.21262 15.2832L3.13072 11.447V7.48445ZM8.67659 16.9592C8.86139 17.2792 9.12718 17.545 9.44724 17.7298C9.76731 17.9145 10.1304 18.0118 10.4999 18.0118C10.8695 18.0118 11.2326 17.9145 11.5526 17.7298C11.8727 17.545 12.1385 17.2792 12.3233 16.9592H8.67659ZM10.4999 2.22073C9.10392 2.22073 7.76507 2.7753 6.77793 3.76244C5.79078 4.74958 5.23622 6.08843 5.23622 7.48445V11.447C5.23619 11.7737 5.16014 12.0959 5.01409 12.3881L3.78237 14.8537H17.2186L15.9869 12.3881C15.8404 12.096 15.764 11.7738 15.7637 11.447V7.48445C15.7637 6.08843 15.2091 4.74958 14.222 3.76244C13.2348 2.7753 11.896 2.22073 10.4999 2.22073Z" fill="white"/>
</svg>
