<svg width="20" height="21" viewBox="0 0 20 21" fill="none" xmlns="http://www.w3.org/2000/svg">
<path fill-rule="evenodd" clip-rule="evenodd" d="M7.93397 2.16667C7.87326 2.16667 7.81867 2.19062 7.78127 2.22749C7.74451 2.26373 7.72736 2.30886 7.72736 2.35185V4.57407H12.2728V2.35185C12.2728 2.30886 12.2557 2.26373 12.2189 2.22749C12.1815 2.19062 12.1269 2.16667 12.0662 2.16667H7.93397ZM13.9257 4.57407V2.35185C13.9257 1.85459 13.7252 1.38158 13.3745 1.03581C13.0244 0.69066 12.5535 0.5 12.0662 0.5H7.93397C7.44672 0.5 6.97579 0.69066 6.62571 1.03581C6.275 1.38158 6.07447 1.85459 6.07447 2.35185V4.57407H2.77851C2.77259 4.57401 2.76666 4.57401 2.76072 4.57407H1.73563C1.27919 4.57407 0.90918 4.94717 0.90918 5.40741C0.90918 5.86764 1.27919 6.24074 1.73563 6.24074H2.00968L2.97556 17.6682C2.98572 18.4215 3.29378 19.1381 3.82911 19.6659C4.37292 20.202 5.10662 20.5 5.86786 20.5H14.1323C14.8936 20.5 15.6273 20.202 16.1711 19.6659C16.7064 19.1381 17.0145 18.4215 17.0246 17.6681L17.9905 6.24074H18.2646C18.721 6.24074 19.091 5.86764 19.091 5.40741C19.091 4.94717 18.721 4.57407 18.2646 4.57407H17.2395C17.2335 4.57401 17.2276 4.57401 17.2217 4.57407H13.9257ZM3.66856 6.24074L4.6252 17.5589C4.62719 17.5824 4.62819 17.606 4.62819 17.6296C4.62819 17.9428 4.75418 18.2469 4.98468 18.4742C5.21581 18.7021 5.53316 18.8333 5.86786 18.8333H14.1323C14.467 18.8333 14.7844 18.7021 15.0155 18.4742C15.246 18.2469 15.372 17.9428 15.372 17.6296C15.372 17.606 15.373 17.5824 15.375 17.5589L16.3316 6.24074H3.66856Z" fill="#4100E3"/>
<path fill-rule="evenodd" clip-rule="evenodd" d="M7.47494 8.64795C8.03281 8.64795 8.48505 9.02105 8.48505 9.48128V15.5924C8.48505 16.0526 8.03281 16.4257 7.47494 16.4257C6.91708 16.4257 6.46484 16.0526 6.46484 15.5924V9.48128C6.46484 9.02105 6.91708 8.64795 7.47494 8.64795ZM12.5255 8.64795C13.0833 8.64795 13.5356 9.02105 13.5356 9.48128V15.5924C13.5356 16.0526 13.0833 16.4257 12.5255 16.4257C11.9676 16.4257 11.5153 16.0526 11.5153 15.5924V9.48128C11.5153 9.02105 11.9676 8.64795 12.5255 8.64795Z" fill="#FFC500"/>
</svg>
