<svg width="160" height="136" viewBox="0 0 160 136" fill="none" xmlns="http://www.w3.org/2000/svg">
<g clip-path="url(#clip0_3381_6099)">
<g clip-path="url(#clip1_3381_6099)">
<path d="M114.826 103.835H24.8812C16.3438 103.835 9.42285 110.756 9.42285 119.293V120.319C9.42285 128.857 16.3438 135.778 24.8812 135.778H114.826C123.363 135.778 130.284 128.857 130.284 120.319V119.293C130.284 110.756 123.363 103.835 114.826 103.835Z" fill="#EAEAFF"/>
<path d="M25.4231 41.3896L77.855 41.3896C85.543 41.3896 91.7754 35.1573 91.7754 27.4693V27.4682C91.7754 19.7802 85.543 13.5479 77.855 13.5479L25.4231 13.5479C17.7351 13.5479 11.5027 19.7802 11.5027 27.4682V27.4693C11.5027 35.1573 17.7351 41.3896 25.4231 41.3896Z" fill="#EAEAFF"/>
<path d="M126.871 51.6924H25.5268C11.4287 51.6924 0 63.1211 0 77.2191V78.3088C0 92.4068 11.4287 103.836 25.5268 103.836H126.871C140.969 103.836 152.397 92.4068 152.397 78.3088V77.2191C152.397 63.1211 140.969 51.6924 126.871 51.6924Z" fill="#EAEAFF"/>
<path d="M47.7339 126.555C47.7339 127.015 48.1068 127.388 48.5681 127.388C53.1701 127.388 56.6189 128.109 60.6131 128.944C65.9955 130.07 70.4757 131.47 82.4507 131.47H103.804C108.364 131.47 112.074 127.761 112.074 123.201C112.074 120.356 110.63 117.841 108.436 116.353C112.029 115.454 114.698 112.197 114.698 108.329C114.698 105.571 113.341 103.123 111.259 101.62C115.189 100.982 118.198 97.5641 118.198 93.4568C118.198 90.4962 116.634 87.8934 114.289 86.433C117.574 85.3369 119.948 82.233 119.948 78.5858C119.948 74.0258 116.238 70.3162 111.678 70.3162H89.6642C90.3528 68.7362 91.3778 65.6678 91.7151 60.8696C92.4221 50.813 90.7462 43.8388 86.7348 40.1389C83.536 37.189 79.9158 37.368 78.5072 37.5824C77.6234 37.7171 76.8722 38.1968 76.3323 38.9695C74.97 40.9235 75.0918 44.5965 75.6123 47.1659C76.5209 54.9053 72.8134 59.156 68.5207 64.0781C67.5625 65.1763 66.5731 66.3112 65.6096 67.5161C62.9551 70.8357 52.8996 74.097 48.3935 75.0734C48.0098 75.1564 47.736 75.4959 47.736 75.8882" fill="white"/>
<path d="M103.803 134.166H82.4498C71.7897 134.166 66.8999 133.085 62.1717 132.041C61.4507 131.881 60.7685 131.73 60.0604 131.582C56.2128 130.778 52.8901 130.083 48.5672 130.083C46.6218 130.083 45.0386 128.501 45.0386 126.556C45.0386 125.067 46.2446 123.861 47.733 123.861C48.5057 123.861 49.203 124.187 49.6945 124.709C54.012 124.813 57.3466 125.51 61.1608 126.308C61.9012 126.463 62.6287 126.624 63.3336 126.779C67.7793 127.762 72.377 128.777 82.4487 128.777H103.802C106.876 128.777 109.378 126.276 109.378 123.202C109.378 121.353 108.459 119.627 106.92 118.584C106.041 117.988 105.595 116.93 105.78 115.884C105.965 114.837 106.748 113.998 107.779 113.74C110.266 113.118 112.002 110.894 112.002 108.331C112.002 106.548 111.133 104.856 109.679 103.806C108.797 103.168 108.384 102.063 108.635 101.002C108.886 99.9416 109.749 99.1376 110.825 98.963C113.491 98.5297 115.501 96.164 115.501 93.4599C115.501 91.5232 114.514 89.7524 112.862 88.7232C111.976 88.1713 111.488 87.1572 111.611 86.1204C111.734 85.0836 112.444 84.2106 113.434 83.8808C115.717 83.1188 117.252 80.9924 117.252 78.589C117.252 75.5152 114.75 73.0137 111.676 73.0137H89.6622C88.7536 73.0137 87.9065 72.5557 87.4086 71.7959C86.9106 71.036 86.8298 70.0757 87.193 69.2426C87.7416 67.986 88.7083 65.2021 89.0263 60.6831C89.6643 51.6137 88.2395 45.1957 84.9071 42.1219C82.5673 39.9642 79.9343 40.0935 78.9104 40.2487C78.8382 40.2595 78.7035 40.28 78.5408 40.5139C77.865 41.4828 77.7411 44.1136 78.2519 46.6334C78.267 46.7067 78.2789 46.78 78.2875 46.8543C78.7617 50.8938 78.1495 54.5086 76.4165 57.9057C74.9152 60.848 72.7952 63.2783 70.5502 65.852L70.5352 65.8693C69.6007 66.9405 68.6351 68.0485 67.7125 69.2017C66.2155 71.0738 63.2635 72.8661 58.6873 74.681C55.4142 75.9797 52.1087 76.9551 49.9014 77.4929C49.411 78.1557 48.6221 78.5857 47.7341 78.5857C46.2457 78.5857 45.0396 77.3797 45.0396 75.8913C45.0396 74.2424 46.209 72.7917 47.8213 72.4425C52.8286 71.3572 61.6372 68.1681 63.5038 65.8358C64.4975 64.5932 65.502 63.4411 66.4731 62.3267L66.4882 62.3094C70.6559 57.5317 73.6725 54.0732 72.9472 47.5851C72.6142 45.8822 71.8522 40.6831 74.1209 37.4304C75.0779 36.0573 76.4909 35.166 78.0989 34.9214C79.8933 34.6487 84.5029 34.4181 88.5596 38.16C90.9555 40.3694 92.6551 43.51 93.6122 47.4934C94.5067 51.216 94.7718 55.7814 94.4011 61.0603C94.2157 63.6986 93.8342 65.8736 93.3923 67.6238H111.676C117.723 67.6238 122.641 72.5427 122.641 78.5879C122.641 81.8858 121.173 84.9176 118.762 86.9578C120.129 88.8094 120.891 91.0694 120.891 93.4588C120.891 96.0756 119.952 98.6105 118.245 100.597C117.541 101.417 116.724 102.123 115.827 102.697C116.836 104.381 117.393 106.326 117.393 108.331C117.393 111.899 115.681 115.134 112.946 117.152C114.119 118.922 114.769 121.018 114.769 123.202C114.769 129.247 109.85 134.166 103.805 134.166H103.803Z" fill="#6E6BE8"/>
<path d="M42.8851 72.5977H29.1016C26.3642 72.5977 24.145 74.8168 24.145 77.5543V124.712C24.145 127.449 26.3642 129.668 29.1016 129.668H42.8851C45.6226 129.668 47.8417 127.449 47.8417 124.712V77.5543C47.8417 74.8168 45.6226 72.5977 42.8851 72.5977Z" fill="#EAEAFF"/>
<path d="M42.8852 132.364H29.1028C24.8834 132.364 21.4507 128.931 21.4507 124.712V77.5544C21.4507 73.335 24.8834 69.9023 29.1028 69.9023H42.8852C47.1046 69.9023 50.5373 73.335 50.5373 77.5544V124.712C50.5373 128.931 47.1046 132.364 42.8852 132.364ZM29.1028 75.2922C27.8547 75.2922 26.8395 76.3075 26.8395 77.5555V124.713C26.8395 125.961 27.8547 126.976 29.1028 126.976H42.8852C44.1332 126.976 45.1485 125.961 45.1485 124.713V77.5555C45.1485 76.3075 44.1332 75.2922 42.8852 75.2922H29.1028Z" fill="#6E6BE8"/>
<path d="M127.9 61.7272C144.14 61.7272 157.305 48.5619 157.305 32.3216C157.305 16.0814 144.14 2.91602 127.9 2.91602C111.659 2.91602 98.4941 16.0814 98.4941 32.3216C98.4941 48.5619 111.659 61.7272 127.9 61.7272Z" fill="#FFC500"/>
<path d="M127.9 64.4217C119.325 64.4217 111.265 61.0828 105.201 55.0193C99.1377 48.9558 95.7988 40.8953 95.7988 32.3206C95.7988 23.746 99.1377 15.6854 105.201 9.6219C111.265 3.55843 119.325 0.22168 127.9 0.22168C136.475 0.22168 144.535 3.56058 150.599 9.62406C156.662 15.6865 160.001 23.7481 160.001 32.3228C160.001 40.8974 156.662 48.958 150.599 55.0215C144.536 61.0839 136.475 64.4239 127.9 64.4239V64.4217ZM127.9 5.61048C113.171 5.61048 101.189 17.593 101.189 32.3217C101.189 47.0504 113.171 59.0329 127.9 59.0329C142.629 59.0329 154.611 47.0504 154.611 32.3217C154.611 17.593 142.629 5.61048 127.9 5.61048Z" fill="#4100E3"/>
<path d="M123.434 48.1139C122.744 48.1139 122.054 47.851 121.528 47.325L109.257 35.0536C108.205 34.0017 108.205 32.2957 109.257 31.2427C110.309 30.1908 112.015 30.1908 113.068 31.2427L123.435 41.6097L142.732 22.3124C143.784 21.2605 145.49 21.2605 146.543 22.3124C147.595 23.3643 147.595 25.0703 146.543 26.1233L125.34 47.3261C124.814 47.852 124.124 48.115 123.435 48.115L123.434 48.1139Z" fill="#4100E3"/>
</g>
</g>
<defs>
<clipPath id="clip0_3381_6099">
<rect width="160" height="135.556" fill="white" transform="translate(0 0.22168)"/>
</clipPath>
<clipPath id="clip1_3381_6099">
<rect width="160" height="135.556" fill="white" transform="translate(0 0.22168)"/>
</clipPath>
</defs>
</svg>
