<svg id="_22_Icons_Line_Tab_02" data-name="22) Icons/Line/Tab 02" xmlns="http://www.w3.org/2000/svg" width="17.5" height="22.5" viewBox="0 0 17.5 22.5">
  <path id="Combined_Shape" data-name="Combined Shape" d="M3.125,22.5A3.128,3.128,0,0,1,0,19.375v-15A3.128,3.128,0,0,1,3.125,1.25a.625.625,0,0,1,0,1.25A1.878,1.878,0,0,0,1.25,4.375v15A1.878,1.878,0,0,0,3.125,21.25h11.25a1.877,1.877,0,0,0,1.874-1.875v-15A1.877,1.877,0,0,0,14.375,2.5a.625.625,0,1,1,0-1.25A3.128,3.128,0,0,1,17.5,4.375v15A3.128,3.128,0,0,1,14.375,22.5Zm1.25-6.249a.625.625,0,1,1,0-1.25h6.249a.625.625,0,1,1,0,1.25Zm0-3.751a.625.625,0,1,1,0-1.25h8.749a.625.625,0,1,1,0,1.25Zm0-3.75a.625.625,0,1,1,0-1.25h8.749a.625.625,0,1,1,0,1.25ZM11.25,1.875a.626.626,0,0,0-.625-.625H6.875a.625.625,0,0,0-.624.625A.626.626,0,0,1,5,1.875,1.878,1.878,0,0,1,6.875,0h3.75A1.878,1.878,0,0,1,12.5,1.875a.625.625,0,0,1-1.25,0Z" fill="#c5cee0"/>
</svg>
