<svg xmlns="http://www.w3.org/2000/svg" width="9" height="10.007" viewBox="0 0 9 10.007">
  <path id="calendar-week" d="M7.75,10.007H1.25A1.286,1.286,0,0,1,0,8.691V1.843A1.286,1.286,0,0,1,1.25.526H2V.263a.251.251,0,1,1,.5,0V.526h4V.263a.251.251,0,1,1,.5,0V.526h.75A1.286,1.286,0,0,1,9,1.843V8.691A1.286,1.286,0,0,1,7.75,10.007ZM.5,3.686V8.691a.772.772,0,0,0,.75.79h6.5a.772.772,0,0,0,.75-.79V3.686Zm.75-2.633a.772.772,0,0,0-.75.79V3.159h8V1.843a.772.772,0,0,0-.75-.79H7v.263a.251.251,0,1,1-.5,0V1.053h-4v.263a.251.251,0,1,1-.5,0V1.053Zm6.5,4.738H1.25A.257.257,0,0,1,1,5.528V4.475a.257.257,0,0,1,.25-.263h6.5A.257.257,0,0,1,8,4.475V5.528A.257.257,0,0,1,7.75,5.791ZM1.5,4.738v.526h6V4.738Z" fill="#ffd105"/>
</svg>
