<svg width="20" height="20" viewBox="0 0 20 20" fill="none" xmlns="http://www.w3.org/2000/svg">
<g clip-path="url(#clip0_3343_2431)">
<path fill-rule="evenodd" clip-rule="evenodd" d="M4 2H16C17.0609 2 18.0783 2.42142 18.8284 3.17155C19.5786 3.92169 20 4.93909 20 5.99994V15.9998C20 17.0606 19.5786 18.078 18.8284 18.8282C18.0783 19.5783 17.0609 19.9997 16 19.9997H4C2.93913 19.9997 1.92172 19.5783 1.17157 18.8282C0.421427 18.078 0 17.0606 0 15.9998V5.99994C0 4.93909 0.421427 3.92169 1.17157 3.17155C1.92172 2.42142 2.93913 2 4 2ZM4 3.99997C3.46957 3.99997 2.96086 4.21068 2.58579 4.58575C2.21071 4.96081 2 5.46951 2 5.99994V15.9998C2 16.5302 2.21071 17.0389 2.58579 17.414C2.96086 17.789 3.46957 17.9997 4 17.9997H16C16.5304 17.9997 17.0391 17.789 17.4142 17.414C17.7893 17.0389 18 16.5302 18 15.9998V5.99994C18 5.46951 17.7893 4.96081 17.4142 4.58575C17.0391 4.21068 16.5304 3.99997 16 3.99997H4Z" fill="#4100E3"/>
<path fill-rule="evenodd" clip-rule="evenodd" d="M1 7.99987C1 7.73466 1.10536 7.48031 1.29289 7.29278C1.48043 7.10524 1.73478 6.99989 2 6.99989H18C18.2652 6.99989 18.5196 7.10524 18.7071 7.29278C18.8946 7.48031 19 7.73466 19 7.99987C19 8.26509 18.8946 8.51943 18.7071 8.70697C18.5196 8.8945 18.2652 8.99986 18 8.99986H2C1.73478 8.99986 1.48043 8.8945 1.29289 8.70697C1.10536 8.51943 1 8.26509 1 7.99987ZM6 0C6.26522 0 6.51957 0.105355 6.70711 0.292889C6.89464 0.480422 7 0.734772 7 0.999984V4.99992C7 5.26513 6.89464 5.51948 6.70711 5.70702C6.51957 5.89455 6.26522 5.9999 6 5.9999C5.73478 5.9999 5.48043 5.89455 5.29289 5.70702C5.10536 5.51948 5 5.26513 5 4.99992V0.999984C5 0.734772 5.10536 0.480422 5.29289 0.292889C5.48043 0.105355 5.73478 0 6 0ZM14 0C14.2652 0 14.5196 0.105355 14.7071 0.292889C14.8946 0.480422 15 0.734772 15 0.999984V4.99992C15 5.26513 14.8946 5.51948 14.7071 5.70702C14.5196 5.89455 14.2652 5.9999 14 5.9999C13.7348 5.9999 13.4804 5.89455 13.2929 5.70702C13.1054 5.51948 13 5.26513 13 4.99992V0.999984C13 0.734772 13.1054 0.480422 13.2929 0.292889C13.4804 0.105355 13.7348 0 14 0Z" fill="#4100E3"/>
<path d="M6 11C6 11.2652 5.89464 11.5195 5.70711 11.7071C5.51957 11.8946 5.26522 12 5 12C4.73478 12 4.48043 11.8946 4.29289 11.7071C4.10536 11.5195 4 11.2652 4 11C4 10.7348 4.10536 10.4804 4.29289 10.2929C4.48043 10.1054 4.73478 10 5 10C5.26522 10 5.51957 10.1054 5.70711 10.2929C5.89464 10.4804 6 10.7348 6 11ZM6 14.9999C6 15.2651 5.89464 15.5195 5.70711 15.707C5.51957 15.8946 5.26522 15.9999 5 15.9999C4.73478 15.9999 4.48043 15.8946 4.29289 15.707C4.10536 15.5195 4 15.2651 4 14.9999C4 14.7347 4.10536 14.4804 4.29289 14.2928C4.48043 14.1053 4.73478 13.9999 5 13.9999C5.26522 13.9999 5.51957 14.1053 5.70711 14.2928C5.89464 14.4804 6 14.7347 6 14.9999ZM11 11C11 11.2652 10.8946 11.5195 10.7071 11.7071C10.5196 11.8946 10.2652 12 10 12C9.73478 12 9.48043 11.8946 9.29289 11.7071C9.10536 11.5195 9 11.2652 9 11C9 10.7348 9.10536 10.4804 9.29289 10.2929C9.48043 10.1054 9.73478 10 10 10C10.2652 10 10.5196 10.1054 10.7071 10.2929C10.8946 10.4804 11 10.7348 11 11ZM11 14.9999C11 15.2651 10.8946 15.5195 10.7071 15.707C10.5196 15.8946 10.2652 15.9999 10 15.9999C9.73478 15.9999 9.48043 15.8946 9.29289 15.707C9.10536 15.5195 9 15.2651 9 14.9999C9 14.7347 9.10536 14.4804 9.29289 14.2928C9.48043 14.1053 9.73478 13.9999 10 13.9999C10.2652 13.9999 10.5196 14.1053 10.7071 14.2928C10.8946 14.4804 11 14.7347 11 14.9999ZM16 11C16 11.2652 15.8946 11.5195 15.7071 11.7071C15.5196 11.8946 15.2652 12 15 12C14.7348 12 14.4804 11.8946 14.2929 11.7071C14.1054 11.5195 14 11.2652 14 11C14 10.7348 14.1054 10.4804 14.2929 10.2929C14.4804 10.1054 14.7348 10 15 10C15.2652 10 15.5196 10.1054 15.7071 10.2929C15.8946 10.4804 16 10.7348 16 11ZM16 14.9999C16 15.2651 15.8946 15.5195 15.7071 15.707C15.5196 15.8946 15.2652 15.9999 15 15.9999C14.7348 15.9999 14.4804 15.8946 14.2929 15.707C14.1054 15.5195 14 15.2651 14 14.9999C14 14.7347 14.1054 14.4804 14.2929 14.2928C14.4804 14.1053 14.7348 13.9999 15 13.9999C15.2652 13.9999 15.5196 14.1053 15.7071 14.2928C15.8946 14.4804 16 14.7347 16 14.9999Z" fill="#FFC500"/>
</g>
<defs>
<clipPath id="clip0_3343_2431">
<rect width="20" height="19.9997" fill="white"/>
</clipPath>
</defs>
</svg>
