<svg xmlns="http://www.w3.org/2000/svg" width="13.471" height="13.245" viewBox="0 0 13.471 13.245">
  <g id="calendarhpsupp" transform="translate(0.657)">
    <g id="Frame">
      <path id="Vector" d="M0,0H12.084" transform="translate(0 8.991)" fill="none" stroke="#ffc500" stroke-width="1.315"/>
      <path id="Vector-2" data-name="Vector" d="M0,0V8.839" transform="translate(3.826 3.749)" fill="none" stroke="#ffc500" stroke-width="1.315"/>
      <path id="Vector-3" data-name="Vector" d="M0,0V8.839" transform="translate(8.022 3.749)" fill="none" stroke="#ffc500" stroke-width="1.315"/>
      <path id="Vector-4" data-name="Vector" d="M10.675,10.935H1.481A1.49,1.49,0,0,1,0,9.477V1.458A1.49,1.49,0,0,1,1.481,0h9.194a1.49,1.49,0,0,1,1.481,1.458V9.477A1.49,1.49,0,0,1,10.675,10.935Z" transform="translate(0 1.653)" fill="none" stroke="#4100e3" stroke-width="1.315"/>
      <path id="Vector-5" data-name="Vector" d="M0,0H12.084" transform="translate(0 5.457)" fill="none" stroke="#4100e3" stroke-width="1.315"/>
      <path id="Vector-6" data-name="Vector" d="M0,0V3.377" transform="translate(3.826)" fill="none" stroke="#ffc500" stroke-width="1.315"/>
      <path id="Vector-7" data-name="Vector" d="M0,0V3.377" transform="translate(8.022)" fill="none" stroke="#ffc500" stroke-width="1.315"/>
    </g>
  </g>
</svg>
