<svg width="16" height="16" viewBox="0 0 16 16" fill="none" xmlns="http://www.w3.org/2000/svg">
<path fill-rule="evenodd" clip-rule="evenodd" d="M3.2 1.6001H12.8C13.6487 1.6001 14.4626 1.93724 15.0627 2.53736C15.6629 3.13747 16 3.9514 16 4.8001V12.8001C16 13.6488 15.6629 14.4627 15.0627 15.0628C14.4626 15.663 13.6487 16.0001 12.8 16.0001H3.2C2.35131 16.0001 1.53737 15.663 0.937258 15.0628C0.337142 14.4627 0 13.6488 0 12.8001V4.8001C0 3.9514 0.337142 3.13747 0.937258 2.53736C1.53737 1.93724 2.35131 1.6001 3.2 1.6001ZM3.2 3.2001C2.77565 3.2001 2.36869 3.36867 2.06863 3.66873C1.76857 3.96878 1.6 4.37575 1.6 4.8001V12.8001C1.6 13.2244 1.76857 13.6314 2.06863 13.9315C2.36869 14.2315 2.77565 14.4001 3.2 14.4001H12.8C13.2243 14.4001 13.6313 14.2315 13.9314 13.9315C14.2314 13.6314 14.4 13.2244 14.4 12.8001V4.8001C14.4 4.37575 14.2314 3.96878 13.9314 3.66873C13.6313 3.36867 13.2243 3.2001 12.8 3.2001H3.2Z" fill="#4100E3"/>
<path fill-rule="evenodd" clip-rule="evenodd" d="M0.799805 6.4C0.799805 6.18783 0.88409 5.98434 1.03412 5.83431C1.18415 5.68429 1.38763 5.6 1.5998 5.6H14.3998C14.612 5.6 14.8155 5.68429 14.9655 5.83431C15.1155 5.98434 15.1998 6.18783 15.1998 6.4C15.1998 6.61217 15.1155 6.81566 14.9655 6.96569C14.8155 7.11571 14.612 7.2 14.3998 7.2H1.5998C1.38763 7.2 1.18415 7.11571 1.03412 6.96569C0.88409 6.81566 0.799805 6.61217 0.799805 6.4ZM4.7998 0C5.01198 0 5.21546 0.0842854 5.36549 0.234315C5.51552 0.384344 5.5998 0.587827 5.5998 0.8V4C5.5998 4.21217 5.51552 4.41566 5.36549 4.56569C5.21546 4.71571 5.01198 4.8 4.7998 4.8C4.58763 4.8 4.38415 4.71571 4.23412 4.56569C4.08409 4.41566 3.9998 4.21217 3.9998 4V0.8C3.9998 0.587827 4.08409 0.384344 4.23412 0.234315C4.38415 0.0842854 4.58763 0 4.7998 0ZM11.1998 0C11.412 0 11.6155 0.0842854 11.7655 0.234315C11.9155 0.384344 11.9998 0.587827 11.9998 0.8V4C11.9998 4.21217 11.9155 4.41566 11.7655 4.56569C11.6155 4.71571 11.412 4.8 11.1998 4.8C10.9876 4.8 10.7841 4.71571 10.6341 4.56569C10.4841 4.41566 10.3998 4.21217 10.3998 4V0.8C10.3998 0.587827 10.4841 0.384344 10.6341 0.234315C10.7841 0.0842854 10.9876 0 11.1998 0Z" fill="#4100E3"/>
<path d="M4.8002 8.8C4.8002 9.01217 4.71591 9.21566 4.56588 9.36569C4.41585 9.51571 4.21237 9.6 4.0002 9.6C3.78802 9.6 3.58454 9.51571 3.43451 9.36569C3.28448 9.21566 3.2002 9.01217 3.2002 8.8C3.2002 8.58783 3.28448 8.38434 3.43451 8.23431C3.58454 8.08429 3.78802 8 4.0002 8C4.21237 8 4.41585 8.08429 4.56588 8.23431C4.71591 8.38434 4.8002 8.58783 4.8002 8.8ZM4.8002 12C4.8002 12.2122 4.71591 12.4157 4.56588 12.5657C4.41585 12.7157 4.21237 12.8 4.0002 12.8C3.78802 12.8 3.58454 12.7157 3.43451 12.5657C3.28448 12.4157 3.2002 12.2122 3.2002 12C3.2002 11.7878 3.28448 11.5843 3.43451 11.4343C3.58454 11.2843 3.78802 11.2 4.0002 11.2C4.21237 11.2 4.41585 11.2843 4.56588 11.4343C4.71591 11.5843 4.8002 11.7878 4.8002 12ZM8.8002 8.8C8.8002 9.01217 8.71591 9.21566 8.56588 9.36569C8.41585 9.51571 8.21237 9.6 8.0002 9.6C7.78802 9.6 7.58454 9.51571 7.43451 9.36569C7.28448 9.21566 7.2002 9.01217 7.2002 8.8C7.2002 8.58783 7.28448 8.38434 7.43451 8.23431C7.58454 8.08429 7.78802 8 8.0002 8C8.21237 8 8.41585 8.08429 8.56588 8.23431C8.71591 8.38434 8.8002 8.58783 8.8002 8.8ZM8.8002 12C8.8002 12.2122 8.71591 12.4157 8.56588 12.5657C8.41585 12.7157 8.21237 12.8 8.0002 12.8C7.78802 12.8 7.58454 12.7157 7.43451 12.5657C7.28448 12.4157 7.2002 12.2122 7.2002 12C7.2002 11.7878 7.28448 11.5843 7.43451 11.4343C7.58454 11.2843 7.78802 11.2 8.0002 11.2C8.21237 11.2 8.41585 11.2843 8.56588 11.4343C8.71591 11.5843 8.8002 11.7878 8.8002 12ZM12.8002 8.8C12.8002 9.01217 12.7159 9.21566 12.5659 9.36569C12.4159 9.51571 12.2124 9.6 12.0002 9.6C11.788 9.6 11.5845 9.51571 11.4345 9.36569C11.2845 9.21566 11.2002 9.01217 11.2002 8.8C11.2002 8.58783 11.2845 8.38434 11.4345 8.23431C11.5845 8.08429 11.788 8 12.0002 8C12.2124 8 12.4159 8.08429 12.5659 8.23431C12.7159 8.38434 12.8002 8.58783 12.8002 8.8ZM12.8002 12C12.8002 12.2122 12.7159 12.4157 12.5659 12.5657C12.4159 12.7157 12.2124 12.8 12.0002 12.8C11.788 12.8 11.5845 12.7157 11.4345 12.5657C11.2845 12.4157 11.2002 12.2122 11.2002 12C11.2002 11.7878 11.2845 11.5843 11.4345 11.4343C11.5845 11.2843 11.788 11.2 12.0002 11.2C12.2124 11.2 12.4159 11.2843 12.5659 11.4343C12.7159 11.5843 12.8002 11.7878 12.8002 12Z" fill="#FFC500"/>
</svg>
