<svg xmlns="http://www.w3.org/2000/svg" width="22.933" height="20.64" viewBox="0 0 22.933 20.64">
  <g id="camera" transform="translate(21 -48)">
    <path id="Vector" d="M14.161,0a2.8,2.8,0,0,1,2.546,1.615c.136.272.326.669.525,1.088l.24.507.118.249.115.252a.261.261,0,0,0,.229.137,5.008,5.008,0,0,1,5,4.994v6.8a5.008,5.008,0,0,1-5,4.994H5a5,5,0,0,1-5-4.994v-6.8A5,5,0,0,1,5,3.849a.225.225,0,0,0,.218-.137l.069-.137c.321-.676.711-1.5.94-1.959A2.784,2.784,0,0,1,8.761,0ZM11.467,7.342a4.5,4.5,0,0,0-3.2,1.329A4.431,4.431,0,0,0,6.96,11.843a4.509,4.509,0,1,0,4.506-4.5Zm0,1.718A2.785,2.785,0,1,1,8.68,11.843v-.011a2.69,2.69,0,0,1,.8-1.947A2.777,2.777,0,0,1,11.467,9.06ZM17.9,7.067a1.037,1.037,0,1,0,1.043,1.042A1.037,1.037,0,0,0,17.9,7.067Z" transform="translate(-21 48)" fill="#fff"/>
  </g>
</svg>
