<svg width="160" height="129" viewBox="0 0 160 129" fill="none" xmlns="http://www.w3.org/2000/svg">
<g clip-path="url(#clip0_3381_6195)">
<g clip-path="url(#clip1_3381_6195)">
<path d="M124.314 19.6533H54.1733C34.4653 19.6533 18.4888 35.6298 18.4888 55.3379C18.4888 75.0459 34.4653 91.0225 54.1733 91.0225H124.314C144.022 91.0225 159.999 75.0459 159.999 55.3379C159.999 35.6298 144.022 19.6533 124.314 19.6533Z" fill="#EAEAFF"/>
<path d="M119.95 67.9482H23.0743C10.3307 67.9482 0 78.2789 0 91.0225C0 103.766 10.3307 114.097 23.0743 114.097H119.95C132.694 114.097 143.025 103.766 143.025 91.0225C143.025 78.2789 132.694 67.9482 119.95 67.9482Z" fill="#EAEAFF"/>
<path d="M104.55 126.245H29.8262L49.9488 35.2559H133.107L114.805 118.01C113.741 122.82 109.476 126.245 104.55 126.245Z" fill="white"/>
<path d="M104.583 126.245H21.8788C16.0781 126.245 11.3755 121.542 11.3755 115.741V105.239H94.0808V115.743C94.0808 118.643 95.2564 121.269 97.1572 123.168C99.0579 125.069 101.684 126.245 104.583 126.245Z" fill="#EAEAFF"/>
<path d="M134.644 34.0211C134.27 33.5548 133.705 33.2842 133.107 33.2842H49.9487C49.0239 33.2842 48.224 33.9265 48.0243 34.8289L32.5465 104.812C32.4177 105.396 32.5596 106.006 32.934 106.471C33.3083 106.938 33.8732 107.208 34.4708 107.208H92.1105V115.741C92.1105 119.074 93.4083 122.205 95.7636 124.561C98.1083 126.905 101.227 128.203 104.55 128.214H104.589C107.412 128.204 110.176 127.224 112.375 125.455C114.574 123.684 116.121 121.19 116.73 118.434L135.032 35.6801C135.16 35.0969 135.018 34.4861 134.644 34.0211ZM112.881 117.584C112.014 121.51 108.599 124.261 104.583 124.274H104.557C102.288 124.266 100.155 123.38 98.5497 121.774C96.9379 120.164 96.0512 118.022 96.0512 115.743V105.239C96.0512 104.152 95.1685 103.269 94.0809 103.269H36.9246L51.5316 37.2262H130.653L112.881 117.584Z" fill="#6E6BE8"/>
<path d="M104.55 128.215H21.879C15.0011 128.215 9.40527 122.619 9.40527 115.741V105.239C9.40527 104.152 10.288 103.269 11.3756 103.269H94.0809C95.1686 103.269 96.0513 104.152 96.0513 105.239V115.743C96.0513 118.022 96.9393 120.164 98.5497 121.775C100.155 123.38 102.288 124.267 104.557 124.274C105.644 124.278 106.523 125.161 106.52 126.247C106.519 127.334 105.636 128.215 104.55 128.215ZM13.346 107.21V115.741C13.346 120.447 17.1738 124.274 21.879 124.274H95.4852C93.3059 121.956 92.1106 118.941 92.1106 115.743V107.21H13.346Z" fill="#6E6BE8"/>
<path d="M83.1872 6.47936L66.531 33.5311C63.2287 38.8944 67.088 45.8012 73.3853 45.8012H106.319C112.618 45.8012 116.476 38.8944 113.173 33.5311L96.5173 6.47936C93.4606 1.51404 86.2425 1.51404 83.1858 6.47936H83.1872Z" fill="#FFC500"/>
<path d="M106.321 47.7717H73.3867C69.7048 47.7717 66.4353 45.8526 64.6396 42.6383C62.844 39.424 62.9241 35.633 64.855 32.4988L81.5112 5.44703C83.3068 2.52827 86.4253 0.785156 89.8524 0.785156C93.2795 0.785156 96.3992 2.52827 98.1962 5.44703L114.852 32.4988C116.782 35.6343 116.863 39.4253 115.068 42.6383C113.272 45.8526 110.003 47.7717 106.321 47.7717ZM89.8524 4.72588C87.8032 4.72588 85.9392 5.76755 84.8647 7.51197L68.2086 34.5637C67.0369 36.4658 66.9883 38.7659 68.0786 40.7152C69.1675 42.6659 71.1523 43.8297 73.3854 43.8297H106.319C108.552 43.8297 110.537 42.6659 111.626 40.7152C112.715 38.7645 112.667 36.4658 111.496 34.5624L94.84 7.51066C93.7655 5.76623 91.9002 4.72457 89.8524 4.72457V4.72588Z" fill="#4100E3"/>
<path d="M89.8537 31.5687C88.766 31.5687 87.8833 30.6859 87.8833 29.5983V14.1007C87.8833 13.0131 88.766 12.1304 89.8537 12.1304C90.9413 12.1304 91.824 13.0131 91.824 14.1007V29.5983C91.824 30.6859 90.9413 31.5687 89.8537 31.5687Z" fill="#4100E3"/>
<path d="M89.8537 38.5243C88.5283 38.5243 87.4551 37.4498 87.4551 36.1257V35.9655C87.4551 34.6401 88.5296 33.5669 89.8537 33.5669C91.1777 33.5669 92.2522 34.6414 92.2522 35.9655V36.1257C92.2522 37.4511 91.1777 38.5243 89.8537 38.5243Z" fill="#4100E3"/>
<path d="M111.008 61.6854H60.1159C59.0282 61.6854 58.1455 60.8026 58.1455 59.715C58.1455 58.6274 59.0282 57.7446 60.1159 57.7446H111.008C112.095 57.7446 112.978 58.6274 112.978 59.715C112.978 60.8026 112.095 61.6854 111.008 61.6854Z" fill="#6E6BE8" fill-opacity="0.5"/>
<path d="M107.569 75.9793H56.8083C55.7206 75.9793 54.8379 75.0966 54.8379 74.0089C54.8379 72.9213 55.7206 72.0386 56.8083 72.0386H107.569C108.656 72.0386 109.539 72.9213 109.539 74.0089C109.539 75.0966 108.656 75.9793 107.569 75.9793Z" fill="#6E6BE8" fill-opacity="0.5"/>
<path d="M84.2489 90.2723H53.7648C52.6772 90.2723 51.7944 89.3895 51.7944 88.3019C51.7944 87.2143 52.6772 86.3315 53.7648 86.3315H84.2489C85.3366 86.3315 86.2193 87.2143 86.2193 88.3019C86.2193 89.3895 85.3366 90.2723 84.2489 90.2723Z" fill="#6E6BE8" fill-opacity="0.5"/>
</g>
</g>
<defs>
<clipPath id="clip0_3381_6195">
<rect width="160" height="127.43" fill="white" transform="translate(0 0.785156)"/>
</clipPath>
<clipPath id="clip1_3381_6195">
<rect width="160" height="127.43" fill="white" transform="translate(0 0.785156)"/>
</clipPath>
</defs>
</svg>
