<svg width="9" height="16" viewBox="0 0 9 16" fill="none" xmlns="http://www.w3.org/2000/svg">
<path d="M0 11.2727C0 11.5982 0.129302 11.9104 0.35946 12.1405C0.589618 12.3707 0.90178 12.5 1.22727 12.5H2.45455C2.78004 12.5 3.0922 12.3707 3.32236 12.1405C3.55252 11.9104 3.68182 11.5982 3.68182 11.2727V10.0455C3.68182 9.71996 3.55252 9.4078 3.32236 9.17764C3.0922 8.94748 2.78004 8.81818 2.45455 8.81818H1.22727C0.90178 8.81818 0.589618 8.94748 0.35946 9.17764C0.129302 9.4078 0 9.71996 0 10.0455V11.2727ZM0 5.95455C0 6.28004 0.129302 6.5922 0.35946 6.82236C0.589618 7.05252 0.90178 7.18182 1.22727 7.18182H2.45455C2.78004 7.18182 3.0922 7.05252 3.32236 6.82236C3.55252 6.5922 3.68182 6.28004 3.68182 5.95455V4.72727C3.68182 4.40178 3.55252 4.08962 3.32236 3.85946C3.0922 3.6293 2.78004 3.5 2.45455 3.5H1.22727C0.90178 3.5 0.589618 3.6293 0.35946 3.85946C0.129302 4.08962 0 4.40178 0 4.72727V5.95455ZM5.31818 11.2727C5.31818 11.5982 5.44748 11.9104 5.67764 12.1405C5.9078 12.3707 6.21996 12.5 6.54545 12.5H7.77273C8.09822 12.5 8.41038 12.3707 8.64054 12.1405C8.8707 11.9104 9 11.5982 9 11.2727V10.0455C9 9.71996 8.8707 9.4078 8.64054 9.17764C8.41038 8.94748 8.09822 8.81818 7.77273 8.81818H6.54545C6.21996 8.81818 5.9078 8.94748 5.67764 9.17764C5.44748 9.4078 5.31818 9.71996 5.31818 10.0455V11.2727ZM5.31818 5.95455C5.31818 6.28004 5.44748 6.5922 5.67764 6.82236C5.9078 7.05252 6.21996 7.18182 6.54545 7.18182H7.77273C8.09822 7.18182 8.41038 7.05252 8.64054 6.82236C8.8707 6.5922 9 6.28004 9 5.95455V4.72727C9 4.40178 8.8707 4.08962 8.64054 3.85946C8.41038 3.6293 8.09822 3.5 7.77273 3.5H6.54545C6.21996 3.5 5.9078 3.6293 5.67764 3.85946C5.44748 4.08962 5.31818 4.40178 5.31818 4.72727V5.95455Z" fill="#C5C6CC"/>
</svg>
