<svg xmlns="http://www.w3.org/2000/svg" width="20" height="14" viewBox="0 0 20 14">
  <path id="credit-card" d="M17.5,14H2.5A2.5,2.5,0,0,1,0,11.5v-9A2.5,2.5,0,0,1,2.5,0h15A2.5,2.5,0,0,1,20,2.5v9A2.5,2.5,0,0,1,17.5,14ZM1,6v5.5A1.5,1.5,0,0,0,2.5,13h15A1.5,1.5,0,0,0,19,11.5V6ZM1,4V5H19V4ZM2.5,1A1.5,1.5,0,0,0,1,2.5V3H19V2.5A1.5,1.5,0,0,0,17.5,1ZM14,12a2,2,0,1,1,1-3.734,2,2,0,1,1,0,3.465A2,2,0,0,1,14,12Zm0-3a1,1,0,1,0,.25,1.97,2.009,2.009,0,0,1,0-1.939A1,1,0,0,0,14,9Zm2,0a1,1,0,1,0,1,1A1,1,0,0,0,16,9Z" transform="translate(0 0)" fill="#fff"/>
</svg>
