<svg width="191" height="190" viewBox="0 0 191 190" fill="none" xmlns="http://www.w3.org/2000/svg">
<g clip-path="url(#clip0_3711_3633)">
<mask id="mask0_3711_3633" style="mask-type:luminance" maskUnits="userSpaceOnUse" x="0" y="0" width="191" height="190">
<path d="M145.227 0C172.688 0 190.5 17.8125 190.5 45.2734V144.727C190.5 172.188 172.688 190 145.227 190H45.7734C18.3125 190 0.5 172.188 0.5 144.727V45.2734C0.5 17.8125 18.3125 0 45.7734 0H145.227Z" fill="white"/>
</mask>
<g mask="url(#mask0_3711_3633)">
<path d="M190.5 0H0.5V190H190.5V0Z" fill="url(#paint0_linear_3711_3633)"/>
<g clip-path="url(#clip1_3711_3633)">
<mask id="mask1_3711_3633" style="mask-type:luminance" maskUnits="userSpaceOnUse" x="27" y="20" width="139" height="182">
<path d="M165.006 20.5833H27.5693V201.083H165.006V20.5833Z" fill="white"/>
</mask>
<g mask="url(#mask1_3711_3633)">
<path d="M53.1821 131.939H53.0489C51.8494 133.68 50.3418 135.085 48.526 136.148C46.7101 137.218 44.6861 137.749 42.4704 137.749C40.0799 137.749 37.9475 137.3 36.0817 136.409C34.2159 135.518 32.6583 134.309 31.3922 132.789C30.1261 131.269 29.1766 129.504 28.5352 127.501C27.8938 125.499 27.569 123.415 27.569 121.233C27.569 119.051 27.9105 117.139 28.6018 115.202C29.2848 113.273 30.2677 111.574 31.5255 110.111C32.7916 108.656 34.3159 107.479 36.115 106.589C37.9059 105.698 39.9383 105.248 42.2039 105.248C44.4695 105.248 46.6352 105.796 48.4593 106.883C50.2752 107.97 51.8078 109.424 53.0489 111.255H53.1821V80.0695H59.171V136.703H53.1821V131.939ZM43.4033 132.527C45.0442 132.527 46.4852 132.233 47.7263 131.645C48.9674 131.056 50.0169 130.255 50.8832 129.226C51.7495 128.204 52.3992 127.036 52.849 125.704C53.2904 124.371 53.5153 122.958 53.5153 121.429C53.5153 119.901 53.2904 118.545 52.849 117.221C52.4075 115.897 51.7495 114.736 50.8832 113.731C50.0253 112.726 48.9508 111.933 47.693 111.345C46.4269 110.756 45.0026 110.462 43.4033 110.462C41.8041 110.462 40.463 110.765 39.2469 111.377C38.0308 111.982 36.998 112.799 36.1483 113.829C35.3071 114.851 34.6657 116.019 34.2159 117.319C33.7744 118.626 33.5495 119.991 33.5495 121.429C33.5495 122.868 33.7744 124.249 34.2159 125.573C34.6574 126.897 35.2904 128.082 36.115 129.128C36.9396 130.166 37.9558 130.999 39.1719 131.604C40.3881 132.209 41.7957 132.519 43.395 132.519L43.4033 132.527Z" fill="#FFC500"/>
<path d="M108.857 110.274H108.99C109.923 108.623 111.239 107.373 112.946 106.523C114.654 105.673 116.461 105.248 118.369 105.248C120.543 105.248 122.35 105.583 123.791 106.261C125.232 106.94 126.365 107.871 127.182 109.065C128.006 110.258 128.581 111.663 128.914 113.273C129.247 114.875 129.414 116.624 129.414 118.495V136.695H123.425V119.206C123.425 117.899 123.358 116.714 123.225 115.651C123.092 114.589 122.784 113.666 122.292 112.881C121.801 112.096 121.109 111.5 120.193 111.083C119.285 110.675 118.077 110.462 116.57 110.462C114.621 110.462 113.121 110.846 112.08 111.606C111.039 112.366 110.289 113.331 109.815 114.507C109.348 115.684 109.073 116.984 108.982 118.422C108.89 119.852 108.848 121.274 108.848 122.663V136.687H102.859V106.147H108.848V110.258L108.857 110.274Z" fill="#FFC500"/>
<path d="M141.258 122.41C141.258 123.717 141.483 124.976 141.925 126.194C142.366 127.411 142.999 128.49 143.824 129.422C144.648 130.353 145.631 131.105 146.781 131.669C147.93 132.233 149.221 132.519 150.637 132.519C152.944 132.519 154.785 131.988 156.16 130.917C157.534 129.847 158.8 128.408 159.95 126.578L165.006 129.381C163.548 132.037 161.541 134.088 158.992 135.543C156.435 136.997 153.636 137.725 150.579 137.725C148.188 137.725 146.039 137.308 144.157 136.483C142.274 135.657 140.675 134.529 139.367 133.091C138.06 131.661 137.043 129.961 136.344 128C135.636 126.038 135.278 123.93 135.278 121.666C135.278 119.402 135.594 117.139 136.244 115.137C136.885 113.134 137.843 111.394 139.109 109.914C140.375 108.435 141.941 107.283 143.832 106.458C145.715 105.632 147.922 105.215 150.454 105.215C152.986 105.215 155.085 105.64 156.909 106.49C158.725 107.34 160.233 108.492 161.432 109.947C162.632 111.402 163.531 113.126 164.131 115.104C164.731 117.082 165.022 119.206 165.022 121.462V122.377H141.258V122.41ZM159.017 117.972C158.667 115.668 157.742 113.821 156.26 112.432C154.777 111.034 152.836 110.348 150.437 110.348C148.038 110.348 146.114 111.067 144.515 112.505C142.916 113.935 141.941 115.766 141.591 117.981H159.017V117.972Z" fill="#FFC500"/>
<path d="M96.1208 115.071C95.2545 113.094 94.08 111.377 92.5974 109.914C91.1147 108.46 89.3489 107.316 87.3082 106.49C85.2674 105.665 83.0934 105.248 80.7862 105.248C78.4789 105.248 76.2549 105.665 74.2308 106.49C72.2151 107.316 70.4576 108.46 68.9749 109.914C67.4923 111.369 66.3178 113.094 65.4516 115.071C64.5853 117.049 64.1522 119.19 64.1522 121.495C64.1522 123.799 64.5853 125.94 65.4516 127.918C66.3178 129.896 67.4923 131.612 68.9749 133.067C70.4659 134.521 72.2151 135.665 74.2308 136.491C76.2466 137.316 78.4789 137.733 80.7862 137.733C81.6358 137.733 82.4687 137.659 83.2767 137.545L80.9361 132.119C80.8861 132.119 80.8278 132.119 80.7778 132.119C79.3118 132.119 77.9291 131.841 76.6214 131.269C75.3137 130.705 74.1809 129.928 73.2313 128.956C72.2734 127.975 71.5238 126.847 70.9657 125.564C70.4076 124.281 70.1327 122.917 70.1327 121.486C70.1327 120.056 70.4076 118.683 70.9657 117.376C71.5238 116.068 72.2734 114.94 73.2313 113.984C74.1809 113.028 75.3137 112.268 76.6214 111.704C77.9291 111.14 79.3118 110.854 80.7778 110.854C82.2438 110.854 83.6265 111.14 84.9342 111.704C86.242 112.268 87.3748 113.036 88.3244 113.984C89.2739 114.94 90.0319 116.076 90.59 117.376C91.1481 118.683 91.4229 120.048 91.4229 121.486C91.4229 122.925 91.1397 124.281 90.59 125.564C90.0319 126.847 89.2822 127.983 88.3244 128.956C88.1911 129.095 88.0495 129.217 87.9079 129.34L90.2984 134.889C91.1147 134.341 91.881 133.737 92.5807 133.05C94.0634 131.596 95.2378 129.879 96.1041 127.902C96.962 125.924 97.4035 123.783 97.4035 121.478C97.4035 119.174 96.9704 117.033 96.1041 115.055L96.1208 115.071Z" fill="#FFC500"/>
<path d="M93.655 87.0566C93.8965 86.5417 93.8882 86.1004 93.73 85.6918C93.7133 85.6591 93.7133 85.651 93.7133 85.6428C93.7133 85.6264 93.705 85.6183 93.6966 85.6019C93.4051 84.9563 92.6721 84.3843 91.7975 84.0737C90.9146 83.7632 89.9151 83.7305 89.1904 84.0247C88.6656 84.2453 88.2825 84.6131 88.0992 85.2587L85.059 95.7437L82.9933 102.862V102.878C83.0682 103.066 83.5347 103.409 84.1677 103.63C84.176 103.63 84.1844 103.63 84.201 103.638C84.8507 103.875 85.5337 103.908 85.767 103.802L85.8836 103.769C85.8836 103.769 85.8836 103.761 85.8836 103.753C85.9002 103.712 85.9336 103.638 85.9502 103.524L85.9919 103.385L91.0729 92.5239L93.6383 87.0484H93.6467L93.655 87.0566ZM65.5013 81.9653C64.76 81.8182 63.8521 81.9407 63.0275 82.2676C62.2028 82.6109 61.4782 83.1584 61.07 83.7877C60.6619 84.4169 60.5369 85.0707 60.8535 85.8307C60.8785 85.888 60.9034 85.9452 60.9451 86.0187L69.2163 101.881L70.6906 104.701C70.6906 104.701 70.7905 104.823 71.1904 104.823C71.5569 104.823 72.0483 104.692 72.5231 104.504C72.9895 104.308 73.4227 104.047 73.6809 103.802C73.9724 103.516 73.9724 103.385 73.9558 103.377L72.9312 100.361L67.2172 83.4608C67.1922 83.3872 67.1672 83.3137 67.1422 83.2565C66.8174 82.4965 66.251 82.1287 65.5097 81.9653H65.5013ZM65.443 110.609L57.9215 106.907L48.9007 102.47C48.3342 102.2 47.8428 102.216 47.3764 102.396C46.6933 102.682 46.0603 103.385 45.7105 104.227C45.3606 105.052 45.294 105.975 45.5605 106.662C45.5605 106.67 45.5605 106.678 45.5689 106.686C45.7688 107.144 46.1103 107.487 46.71 107.683L50.9414 109.024L64.3352 113.265C64.3352 113.265 64.3519 113.265 64.3602 113.257C64.5767 113.192 64.9766 112.701 65.2264 112.088C65.493 111.467 65.5513 110.838 65.4597 110.658C65.4597 110.65 65.443 110.625 65.443 110.625V110.609ZM65.7845 134.407C65.7096 134.382 65.6846 134.374 65.6596 134.382L60.3287 138.567L54.2482 143.347C53.6734 143.813 53.6235 144.402 53.8817 145.088L53.8983 145.121C54.1399 145.685 54.6313 146.24 55.1728 146.567C55.7225 146.894 56.2806 146.992 56.7304 146.804C56.897 146.739 57.0635 146.624 57.2218 146.461L61.4115 141.983L67.1089 135.894C67.1089 135.894 67.0923 135.788 67.0506 135.682C66.9257 135.387 66.6008 134.971 66.2676 134.709C66.0594 134.554 65.8928 134.44 65.7845 134.399V134.407Z" fill="white"/>
<path d="M112.386 196.248L105.05 178.876C104.749 178.169 103.946 177.816 103.219 178.065C103.205 178.065 103.191 178.072 103.198 178.065C103.135 178.086 102.877 178.176 102.478 178.301C101.787 178.516 100.711 178.82 99.7535 178.987C99.2784 179.07 98.8172 179.125 98.4958 179.125C98.3281 179.125 98.2094 179.118 98.1325 179.105C98.1325 179.105 98.1185 179.105 98.1115 179.105L98.0696 179.091C96.1761 178.051 94.5412 175.889 91.8862 173.672C89.2032 171.454 85.4162 169.368 79.2817 168.71C79.2328 168.71 79.1908 168.676 79.1629 168.634C79.1489 168.606 79.128 168.578 79.114 168.537C79.114 168.523 79.1 168.509 79.1 168.502V168.488C78.9253 168.073 78.9184 167.061 79.3865 166.084C79.8476 165.079 80.6791 164.116 81.9996 163.534C82.0136 163.485 82.0485 163.444 82.1044 163.43C82.1463 163.416 82.1883 163.423 82.2232 163.437C83.4808 162.945 85.2695 162.771 87.673 163.381C89.0494 163.728 90.6215 164.338 92.4241 165.287C92.4521 165.301 92.48 165.328 92.494 165.363L93.7447 168.322C94.0661 169.084 94.9534 169.445 95.722 169.126C96.4906 168.807 96.8539 167.927 96.5325 167.165L80.1061 128.297C79.7079 127.333 79.8057 126.453 80.2179 125.615C80.6302 124.797 81.3987 124.09 82.2092 123.751H82.2162C82.9289 123.46 83.5926 123.432 84.1586 123.654C84.7175 123.882 85.3184 124.367 85.8285 125.552L85.8494 125.615C87.0442 128.539 88.6232 132.288 90.1813 135.988C91.7045 139.592 93.2207 143.147 94.3735 145.849C94.3735 145.842 94.3595 145.829 94.3525 145.822C94.3595 145.835 94.3735 145.849 94.3805 145.863C94.3805 145.863 94.3805 145.877 94.3805 145.884V145.898C94.3805 145.898 94.3805 145.919 94.3945 145.932L96.6023 151.15C96.9307 151.92 97.8181 152.287 98.6006 151.961C99.3762 151.636 99.7465 150.749 99.4181 149.979L99.1805 149.425C99.1805 149.425 99.1735 149.397 99.1596 149.377C99.1456 149.356 99.1316 149.307 99.1107 149.259C99.1107 149.259 96.4416 143.015 96.0713 142.142C95.6801 140.805 96.3578 139.349 97.6993 138.788C99.1386 138.192 100.795 138.864 101.395 140.292L104.533 147.859C104.861 148.628 105.755 148.995 106.531 148.67C107.306 148.344 107.677 147.457 107.348 146.688L107.285 146.535C107.285 146.535 107.285 146.522 107.285 146.515C107.285 146.515 107.278 146.487 107.264 146.473C107.25 146.431 107.23 146.376 107.202 146.3C107.146 146.154 107.055 145.946 106.957 145.697C106.747 145.205 106.475 144.54 106.202 143.881C105.65 142.565 105.098 141.255 105.098 141.255C104.498 139.827 105.175 138.192 106.615 137.589C108.005 137.014 109.584 137.617 110.241 138.941V138.968C110.269 139.01 110.297 139.086 110.353 139.225C110.807 140.354 112.547 144.533 112.554 144.54C112.882 145.309 113.776 145.669 114.552 145.35C115.327 145.025 115.698 144.138 115.369 143.362L114.014 140.042C113.413 138.615 114.091 136.972 115.53 136.37C116.969 135.774 118.625 136.446 119.233 137.873C119.233 137.873 119.778 139.245 119.82 139.342L120.498 140.943C122.175 144.921 123.747 148.975 125.431 152.959C126.045 154.414 126.674 155.856 127.331 157.283C127.373 157.373 127.408 157.463 127.45 157.553C129.245 161.836 127.366 166.188 126.318 170.505C126.248 170.803 126.269 171.115 126.388 171.392L126.395 171.399L137.679 196.207H140.858L129.658 171.634C129.658 171.634 129.658 171.634 129.651 171.614C129.448 171.094 129.616 169.777 129.874 168.44C130.133 167.096 130.475 165.744 130.615 165.211C131.258 162.723 131.831 160.45 130.915 157.928C130.79 157.574 130.65 157.228 130.496 156.874C130.028 155.766 129.483 154.678 129.015 153.569C129.015 153.569 129.015 153.569 129.015 153.548C129.015 153.534 129.001 153.513 128.987 153.5C128.945 153.403 128.91 153.306 128.868 153.209C128.533 152.377 128.183 151.545 127.834 150.714C126.835 148.344 125.794 145.995 124.795 143.625C124.62 143.209 124.445 142.793 124.271 142.378C124.089 141.934 123.9 141.498 123.726 141.075C123.726 141.075 123.726 141.061 123.719 141.054C123.53 140.611 121.937 136.744 121.937 136.744C120.707 133.84 117.34 132.468 114.412 133.688C113.294 134.152 112.407 134.935 111.792 135.878C111.771 135.912 111.729 135.94 111.68 135.947C111.638 135.954 111.589 135.947 111.554 135.912C109.954 134.492 107.614 134.02 105.497 134.901C104.372 135.365 103.484 136.148 102.877 137.09C102.856 137.125 102.814 137.153 102.765 137.16C102.723 137.16 102.674 137.16 102.639 137.125C101.039 135.704 98.6984 135.233 96.5814 136.113C95.722 136.474 94.9953 137.014 94.4294 137.672C94.3945 137.714 94.3386 137.735 94.2827 137.728C94.2268 137.728 94.1849 137.686 94.1639 137.631C93.7726 136.709 93.3744 135.767 92.9761 134.824C91.411 131.124 89.846 127.389 88.6512 124.478L88.5953 124.347C87.8687 122.621 86.6739 121.402 85.2555 120.861C83.8372 120.307 82.342 120.438 81.0634 120.965H81.0424C79.5402 121.603 78.2686 122.767 77.5 124.257C76.7384 125.733 76.5288 127.624 77.2834 129.426C77.2834 129.426 77.2834 129.433 77.2974 129.454L90.6285 160.991C90.6495 161.046 90.6425 161.115 90.6005 161.164C90.5586 161.205 90.4888 161.219 90.4329 161.198C88.4206 160.457 86.604 160.104 84.99 160.076C83.4669 160.048 82.1254 160.311 80.9585 160.79H80.9446C78.8345 161.67 77.4301 163.243 76.6965 164.864C75.9699 166.5 75.8022 168.177 76.3891 169.625C76.5847 170.096 76.8852 170.54 77.3114 170.9C77.7376 171.253 78.2895 171.496 78.8764 171.558C84.5498 172.189 87.6171 173.942 89.9927 175.875C92.3752 177.802 93.9892 180.096 96.6652 181.62C97.5526 182.07 98.2932 182.022 99.0687 181.98C100.319 181.87 101.703 181.523 102.716 181.232C102.793 181.211 102.877 181.246 102.912 181.322L109.207 196.214H112.379L112.386 196.248Z" fill="white"/>
<path d="M53.1825 72.4528H53.0492C51.8498 74.1935 50.3422 75.5992 48.5263 76.6616C46.7105 77.7321 44.6864 78.2633 42.4708 78.2633C40.0802 78.2633 37.9479 77.8139 36.0821 76.9231C34.2163 76.0323 32.6587 74.8228 31.3926 73.3027C30.1265 71.7827 29.1769 70.0175 28.5356 68.0153C27.8942 66.0131 27.5693 63.9291 27.5693 61.7471C27.5693 59.5651 27.9108 57.6528 28.6022 55.716C29.2852 53.7873 30.2681 52.0875 31.5258 50.6246C32.7919 49.17 34.3162 47.9932 36.1154 47.1024C37.9062 46.2116 39.9386 45.7621 42.2042 45.7621C44.4699 45.7621 46.6355 46.3097 48.4597 47.3966C50.2755 48.4835 51.8081 49.9382 53.0492 51.7688H53.1825V20.5833H59.1714V77.2173H53.1825V72.4528ZM43.4037 73.0412C45.0446 73.0412 46.4856 72.747 47.7267 72.1586C48.9678 71.5702 50.0173 70.7693 50.8836 69.7396C51.7498 68.7181 52.3995 67.5495 52.8493 66.2174C53.2908 64.8853 53.5157 63.4715 53.5157 61.9433C53.5157 60.415 53.2908 59.0584 52.8493 57.7345C52.4079 56.4106 51.7498 55.2502 50.8836 54.245C50.0256 53.2398 48.9511 52.4471 47.6934 51.8587C46.4273 51.2703 45.003 50.9761 43.4037 50.9761C41.8044 50.9761 40.4634 51.2784 39.2473 51.8914C38.0312 52.4961 36.9983 53.3133 36.1487 54.343C35.2991 55.3646 34.6661 56.525 34.2163 57.8326C33.7748 59.1402 33.5499 60.5049 33.5499 61.9433C33.5499 63.3816 33.7748 64.7627 34.2163 66.0866C34.6577 67.4187 35.2908 68.5955 36.1154 69.6416C36.94 70.6876 37.9562 71.513 39.1723 72.1178C40.3884 72.7225 41.7961 73.0331 43.3954 73.0331L43.4037 73.0412Z" fill="#FFC500"/>
<path d="M71.3406 28.6085C72.4901 28.6085 73.4646 29.0089 74.2642 29.818C75.0639 30.627 75.4637 31.5913 75.4637 32.7191C75.4637 33.8469 75.0639 34.7949 74.2642 35.5549C73.4646 36.3149 72.4901 36.699 71.3406 36.699C70.1911 36.699 69.2166 36.3231 68.4169 35.5549C67.6173 34.7949 67.2175 33.8469 67.2175 32.7191C67.2175 31.5913 67.6173 30.6188 68.4169 29.818C69.2166 29.0089 70.1911 28.6085 71.3406 28.6085ZM74.3309 77.2172H68.342V46.6774H74.3309V77.2172Z" fill="#FFC500"/>
<path d="M89.8988 50.7964H90.0321C90.965 49.1456 92.2811 47.8952 93.9886 47.0453C95.6962 46.1954 97.5037 45.7704 99.4111 45.7704C101.585 45.7704 103.393 46.1055 104.834 46.7838C106.275 47.4621 107.407 48.3938 108.224 49.5869C109.048 50.7801 109.623 52.1857 109.956 53.7956C110.289 55.4056 110.456 57.1463 110.456 59.0177V77.2174H104.467V59.7287C104.467 58.4212 104.4 57.2443 104.267 56.1738C104.134 55.1032 103.826 54.1879 103.334 53.4034C102.843 52.6188 102.152 52.0222 101.235 51.6055C100.327 51.1968 99.1196 50.9844 97.6119 50.9844C95.6628 50.9844 94.1635 51.3685 93.1224 52.1285C92.0812 52.8885 91.3315 53.8528 90.8567 55.0297C90.3903 56.2065 90.1154 57.5059 90.0238 58.9442C89.9322 60.3743 89.8905 61.7963 89.8905 63.1856V77.2093H83.9016V46.6776H89.8905V50.7882L89.8988 50.7964Z" fill="#FFC500"/>
<path d="M147.846 78.9415C147.846 81.5485 147.622 83.9675 147.18 86.1821C146.739 88.3968 145.947 90.3092 144.823 91.9191C143.69 93.529 142.141 94.7794 140.167 95.6702C138.193 96.561 135.694 97.0104 132.687 97.0104C130.513 97.0104 128.514 96.6999 126.698 96.0624C124.882 95.4332 123.308 94.5179 121.975 93.3247C120.642 92.1316 119.601 90.6851 118.843 88.9852C118.085 87.2936 117.694 85.3567 117.644 83.1829H123.633C123.633 85.9206 124.499 88.0454 126.223 89.541C127.956 91.0447 130.188 91.7883 132.945 91.7883C134.811 91.7883 136.318 91.4941 137.476 90.9057C138.634 90.3173 139.525 89.5246 140.167 88.5194C140.808 87.5142 141.25 86.3374 141.499 84.9645C141.741 83.5997 141.866 82.1287 141.866 80.5596V72.4445H141.733C140.533 74.1852 139.026 75.5909 137.21 76.6533C135.394 77.7238 133.37 78.255 131.154 78.255C128.764 78.255 126.631 77.8056 124.765 76.9148C122.9 76.024 121.342 74.8145 120.076 73.2945C118.81 71.7744 117.86 70.0092 117.219 68.007C116.578 66.0048 116.253 63.9208 116.253 61.7388C116.253 59.5568 116.594 57.6445 117.286 55.7077C117.969 53.779 118.951 52.0792 120.209 50.6164C121.475 49.1617 123 47.9849 124.799 47.0941C126.59 46.2033 128.622 45.7538 130.888 45.7538C133.153 45.7538 135.319 46.3014 137.143 47.3883C138.959 48.4752 140.492 49.9789 141.733 51.8912H141.866V46.6691H147.855V78.9252L147.846 78.9415ZM132.079 73.0411C133.72 73.0411 135.161 72.7469 136.402 72.1585C137.643 71.5701 138.692 70.7692 139.559 69.7395C140.425 68.718 141.075 67.5493 141.524 66.2173C141.966 64.8852 142.191 63.4714 142.191 61.9431C142.191 60.4149 141.966 59.0583 141.524 57.7344C141.083 56.4023 140.425 55.25 139.559 54.2449C138.692 53.2397 137.626 52.4469 136.368 51.8585C135.102 51.2701 133.678 50.9759 132.079 50.9759C130.479 50.9759 129.138 51.2783 127.922 51.8912C126.706 52.496 125.673 53.3132 124.832 54.3429C123.991 55.3645 123.349 56.5249 122.9 57.8325C122.458 59.1401 122.233 60.5048 122.233 61.9431C122.233 63.3815 122.458 64.7626 122.9 66.0865C123.341 67.4186 123.974 68.5954 124.799 69.6414C125.623 70.6875 126.64 71.5129 127.856 72.1176C129.072 72.7224 130.479 73.0329 132.079 73.0329V73.0411Z" fill="#FFC500"/>
<path d="M105.558 103.295C105.991 102.993 106.066 102.568 105.899 102.045C105.899 102.037 105.891 102.02 105.883 102.012C105.883 102.004 105.883 101.988 105.866 101.963C105.699 101.522 105.341 101.08 104.958 100.811C104.55 100.533 104.134 100.443 103.8 100.557C103.675 100.598 103.55 100.672 103.426 100.794L94.9961 108.836C94.9961 108.836 95.0044 108.893 95.0211 108.934C95.0961 109.163 95.3376 109.498 95.5708 109.71C95.6874 109.808 95.7874 109.89 95.854 109.931L95.8207 109.98L95.8457 109.939C95.8874 109.964 95.9207 109.98 95.9623 109.988H95.9706H95.9873C95.9873 109.988 95.9873 109.98 96.004 109.964C96.0623 109.874 96.1539 109.8 96.2538 109.759" fill="white"/>
<path d="M115.204 114.916C114.837 114.279 114.338 113.935 113.605 114.074L99.2779 116.926C99.2279 116.984 99.1696 117.163 99.153 117.572C99.153 118.013 99.2529 118.52 99.4112 118.798C99.4528 118.88 99.4945 118.937 99.5278 118.97C99.5278 118.97 99.5278 118.978 99.5361 118.986L114.138 118.308C114.371 118.291 114.563 118.242 114.712 118.161C115.154 117.932 115.437 117.458 115.537 116.837" fill="white"/>
<path d="M51.5664 123.742L50.1337 123.824C49.9588 123.832 49.8172 123.881 49.7172 123.93C49.3924 124.102 49.1758 124.461 49.1175 124.944C49.0509 125.426 49.1592 125.99 49.3924 126.415C49.3924 126.415 49.3924 126.431 49.4007 126.431C49.6922 126.913 50.0587 127.158 50.6002 127.044C50.6085 127.044 50.6252 127.044 50.6335 127.044L53.4655 126.439L62.1115 124.592C62.1282 124.551 62.1532 124.437 62.1698 124.151C62.1698 123.808 62.0782 123.407 61.9616 123.211C61.9366 123.162 61.9116 123.129 61.8949 123.105L51.583 123.726L51.5664 123.742Z" fill="white"/>
</g>
</g>
</g>
</g>
<defs>
<linearGradient id="paint0_linear_3711_3633" x1="95.5" y1="0" x2="95.5" y2="363.564" gradientUnits="userSpaceOnUse">
<stop stop-color="#4100E3"/>
<stop offset="1" stop-color="#1F126B"/>
</linearGradient>
<clipPath id="clip0_3711_3633">
<rect width="190" height="190" fill="white" transform="translate(0.5)"/>
</clipPath>
<clipPath id="clip1_3711_3633">
<rect width="137.75" height="180.5" fill="white" transform="translate(27.4167 20.5833)"/>
</clipPath>
</defs>
</svg>
