<svg width="21" height="20" viewBox="0 0 21 20" fill="none" xmlns="http://www.w3.org/2000/svg">
<g clip-path="url(#clip0_3290_16414)">
<path fill-rule="evenodd" clip-rule="evenodd" d="M18.608 0.875652C18.0496 0.313913 17.283 0 16.483 0C15.683 0 14.9246 0.313913 14.358 0.875652L2.13296 13.1348C1.7913 13.4735 1.5413 13.8948 1.40796 14.3574L0.549629 17.29C0.482962 17.5213 0.482962 17.7609 0.541296 17.9922C0.599629 18.2235 0.716296 18.4383 0.891296 18.6035C1.05796 18.777 1.27463 18.8926 1.50796 18.9587C1.7413 19.0165 1.9913 19.0165 2.22463 18.9504L5.14963 18.0996C5.6163 17.9674 6.03296 17.7113 6.37463 17.3726L18.608 5.11348C19.1663 4.55174 19.483 3.79174 19.483 2.9987C19.483 2.20565 19.1663 1.44565 18.608 0.883913V0.875652ZM17.4246 3.94043L5.1913 16.1996C5.04963 16.34 4.8663 16.4474 4.67463 16.5052L2.3163 17.1909L3.00796 14.8117C3.0663 14.6135 3.17463 14.4317 3.3163 14.2913L15.5496 2.04043C15.7996 1.79261 16.133 1.65217 16.483 1.65217C16.833 1.65217 17.1663 1.79261 17.4163 2.04043C17.6663 2.28826 17.808 2.63522 17.808 2.99043C17.808 3.34565 17.6663 3.69261 17.4163 3.94043H17.4246Z" fill="white"/>
<path fill-rule="evenodd" clip-rule="evenodd" d="M9.6665 18.174C9.6665 17.7196 10.0415 17.3479 10.4998 17.3479H19.6665C20.1248 17.3479 20.4998 17.7196 20.4998 18.174C20.4998 18.6283 20.1248 19.0001 19.6665 19.0001H10.4998C10.0415 19.0001 9.6665 18.6283 9.6665 18.174Z" fill="#FFC500"/>
</g>
<defs>
<clipPath id="clip0_3290_16414">
<rect width="20" height="19" fill="white" transform="translate(0.5)"/>
</clipPath>
</defs>
</svg>
