<svg id="Group_5" data-name="Group 5" xmlns="http://www.w3.org/2000/svg" xmlns:xlink="http://www.w3.org/1999/xlink" width="32" height="28.138" viewBox="0 0 32 28.138">
  <defs>
    <clipPath id="clip-path">
      <rect id="Rectangle_9" data-name="Rectangle 9" width="32" height="28.138" fill="#040542"/>
    </clipPath>
  </defs>
  <g id="Group_4" data-name="Group 4" clip-path="url(#clip-path)">
    <path id="Path_13" data-name="Path 13" d="M47.305,16.276h-.334A3.975,3.975,0,0,1,43,12.305V8h8.276v4.305a3.976,3.976,0,0,1-3.971,3.971m-2.65-6.621v2.65a2.318,2.318,0,0,0,2.316,2.316h.334a2.318,2.318,0,0,0,2.316-2.316V9.655Z" transform="translate(-19.276 -3.586)" fill="#040542"/>
    <rect id="Rectangle_7" data-name="Rectangle 7" width="1.655" height="3.31" transform="translate(24.828)" fill="#040542"/>
    <rect id="Rectangle_8" data-name="Rectangle 8" width="1.655" height="3.31" transform="translate(29.241)" fill="#040542"/>
    <path id="Path_14" data-name="Path 14" d="M23.579,38H20V36.344h3.579A12.435,12.435,0,0,0,36,23.923V22h1.655v1.924A14.092,14.092,0,0,1,23.579,38" transform="translate(-8.966 -9.862)" fill="#040542"/>
    <path id="Path_15" data-name="Path 15" d="M10.759,23.517A10.759,10.759,0,1,1,21.517,12.759,10.771,10.771,0,0,1,10.759,23.517m0-19.862a9.1,9.1,0,1,0,9.1,9.1,9.114,9.114,0,0,0-9.1-9.1" transform="translate(0 -0.897)" fill="#040542"/>
    <path id="Path_16" data-name="Path 16" d="M23,19.931a1.931,1.931,0,1,1,1.931,1.931A1.931,1.931,0,0,1,23,19.931" transform="translate(-10.31 -8.069)" fill="#040542"/>
    <path id="Path_17" data-name="Path 17" d="M8,19.931a1.931,1.931,0,1,1,1.931,1.931A1.931,1.931,0,0,1,8,19.931" transform="translate(-3.586 -8.069)" fill="#040542"/>
    <path id="Path_18" data-name="Path 18" d="M19.966,9.517H15V4h1.655V7.862H18.31V4h1.655Z" transform="translate(-6.724 -1.793)" fill="#040542"/>
    <path id="Path_19" data-name="Path 19" d="M19.966,35.517H18.31V31.655H16.655v3.862H15V30h4.966Z" transform="translate(-6.724 -13.448)" fill="#040542"/>
  </g>
</svg>
