<svg id="email-home" xmlns="http://www.w3.org/2000/svg" width="17.312" height="17.312" viewBox="0 0 17.312 17.312">
  <path id="Vector" d="M12.211,8.947H2.066A2.037,2.037,0,0,1,0,6.979V.895A.867.867,0,0,1,.939,0a.867.867,0,0,1,.939.895V6.8a.181.181,0,0,0,.188.179H12.211A.178.178,0,0,0,12.4,6.8V.895A.867.867,0,0,1,13.338,0a.867.867,0,0,1,.939.895V6.8A2.075,2.075,0,0,1,12.211,8.947Z" transform="translate(1.597 8.365)" fill="#4100e3"/>
  <path id="Vector-2" data-name="Vector" d="M4.509,7.694H0V2.147A2.121,2.121,0,0,1,2.254,0,2.121,2.121,0,0,1,4.509,2.147Z" transform="translate(6.481 8.186)" fill="#4100e3"/>
  <path id="Vector-3" data-name="Vector" d="M16.625,7.65a.712.712,0,0,1-.564-.179L9.487,2.1a.726.726,0,0,0-1.127,0L1.785,7.471C1.221,7.65.47,7.65.282,7.292a.837.837,0,0,1,0-1.253L6.857.671a2.706,2.706,0,0,1,3.569,0L17,6.039a1.062,1.062,0,0,1,.188,1.253C17,7.471,16.813,7.65,16.625,7.65Z" transform="translate(0 0)" fill="#ffc500"/>
</svg>
