<svg width="160" height="136" viewBox="0 0 160 136" fill="none" xmlns="http://www.w3.org/2000/svg">
<g clip-path="url(#clip0_3692_3646)">
<g clip-path="url(#clip1_3692_3646)">
<path d="M114.83 103.83H24.8799C16.3399 103.83 9.41992 110.75 9.41992 119.29V120.32C9.41992 128.86 16.3399 135.78 24.8799 135.78H114.82C123.36 135.78 130.28 128.86 130.28 120.32V119.29C130.28 110.75 123.36 103.83 114.82 103.83H114.83Z" fill="#EAEAFF"/>
<path d="M25.42 41.3898H77.85C85.54 41.3898 91.77 35.1598 91.77 27.4698C91.77 19.7798 85.54 13.5498 77.85 13.5498H25.42C17.73 13.5498 11.5 19.7798 11.5 27.4698C11.5 35.1598 17.73 41.3898 25.42 41.3898Z" fill="#EAEAFF"/>
<path d="M126.87 51.6895H25.53C11.43 51.6895 0 63.1195 0 77.2195V78.3094C0 92.4094 11.43 103.839 25.53 103.839H126.87C140.97 103.839 152.4 92.4094 152.4 78.3094V77.2195C152.4 63.1195 140.97 51.6895 126.87 51.6895Z" fill="#EAEAFF"/>
<path d="M42.8899 72.5996H29.1099C26.3699 72.5996 24.1499 74.8196 24.1499 77.5596V124.72C24.1499 127.46 26.3699 129.68 29.1099 129.68H42.8899C45.6299 129.68 47.8499 127.46 47.8499 124.72V77.5596C47.8499 74.8196 45.6299 72.5996 42.8899 72.5996Z" fill="#EAEAFF"/>
<path d="M111.16 37.8301H95.0798C93.2572 37.8301 91.7798 39.3075 91.7798 41.1301V91.4501C91.7798 93.2726 93.2572 94.7501 95.0798 94.7501H111.16C112.982 94.7501 114.46 93.2726 114.46 91.4501V41.1301C114.46 39.3075 112.982 37.8301 111.16 37.8301Z" fill="#EAEAFF"/>
<path d="M90.97 40.9698C90.97 40.5098 90.6 40.1398 90.14 40.1398C85.54 40.1398 82.09 39.4198 78.1 38.5798C72.72 37.4498 68.24 36.0498 56.26 36.0498H34.91C30.35 36.0498 26.64 39.7598 26.64 44.3198C26.64 47.1698 28.08 49.6798 30.28 51.1698C26.69 52.0698 24.02 55.3298 24.02 59.1898C24.02 61.9498 25.38 64.3998 27.46 65.8998C23.53 66.5398 20.52 69.9598 20.52 74.0598C20.52 77.0198 22.08 79.6198 24.43 81.0798C21.15 82.1798 18.77 85.2798 18.77 88.9298C18.77 93.4898 22.48 97.1998 27.04 97.1998H49.05C48.36 98.7798 47.34 101.85 47 106.65C46.29 116.71 47.97 123.68 51.98 127.38C55.18 130.33 58.8 130.15 60.21 129.94C61.09 129.81 61.85 129.33 62.38 128.55C63.74 126.6 63.62 122.92 63.1 120.35C62.19 112.61 65.9 108.36 70.19 103.44C71.15 102.34 72.14 101.21 73.1 99.9998C75.75 96.6798 85.81 93.4198 90.32 92.4398C90.7 92.3598 90.98 92.0198 90.98 91.6298" fill="white"/>
<path d="M34.9001 33.3596H56.2501C66.9101 33.3596 71.8001 34.4396 76.5301 35.4796C77.2501 35.6396 77.9301 35.7896 78.6401 35.9396C82.4901 36.7396 85.8101 37.4396 90.1301 37.4396C92.0801 37.4396 93.6601 39.0196 93.6601 40.9696C93.6601 42.4596 92.4501 43.6596 90.9701 43.6596C90.2001 43.6596 89.5001 43.3296 89.0101 42.8096C84.6901 42.7096 81.3601 42.0096 77.5401 41.2096C76.8001 41.0596 76.0701 40.8896 75.3701 40.7396C70.9201 39.7596 66.3301 38.7396 56.2501 38.7396H34.9001C31.8301 38.7396 29.3201 41.2396 29.3201 44.3096C29.3201 46.1596 30.2401 47.8896 31.7801 48.9296C32.6601 49.5296 33.1001 50.5796 32.9201 51.6296C32.7401 52.6796 31.9501 53.5196 30.9201 53.7696C28.4301 54.3896 26.7001 56.6196 26.7001 59.1796C26.7001 60.9596 27.5701 62.6496 29.0201 63.7096C29.9001 64.3496 30.3101 65.4496 30.0601 66.5096C29.8101 67.5696 28.9501 68.3696 27.8701 68.5496C25.2001 68.9796 23.1901 71.3496 23.1901 74.0496C23.1901 75.9896 24.1801 77.7596 25.8301 78.7896C26.7201 79.3396 27.2001 80.3596 27.0801 81.3896C26.9601 82.4296 26.2501 83.2996 25.2601 83.6296C22.9801 84.3896 21.4401 86.5196 21.4401 88.9196C21.4401 91.9896 23.9401 94.4996 27.0201 94.4996H49.0301C49.9401 94.4996 50.7901 94.9596 51.2801 95.7196C51.7801 96.4796 51.8601 97.4396 51.5001 98.2696C50.9501 99.5296 49.9801 102.31 49.6701 106.83C49.0301 115.9 50.4601 122.32 53.7901 125.39C56.1301 127.55 58.7601 127.42 59.7901 127.26C59.8601 127.25 60.0001 127.23 60.1601 126.99C60.8401 126.02 60.9601 123.39 60.4501 120.87C60.4301 120.8 60.4201 120.72 60.4101 120.65C59.9401 116.61 60.5501 113 62.2801 109.6C63.7801 106.66 65.9001 104.23 68.1501 101.65V101.63C69.1001 100.56 70.0701 99.4496 70.9901 98.2996C72.4901 96.4296 75.4401 94.6396 80.0201 92.8196C83.2901 91.5196 86.6001 90.5496 88.8101 90.0096C89.3001 89.3496 90.0901 88.9196 90.9801 88.9196C92.4701 88.9196 93.6701 90.1296 93.6701 91.6096C93.6701 93.2596 92.5001 94.7096 90.8901 95.0596C85.8801 96.1496 77.0701 99.3296 75.2101 101.67C74.2201 102.91 73.2101 104.06 72.2401 105.18L72.2201 105.2C68.0501 109.98 65.0401 113.44 65.7601 119.92C66.0901 121.62 66.8501 126.82 64.5901 130.07C63.6301 131.44 62.2201 132.33 60.6101 132.58C58.8201 132.85 54.2101 133.08 50.1501 129.34C47.7501 127.13 46.0501 123.99 45.1001 120.01C44.2101 116.29 43.9401 111.72 44.3101 106.44C44.5001 103.8 44.8801 101.63 45.3201 99.8796H27.0401C20.9901 99.8796 16.0801 94.9596 16.0801 88.9196C16.0801 85.6196 17.5501 82.5896 19.9601 80.5496C18.5901 78.6996 17.8301 76.4396 17.8301 74.0496C17.8301 71.4296 18.7701 68.8996 20.4801 66.9096C21.1801 66.0896 22.0001 65.3796 22.9001 64.8096C21.8901 63.1296 21.3301 61.1796 21.3301 59.1796C21.3301 55.6096 23.0401 52.3796 25.7801 50.3596C24.6101 48.5896 23.9601 46.4896 23.9601 44.3096C23.9601 38.2696 28.8801 33.3496 34.9201 33.3496L34.9001 33.3596Z" fill="#6E6BE8"/>
<path d="M95.8199 35.1699H109.6C113.82 35.1699 117.25 38.5999 117.25 42.8199V89.9799C117.25 94.1999 113.82 97.6299 109.6 97.6299H95.8199C91.5999 97.6299 88.1699 94.1999 88.1699 89.9799V42.8199C88.1699 38.5999 91.5999 35.1699 95.8199 35.1699ZM109.6 92.2399C110.85 92.2399 111.86 91.2199 111.86 89.9799V42.8199C111.86 41.5699 110.84 40.5599 109.6 40.5599H95.8199C94.5699 40.5599 93.5599 41.5699 93.5599 42.8199V89.9799C93.5599 91.2299 94.5799 92.2399 95.8199 92.2399H109.6Z" fill="#6E6BE8"/>
<path d="M127.9 61.7302C144.14 61.7302 157.31 48.5602 157.31 32.3202C157.31 16.0802 144.14 2.91016 127.9 2.91016C111.66 2.91016 98.4902 16.0802 98.4902 32.3202C98.4902 48.5602 111.66 61.7302 127.9 61.7302Z" fill="#FFC500"/>
<path d="M127.9 64.4197C119.32 64.4197 111.26 61.0797 105.2 55.0197C99.1398 48.9597 95.7998 40.8997 95.7998 32.3197C95.7998 23.7397 99.1398 15.6797 105.2 9.61973C111.26 3.55973 119.32 0.219727 127.9 0.219727C136.48 0.219727 144.54 3.55973 150.6 9.61973C156.66 15.6797 160 23.7397 160 32.3197C160 40.8997 156.66 48.9597 150.6 55.0197C144.54 61.0797 136.48 64.4197 127.9 64.4197ZM127.9 5.60973C113.17 5.60973 101.19 17.5897 101.19 32.3197C101.19 47.0497 113.17 59.0297 127.9 59.0297C142.63 59.0297 154.61 47.0497 154.61 32.3197C154.61 17.5897 142.63 5.60973 127.9 5.60973Z" fill="#4100E3"/>
<path d="M115.61 44.61L140.19 20.04" stroke="#4100E3" stroke-width="5.5" stroke-miterlimit="10" stroke-linecap="round"/>
<path d="M115.61 20.04L140.19 44.61" stroke="#4100E3" stroke-width="5.5" stroke-miterlimit="10" stroke-linecap="round"/>
</g>
</g>
<defs>
<clipPath id="clip0_3692_3646">
<rect width="160" height="135.56" fill="white" transform="translate(0 0.219727)"/>
</clipPath>
<clipPath id="clip1_3692_3646">
<rect width="160" height="135.56" fill="white" transform="translate(0 0.219727)"/>
</clipPath>
</defs>
</svg>
