<svg width="21" height="20" viewBox="0 0 21 20" fill="none" xmlns="http://www.w3.org/2000/svg">
<path d="M11.9584 0.773166C11.6218 0.520734 11.2125 0.384277 10.7917 0.384277C10.371 0.384277 9.96166 0.520734 9.62508 0.773166L2.81953 5.87733C2.57803 6.05845 2.38203 6.29331 2.24703 6.56331C2.11203 6.8333 2.04175 7.13102 2.04175 7.43289V16.669C2.04175 17.1847 2.24661 17.6793 2.61126 18.0439C2.97592 18.4086 3.47049 18.6134 3.98619 18.6134H7.77786C8.06149 18.6134 8.33351 18.5008 8.53407 18.3002C8.73463 18.0997 8.8473 17.8276 8.8473 17.544V12.7801C8.8473 12.2644 9.05216 11.7698 9.41682 11.4052C9.78147 11.0405 10.276 10.8357 10.7917 10.8357C11.3074 10.8357 11.802 11.0405 12.1667 11.4052C12.5313 11.7698 12.7362 12.2644 12.7362 12.7801V17.544C12.7362 17.8276 12.8489 18.0997 13.0494 18.3002C13.25 18.5008 13.522 18.6134 13.8056 18.6134H17.5973C18.113 18.6134 18.6076 18.4086 18.9722 18.0439C19.3369 17.6793 19.5417 17.1847 19.5417 16.669V7.43289C19.5417 7.13102 19.4715 6.8333 19.3365 6.56331C19.2015 6.29331 19.0055 6.05845 18.764 5.87733L11.9584 0.773166Z" fill="#FFC500"/>
<path fill-rule="evenodd" clip-rule="evenodd" d="M9.51381 0.442039C9.88244 0.165566 10.3308 0.0161133 10.7916 0.0161133C11.2524 0.0161133 11.7007 0.165566 12.0694 0.442039L19.5231 6.03232C19.7876 6.23069 20.0022 6.48791 20.1501 6.78362C20.2979 7.07933 20.3749 7.40541 20.3749 7.73602V17.8518C20.3749 18.4166 20.1505 18.9583 19.7512 19.3576C19.3518 19.757 18.8101 19.9814 18.2453 19.9814H13.0277C12.717 19.9814 12.4191 19.858 12.1995 19.6383C11.9798 19.4187 11.8564 19.1207 11.8564 18.8101V12.5277C11.8564 12.2453 11.7442 11.9744 11.5445 11.7747C11.3448 11.5751 11.074 11.4629 10.7916 11.4629C10.5092 11.4629 10.2383 11.5751 10.0386 11.7747C9.83896 11.9744 9.72677 12.2453 9.72677 12.5277V18.8101C9.72677 18.9639 9.69647 19.1162 9.63761 19.2583C9.57875 19.4004 9.49247 19.5296 9.38371 19.6383C9.27494 19.7471 9.14582 19.8334 9.00371 19.8922C8.8616 19.9511 8.70929 19.9814 8.55547 19.9814H3.33788C2.77307 19.9814 2.23139 19.757 1.83201 19.3576C1.43262 18.9583 1.20825 18.4166 1.20825 17.8518V7.73602C1.20825 7.40541 1.28523 7.07933 1.43308 6.78362C1.58094 6.48791 1.79561 6.23069 2.0601 6.03232L9.51381 0.442039ZM10.7916 2.14574L3.33788 7.73602V17.8518H7.59714V12.5277C7.59714 11.6805 7.9337 10.8679 8.53277 10.2689C9.13185 9.6698 9.94437 9.33324 10.7916 9.33324C11.6388 9.33324 12.4513 9.6698 13.0504 10.2689C13.6495 10.8679 13.986 11.6805 13.986 12.5277V17.8518H18.2453V7.73602L10.7916 2.14574Z" fill="#4100E3"/>
</svg>
