<svg width="21" height="20" viewBox="0 0 21 20" fill="none" xmlns="http://www.w3.org/2000/svg">
<path fill-rule="evenodd" clip-rule="evenodd" d="M9.51381 0.442039C9.88244 0.165566 10.3308 0.0161133 10.7916 0.0161133C11.2524 0.0161133 11.7007 0.165566 12.0694 0.442039L19.5231 6.03232C19.7876 6.23069 20.0022 6.48791 20.1501 6.78362C20.2979 7.07933 20.3749 7.40541 20.3749 7.73602V17.8518C20.3749 18.4166 20.1505 18.9583 19.7512 19.3576C19.3518 19.757 18.8101 19.9814 18.2453 19.9814H13.0277C12.717 19.9814 12.4191 19.858 12.1995 19.6383C11.9798 19.4187 11.8564 19.1207 11.8564 18.8101V12.5277C11.8564 12.2453 11.7442 11.9744 11.5445 11.7747C11.3448 11.5751 11.074 11.4629 10.7916 11.4629C10.5092 11.4629 10.2383 11.5751 10.0386 11.7747C9.83896 11.9744 9.72677 12.2453 9.72677 12.5277V18.8101C9.72677 18.9639 9.69647 19.1162 9.63761 19.2583C9.57875 19.4004 9.49247 19.5296 9.38371 19.6383C9.27494 19.7471 9.14582 19.8334 9.00371 19.8922C8.8616 19.9511 8.70929 19.9814 8.55547 19.9814H3.33788C2.77307 19.9814 2.23139 19.757 1.83201 19.3576C1.43262 18.9583 1.20825 18.4166 1.20825 17.8518V7.73602C1.20825 7.40541 1.28523 7.07933 1.43308 6.78362C1.58094 6.48791 1.79561 6.23069 2.0601 6.03232L9.51381 0.442039ZM10.7916 2.14574L3.33788 7.73602V17.8518H7.59714V12.5277C7.59714 11.6805 7.9337 10.8679 8.53277 10.2689C9.13185 9.6698 9.94437 9.33324 10.7916 9.33324C11.6388 9.33324 12.4513 9.6698 13.0504 10.2689C13.6495 10.8679 13.986 11.6805 13.986 12.5277V17.8518H18.2453V7.73602L10.7916 2.14574Z" fill="#8F9098"/>
</svg>
