<svg id="_22_Icons_Line_Tab_01" data-name="22) Icons/Line/Tab 01" xmlns="http://www.w3.org/2000/svg" width="22.5" height="22.5" viewBox="0 0 22.5 22.5">
  <path id="home" d="M18.124,22.5h-3.75a.626.626,0,0,1-.625-.624v-7.5a.626.626,0,0,0-.624-.626H9.374a.626.626,0,0,0-.624.626v7.5a.626.626,0,0,1-.626.624H4.374a3.129,3.129,0,0,1-3.125-3.125V9.67l-.227.187a.625.625,0,0,1-.8-.964L10.852.143a.624.624,0,0,1,.794,0l10.626,8.75a.624.624,0,0,1-.179,1.068.622.622,0,0,1-.616-.1l-.227-.187v9.7A3.129,3.129,0,0,1,18.124,22.5Zm-8.75-10h3.751A1.877,1.877,0,0,1,15,14.375V21.25h3.125A1.878,1.878,0,0,0,20,19.374V8.75a.513.513,0,0,1,.009-.1L11.249,1.435,2.491,8.648a.623.623,0,0,1,.008.1V19.374A1.878,1.878,0,0,0,4.374,21.25H7.5V14.375A1.877,1.877,0,0,1,9.374,12.5Z" transform="translate(0 0)" fill="#040542"/>
</svg>
