<svg width="21" height="20" viewBox="0 0 21 20" fill="none" xmlns="http://www.w3.org/2000/svg">
<path fill-rule="evenodd" clip-rule="evenodd" d="M8.375 1.5C7.57935 1.5 6.81629 1.81607 6.25368 2.37868C5.69107 2.94129 5.375 3.70435 5.375 4.5H2.375C1.84457 4.5 1.33586 4.71071 0.960786 5.08579C0.585714 5.46086 0.375 5.96957 0.375 6.5V16.5C0.375 17.0304 0.585714 17.5391 0.960786 17.9142C1.33586 18.2893 1.84457 18.5 2.375 18.5H18.375C18.9054 18.5 19.4141 18.2893 19.7892 17.9142C20.1643 17.5391 20.375 17.0304 20.375 16.5V6.5C20.375 5.96957 20.1643 5.46086 19.7892 5.08579C19.4141 4.71071 18.9054 4.5 18.375 4.5H15.375C15.375 3.70435 15.0589 2.94129 14.4963 2.37868C13.9337 1.81607 13.1706 1.5 12.375 1.5H8.375ZM8.375 3.5C8.10978 3.5 7.85543 3.60536 7.66789 3.79289C7.48036 3.98043 7.375 4.23478 7.375 4.5H13.375C13.375 4.23478 13.2696 3.98043 13.0821 3.79289C12.8946 3.60536 12.6402 3.5 12.375 3.5H8.375ZM2.375 10.5C2.10978 10.5 1.85543 10.6054 1.66789 10.7929C1.48036 10.9804 1.375 11.2348 1.375 11.5C1.375 11.7652 1.48036 12.0196 1.66789 12.2071C1.85543 12.3946 2.10978 12.5 2.375 12.5H18.375C18.6402 12.5 18.8946 12.3946 19.0821 12.2071C19.2696 12.0196 19.375 11.7652 19.375 11.5C19.375 11.2348 19.2696 10.9804 19.0821 10.7929C18.8946 10.6054 18.6402 10.5 18.375 10.5H2.375Z" fill="#FFC500"/>
<path fill-rule="evenodd" clip-rule="evenodd" d="M8.375 0.833252C7.57935 0.833252 6.81629 1.14313 6.25368 1.6947C5.69107 2.24628 5.375 2.99438 5.375 3.77443H2.375C1.84457 3.77443 1.33586 3.98101 0.960786 4.34873C0.585714 4.71645 0.375 5.21518 0.375 5.73521V17.2058C0.375 17.7258 0.585714 18.2246 0.960786 18.5923C1.33586 18.96 1.84457 19.1666 2.375 19.1666H18.375C18.9054 19.1666 19.4141 18.96 19.7892 18.5923C20.1643 18.2246 20.375 17.7258 20.375 17.2058V5.73521C20.375 5.21518 20.1643 4.71645 19.7892 4.34873C19.4141 3.98101 18.9054 3.77443 18.375 3.77443H15.375C15.375 2.99438 15.0589 2.24628 14.4963 1.6947C13.9337 1.14313 13.1706 0.833252 12.375 0.833252H8.375ZM8.375 2.79404C8.10978 2.79404 7.85543 2.89733 7.66789 3.08119C7.48036 3.26505 7.375 3.51441 7.375 3.77443H13.375C13.375 3.51441 13.2696 3.26505 13.0821 3.08119C12.8946 2.89733 12.6402 2.79404 12.375 2.79404H8.375ZM18.375 5.73521V10.4901H2.375V5.73521H18.375ZM2.375 12.4509V17.2058H18.375V12.4509H2.375Z" fill="#4100E3"/>
</svg>
