<svg width="25" height="23" viewBox="0 0 25 23" fill="none" xmlns="http://www.w3.org/2000/svg">
<path fill-rule="evenodd" clip-rule="evenodd" d="M10.3051 1C9.3503 1 8.43463 1.37185 7.75949 2.03374C7.08436 2.69563 6.70508 3.59335 6.70508 4.52941H3.10508C2.46856 4.52941 1.85811 4.77731 1.40802 5.21857C0.957934 5.65983 0.705078 6.25831 0.705078 6.88235V20.6471C0.705078 21.2711 0.957934 21.8696 1.40802 22.3108C1.85811 22.7521 2.46856 23 3.10508 23H22.3051C22.9416 23 23.552 22.7521 24.0021 22.3108C24.4522 21.8696 24.7051 21.2711 24.7051 20.6471V6.88235C24.7051 6.25831 24.4522 5.65983 24.0021 5.21857C23.552 4.77731 22.9416 4.52941 22.3051 4.52941H18.7051C18.7051 3.59335 18.3258 2.69563 17.6507 2.03374C16.9755 1.37185 16.0599 1 15.1051 1H10.3051ZM10.3051 3.35294C9.98682 3.35294 9.68159 3.47689 9.45655 3.69752C9.23151 3.91815 9.10508 4.21739 9.10508 4.52941H16.3051C16.3051 4.21739 16.1787 3.91815 15.9536 3.69752C15.7286 3.47689 15.4233 3.35294 15.1051 3.35294H10.3051ZM22.3051 6.88235V12.5882H3.10508V6.88235H22.3051ZM3.10508 14.9412V20.6471H22.3051V14.9412H3.10508Z" fill="#8F9098"/>
</svg>
