<svg width="20" height="20" viewBox="0 0 20 20" fill="none" xmlns="http://www.w3.org/2000/svg">
<g clip-path="url(#clip0_3458_1161)">
<path fill-rule="evenodd" clip-rule="evenodd" d="M1.57296 9.22979H5.55055C5.62471 6.90805 6.03234 4.79239 6.67486 3.18618C6.84603 2.7583 7.03737 2.35773 7.24901 1.99473C4.15853 3.05667 1.8768 5.85807 1.57296 9.22979ZM10 -0.000976562C4.47715 -0.000976562 0 4.47618 0 9.99902C0 15.5219 4.47715 19.999 10 19.999C15.5228 19.999 20 15.5219 20 9.99902C20 4.47618 15.5228 -0.000976562 10 -0.000976562ZM10 1.53749C9.76986 1.53749 9.47278 1.65092 9.12164 2.02221C8.76897 2.39511 8.41593 2.976 8.10328 3.75758C7.54504 5.1531 7.16365 7.06747 7.08984 9.22979H12.9099C12.8361 7.06745 12.4547 5.15308 11.8966 3.75756C11.5839 2.97597 11.2309 2.39509 10.8783 2.02219C10.5272 1.65092 10.2301 1.53749 10 1.53749ZM14.4492 9.22979C14.375 6.90807 13.9674 4.79242 13.325 3.18621C13.1538 2.7583 12.9625 2.35771 12.7509 1.99469C15.8414 3.05659 18.1232 5.85802 18.427 9.22979H14.4492ZM12.9099 10.7683H7.08984C7.16365 12.9306 7.54504 14.8449 8.10328 16.2405C8.41593 17.022 8.76897 17.6029 9.12164 17.9758C9.47278 18.3471 9.76986 18.4606 10 18.4606C10.2301 18.4606 10.5272 18.3471 10.8783 17.9759C11.2309 17.603 11.5839 17.0221 11.8966 16.2405C12.4547 14.845 12.8361 12.9306 12.9099 10.7683ZM12.7509 18.0034C12.9625 17.6403 13.1538 17.2397 13.325 16.8118C13.9674 15.2056 14.375 13.09 14.4492 10.7683H18.427C18.1232 14.14 15.8414 16.9415 12.7509 18.0034ZM7.24901 18.0033C7.03737 17.6403 6.84603 17.2398 6.67486 16.8119C6.03234 15.2057 5.62471 13.09 5.55055 10.7683H1.57296C1.8768 14.14 4.15853 16.9414 7.24901 18.0033Z" fill="#4100E3"/>
</g>
<defs>
<clipPath id="clip0_3458_1161">
<rect width="20" height="19.9997" fill="white"/>
</clipPath>
</defs>
</svg>
