<svg width="16" height="16" viewBox="0 0 16 16" fill="none" xmlns="http://www.w3.org/2000/svg">
<g clip-path="url(#clip0_3342_508)">
<path d="M12.8133 1.9C11.6267 0.686667 10.0133 0 8.33333 0C6.65333 0 5.04 0.68 3.85333 1.9C2.66667 3.11333 2 4.76 2 6.48C2 9.1 3.56 11.4333 5 13.0467C5.81333 13.9533 6.70667 14.7867 7.67333 15.5267L7.86 15.6667L7.91333 15.7067L7.92667 15.72L8.32667 16L8.72667 15.72L8.74 15.7067C8.82 15.6467 8.9 15.5867 8.98 15.5267C9.94 14.7867 10.84 13.96 11.6533 13.0467C13.0933 11.44 14.6533 9.10667 14.6533 6.48667C14.6533 4.76667 13.9867 3.12 12.8 1.9H12.8133ZM10.6267 12.0733C10.0467 12.72 9.42667 13.32 8.76667 13.88C8.6 14.02 8.46 14.1333 8.33333 14.2333C7.50667 13.58 6.74 12.86 6.04 12.0733C4.66667 10.5333 3.40667 8.54667 3.40667 6.48C3.40667 5.14 3.92667 3.86 4.84667 2.91333C5.77333 1.96667 7.02667 1.43333 8.32667 1.43333C9.62667 1.43333 10.8867 1.96667 11.8067 2.91333C12.7333 3.86 13.2467 5.14 13.2467 6.48C13.2467 8.54 11.9933 10.5267 10.6133 12.0733H10.6267Z" fill="#4100E3"/>
<path d="M10.3265 4.44676C9.79985 3.90676 9.07985 3.6001 8.33318 3.6001C7.58652 3.6001 6.87318 3.90676 6.33985 4.44676C5.81318 4.98676 5.51318 5.7201 5.51318 6.48676C5.51318 7.25343 5.80652 7.98676 6.33985 8.52676C6.86652 9.06676 7.58652 9.37343 8.33318 9.37343C9.07985 9.37343 9.79318 9.06676 10.3265 8.52676C10.8532 7.98676 11.1532 7.25343 11.1532 6.48676C11.1532 5.7201 10.8599 4.98676 10.3265 4.44676ZM9.32652 7.5001C9.05985 7.77343 8.70652 7.9201 8.33318 7.9201C7.95985 7.9201 7.59985 7.76676 7.33985 7.5001C7.07318 7.22676 6.92652 6.86676 6.92652 6.4801C6.92652 6.09343 7.07318 5.73343 7.33985 5.4601C7.60652 5.18676 7.95985 5.0401 8.33318 5.0401C8.70652 5.0401 9.06652 5.19343 9.32652 5.4601C9.59318 5.73343 9.73985 6.09343 9.73985 6.4801C9.73985 6.86676 9.59318 7.22676 9.32652 7.5001Z" fill="#FFC500"/>
</g>
<defs>
<clipPath id="clip0_3342_508">
<rect width="12.6667" height="16" fill="white" transform="translate(2)"/>
</clipPath>
</defs>
</svg>
