<svg xmlns="http://www.w3.org/2000/svg" width="12.922" height="16.008" viewBox="0 0 12.922 16.008">
  <g id="locationbookservice" transform="translate(0.693 0.693)">
    <path id="Vector" d="M3.872,1.936A1.936,1.936,0,1,1,1.936,0,1.936,1.936,0,0,1,3.872,1.936Z" transform="translate(3.872 3.872)" fill="none" stroke="#ffc500" stroke-width="1.386"/>
    <path id="Vector-2" data-name="Vector" d="M11.536,5.808A5.784,5.784,0,0,0,5.728,0,5.716,5.716,0,0,0,0,5.808a6.375,6.375,0,0,0,2.178,4.518c1.049,1.049,3.63,3.953,3.63,3.953s2.5-2.743,3.63-3.953A6.788,6.788,0,0,0,11.536,5.808Z" fill="none" stroke="#4100e3" stroke-width="1.386"/>
  </g>
</svg>
