<svg width="20" height="20" viewBox="0 0 20 20" fill="none" xmlns="http://www.w3.org/2000/svg">
<g clip-path="url(#clip0_3698_3621)">
<g clip-path="url(#clip1_3698_3621)">
<path d="M16.0167 2.37496C14.5333 0.85832 12.5167 0 10.4167 0C8.31667 0 6.3 0.849986 4.81667 2.37496C3.33333 3.8916 2.5 5.94991 2.5 8.09987C2.5 11.3748 4.45 14.2914 6.25 16.3081C7.26667 17.4414 8.38333 18.483 9.59167 19.408L9.825 19.583L9.89167 19.633L9.90833 19.6497L10.4083 19.9997L10.9083 19.6497L10.925 19.633C11.025 19.558 11.125 19.483 11.225 19.408C12.425 18.483 13.55 17.4497 14.5667 16.3081C16.3667 14.2998 18.3167 11.3832 18.3167 8.1082C18.3167 5.95824 17.4833 3.89994 16 2.37496H16.0167ZM13.2833 15.0914C12.5583 15.8997 11.7833 16.6497 10.9583 17.3497C10.75 17.5247 10.575 17.6664 10.4167 17.7914C9.38333 16.9747 8.425 16.0747 7.55 15.0914C5.83333 13.1665 4.25833 10.6832 4.25833 8.09987C4.25833 6.4249 4.90833 4.82492 6.05833 3.64161C7.21667 2.45829 8.78333 1.79164 10.4083 1.79164C12.0333 1.79164 13.6083 2.45829 14.7583 3.64161C15.9167 4.82492 16.5583 6.4249 16.5583 8.09987C16.5583 10.6748 14.9917 13.1581 13.2667 15.0914H13.2833Z" fill="white"/>
<path d="M12.9083 5.55832C12.2499 4.88333 11.3499 4.5 10.4166 4.5C9.48327 4.5 8.5916 4.88333 7.92494 5.55832C7.2666 6.23331 6.8916 7.14996 6.8916 8.10828C6.8916 9.06659 7.25827 9.98325 7.92494 10.6582C8.58327 11.3332 9.48327 11.7166 10.4166 11.7166C11.3499 11.7166 12.2416 11.3332 12.9083 10.6582C13.5666 9.98325 13.9416 9.06659 13.9416 8.10828C13.9416 7.14996 13.5749 6.23331 12.9083 5.55832ZM11.6583 9.37492C11.3249 9.71658 10.8833 9.89991 10.4166 9.89991C9.94993 9.89991 9.49994 9.70825 9.17494 9.37492C8.8416 9.03326 8.65827 8.58327 8.65827 8.09994C8.65827 7.61662 8.8416 7.16662 9.17494 6.82496C9.50827 6.4833 9.94993 6.29997 10.4166 6.29997C10.8833 6.29997 11.3333 6.49163 11.6583 6.82496C11.9916 7.16662 12.1749 7.61662 12.1749 8.09994C12.1749 8.58327 11.9916 9.03326 11.6583 9.37492Z" fill="#FFC500"/>
</g>
</g>
<defs>
<clipPath id="clip0_3698_3621">
<rect width="20" height="19.9997" fill="white"/>
</clipPath>
<clipPath id="clip1_3698_3621">
<rect width="15.8333" height="19.9997" fill="white" transform="translate(2.5)"/>
</clipPath>
</defs>
</svg>
