<svg xmlns="http://www.w3.org/2000/svg" width="11.922" height="13.975" viewBox="0 0 11.922 13.975">
  <g id="location-profile" transform="translate(-171.442 -132.167)">
    <g id="Icon_16x_location" data-name="Icon/16x/location" transform="translate(172.135 132.86)">
      <path id="Vector" d="M3.872,1.936A1.936,1.936,0,1,1,1.936,0,1.936,1.936,0,0,1,3.872,1.936Z" transform="translate(3.367 3.128)" fill="none" stroke="#ffc500" stroke-width="1.386"/>
      <path id="Vector-2" data-name="Vector" d="M10.536,4.995A5.135,5.135,0,0,0,5.231,0,5.07,5.07,0,0,0,0,4.995,5.367,5.367,0,0,0,1.989,8.88c.958.9,3.316,3.4,3.316,3.4S7.589,9.92,8.62,8.88A5.7,5.7,0,0,0,10.536,4.995Z" fill="none" stroke="#4100e3" stroke-width="1.386"/>
    </g>
  </g>
</svg>
