<svg width="57" height="14" viewBox="0 0 57 14" fill="none" xmlns="http://www.w3.org/2000/svg">
<g clip-path="url(#clip0_3381_5382)">
<path d="M31.8227 13.4117V11.1152L30.7243 12.0467L29.626 11.1152V13.4117H29.9262V11.7335L30.7243 12.4321L31.5224 11.7335V13.4117H31.8227Z" fill="#141413"/>
<path d="M38.2944 11.1233H37.9941V12.7613L36.0977 11.1152V13.4117H36.3979V11.7817L38.2944 13.4117V11.1233Z" fill="#141413"/>
<path d="M33.285 12.2793L33.3403 12.199L34.17 11.123H33.7907L33.1269 11.9902L32.4711 11.123H32.0918L32.9136 12.207L32.9847 12.2873V13.4115H33.285V12.2793Z" fill="#141413"/>
<path d="M29.3022 11.123H29.002V13.4035H29.3022V11.123Z" fill="#141413"/>
<path d="M28.3701 11.1152V12.1029H26.7739V11.1152H26.4736V13.4117H26.7739V12.408H28.3701V13.4117H28.6703V11.1152H28.3701Z" fill="#141413"/>
<path d="M33.9482 13.4117L34.7146 11.7817L35.489 13.4117H35.8209L35.6313 13.0263L34.7146 11.1152L33.8059 13.0263L33.6084 13.4117H33.9482Z" fill="#141413"/>
<path d="M4.97195 3.9126H3.56543V5.46232H4.97195V3.9126Z" fill="#141413"/>
<path d="M13.4905 11.8618H12.084V13.4115H13.4905V11.8618Z" fill="#141413"/>
<path d="M15.4348 11.8618H14.0283V13.4115H15.4348V11.8618Z" fill="#141413"/>
<path d="M6.86884 12.6491C7.21652 12.3681 7.50889 12.0067 7.72224 11.5812C7.93559 11.1556 8.04621 10.6577 8.04621 10.0876V5.51074H6.63969V10.0876C6.63969 10.4169 6.56858 10.7059 6.43425 10.9548C6.29992 11.2038 6.11817 11.4125 5.89692 11.5731C5.67567 11.7417 5.42282 11.8622 5.14625 11.9505C4.86969 12.0308 4.57732 12.079 4.27706 12.079C3.98469 12.079 3.69232 12.0388 3.40786 11.9505C3.12339 11.8702 2.87054 11.7417 2.65719 11.5731C2.43594 11.4045 2.2542 11.1957 2.11987 10.9548C1.98554 10.7059 1.91442 10.4169 1.91442 10.0876V5.51074H0.5V10.0876C0.5 10.6577 0.610625 11.1556 0.823973 11.5812C1.03732 12.0067 1.32179 12.36 1.67737 12.6491C2.03295 12.9301 2.43594 13.1469 2.88634 13.2915C3.33674 13.428 3.80295 13.5002 4.26915 13.5002C4.73536 13.5002 5.20157 13.428 5.65197 13.2915C6.10237 13.1469 6.51326 12.9382 6.86094 12.6491" fill="#141413"/>
<path d="M34.0032 2.68406C33.1182 2.68406 32.4149 2.97313 31.9013 3.53521C31.6484 3.80821 31.443 4.15349 31.2929 4.563L31.2771 4.57906C31.1901 4.58709 31.1348 4.60315 31.1348 4.60315C30.882 4.66739 30.637 4.7798 30.4237 4.92434C30.2024 5.06887 30.0128 5.25355 29.8468 5.46232C29.6809 5.67109 29.5545 5.91198 29.4676 6.17696C29.3727 6.44194 29.3332 6.72298 29.3332 7.02007V9.20414H26.2831V6.65874C26.2831 6.20105 26.1962 5.79957 26.0224 5.45429C25.8485 5.11705 25.6194 4.82798 25.3349 4.59512C25.0504 4.37029 24.7265 4.19364 24.3709 4.08122C23.6676 3.86442 22.9012 3.85639 22.1821 4.08122C21.8265 4.19364 21.4946 4.36226 21.2181 4.59512C20.9336 4.81995 20.7045 5.10902 20.5306 5.45429C20.3568 5.79957 20.2699 6.20105 20.2699 6.65874V9.20414H16.6983V5.34991H15.2996V9.20414H12.0441C11.9177 9.20414 11.7912 9.18005 11.6806 9.13187C11.57 9.08369 11.4673 9.01143 11.3803 8.9231C11.2934 8.83477 11.2302 8.73039 11.1749 8.61797C11.1275 8.50556 11.1038 8.37708 11.1038 8.24861V0.5H9.69727V8.23255C9.69727 8.56177 9.76048 8.87492 9.87901 9.15596C10.0054 9.44503 10.1714 9.70198 10.3847 9.91075C10.5981 10.1275 10.8509 10.2962 11.1354 10.4246C11.4199 10.5531 11.728 10.6093 12.0441 10.6093H38.3018V2.68406H34.019H34.0032ZM21.6685 6.64268C21.6685 6.42588 21.7159 6.23317 21.8028 6.08061C21.8897 5.92001 22.0162 5.77548 22.1584 5.67109C22.3085 5.55868 22.4745 5.47035 22.672 5.41414C23.0592 5.30173 23.4859 5.30173 23.881 5.41414C24.0706 5.47035 24.2445 5.55868 24.3946 5.67109C24.5368 5.78351 24.6633 5.92001 24.7502 6.08061C24.8371 6.2412 24.8845 6.43391 24.8845 6.64268V9.18808H21.6764V6.64268H21.6685ZM32.6046 9.18808H30.7318V7.01204C30.7318 6.86751 30.7555 6.72298 30.803 6.5945C30.8504 6.46603 30.9215 6.35361 31.0005 6.25726C31.0795 6.1609 31.1822 6.08863 31.3008 6.03243C31.4114 5.97622 31.5378 5.95213 31.6642 5.95213C31.7907 5.95213 31.9171 5.97622 32.0277 6.03243C32.1384 6.08863 32.2411 6.1609 32.328 6.24923C32.4149 6.34558 32.4781 6.44997 32.5255 6.57844C32.573 6.70692 32.5967 6.84342 32.5967 6.97993V9.18005L32.6046 9.18808ZM36.8162 9.19611H34.019V6.98796C34.019 6.7551 33.9874 6.52224 33.9242 6.30544C33.8609 6.08863 33.774 5.87986 33.6634 5.69518C33.5528 5.50247 33.4184 5.33385 33.2604 5.18128C33.134 5.06084 32.9997 4.95645 32.8495 4.8601H32.8337L32.8416 4.83601C32.889 4.74768 32.9285 4.67542 32.968 4.61118C33.2446 4.2097 33.6081 4.00093 34.0506 4.00093H36.8083V9.19611H36.8162Z" fill="#141413"/>
<path d="M43.9439 5.47852L40.4434 13.4359L54.2478 6.87567L43.9439 5.47852Z" fill="#CA9198"/>
<path d="M45.0112 3.06934L41.5107 11.0187L55.3705 4.42635L45.0112 3.06934Z" fill="#933748"/>
<path d="M46.1172 0.54834L42.5771 8.59405L56.5001 1.97762L46.1172 0.54834Z" fill="#77042A"/>
</g>
<defs>
<clipPath id="clip0_3381_5382">
<rect width="56" height="13" fill="white" transform="translate(0.5 0.5)"/>
</clipPath>
</defs>
</svg>
