<svg width="14" height="17" viewBox="0 0 14 17" fill="none" xmlns="http://www.w3.org/2000/svg">
<g clip-path="url(#clip0_3356_2603)">
<path d="M6.65636 0.883789C6.86636 0.883789 7.07 0.970456 7.22909 1.12379C7.38182 1.27712 7.47727 1.49046 7.49 1.71712C7.50273 1.94379 7.43273 2.16379 7.29909 2.33712C7.16545 2.51046 6.96818 2.62379 6.75818 2.65046H6.66273H2.50091C2.29727 2.65046 2.1 2.73046 1.94727 2.87712C1.79455 3.02379 1.69909 3.22379 1.67364 3.43712V3.54379V14.2105C1.67364 14.4305 1.75 14.6371 1.88364 14.8038C2.01727 14.9638 2.20818 15.0705 2.40545 15.0971H2.50091H6.24273C6.45273 15.0971 6.65636 15.1838 6.81545 15.3371C6.96818 15.4905 7.06364 15.7038 7.07636 15.9305C7.08909 16.1571 7.01909 16.3771 6.88545 16.5505C6.75182 16.7238 6.55455 16.8371 6.34455 16.8638H6.24909H2.50727C1.87091 16.8638 1.26 16.6038 0.795455 16.1371C0.330909 15.6705 0.0509091 15.0305 0.0190909 14.3505V14.1971L0 3.55046C0 2.87046 0.241818 2.21712 0.680909 1.72379C1.11364 1.22379 1.71182 0.930456 2.34818 0.883789H2.49455H6.65636Z" fill="#4100E3"/>
<path d="M11.4036 5.74374L13.7582 8.25707C13.9173 8.42374 14 8.6504 14 8.88374C14 9.11707 13.9109 9.34374 13.7582 9.5104L11.4036 12.0237C11.2445 12.1904 11.0345 12.2837 10.8182 12.2837C10.5954 12.2837 10.3854 12.1904 10.2327 12.0237C10.0736 11.8571 9.9909 11.6304 9.9909 11.3971C9.9909 11.1637 10.08 10.9371 10.2327 10.7704L11.1682 9.77707H6.66272C6.43999 9.77707 6.22999 9.68374 6.07727 9.51707C5.91818 9.3504 5.83545 9.12374 5.83545 8.8904C5.83545 8.65707 5.92454 8.4304 6.07727 8.26374C6.23636 8.09707 6.44636 8.00374 6.66272 8.00374H11.1682L10.2327 7.0104C10.0736 6.84374 9.9909 6.61707 9.9909 6.38374C9.9909 6.1504 10.08 5.92374 10.2327 5.75707C10.3918 5.5904 10.6018 5.49707 10.8182 5.49707C11.0409 5.49707 11.2509 5.5904 11.4036 5.75707V5.74374Z" fill="#FFC500"/>
</g>
<defs>
<clipPath id="clip0_3356_2603">
<rect width="14" height="16" fill="white" transform="translate(0 0.883789)"/>
</clipPath>
</defs>
</svg>
