<svg width="47" height="14" viewBox="0 0 47 14" fill="none" xmlns="http://www.w3.org/2000/svg">
<g clip-path="url(#clip0_3381_5376)">
<path d="M0 13.379L2.19439 0.575684H4.46297L9.08397 8.26612L10.3206 0.575684H13.1567L10.9816 13.379H8.67587L4.11946 5.95548L2.83608 13.379H0Z" fill="black"/>
<path d="M21.5618 0.575684H19.116L12.2168 13.379H15.2288L16.7073 10.4616H20.5574L21.0218 13.379H24.0063L21.5618 0.575684ZM17.4534 8.55126L19.7687 3.96931L20.5038 8.55126H17.4534Z" fill="black"/>
<path d="M32.869 0.575699H27.5871L25.3652 13.379H28.1546L28.9543 9.18758H31.6873C33.2222 9.18758 36.2533 7.54274 36.2533 4.2348C36.2533 0.537774 32.869 0.575699 32.869 0.575699ZM33.4173 4.46938C33.306 5.94004 32.3757 6.71541 31.5637 6.71541H29.3445L29.967 3.11249H32.1806C32.1806 3.11249 33.5231 3.06614 33.4173 4.46797V4.46938Z" fill="black"/>
<path d="M47.0002 1.81475C47.0002 1.81475 45.2208 0.5 42.7255 0.5C40.2302 0.5 37.379 2.25862 37.379 5.1859C37.379 8.65819 43.0072 8.07526 43.0072 9.8114C43.0072 11.3832 39.5239 11.2568 37.379 9.39282L35.6436 11.9015C35.6436 11.9015 37.3172 13.4986 40.8375 13.4986C44.3579 13.4986 46.1607 11.3692 46.1566 8.77196C46.1497 5.12831 40.042 6.25062 40.4294 4.17175C40.7771 2.30918 44.1793 3.15759 45.3142 4.32345L47.0002 1.81475Z" fill="black"/>
</g>
<defs>
<clipPath id="clip0_3381_5376">
<rect width="47" height="13" fill="white" transform="translate(0 0.5)"/>
</clipPath>
</defs>
</svg>
