<svg width="47" height="16" viewBox="0 0 47 16" fill="none" xmlns="http://www.w3.org/2000/svg">
<g clip-path="url(#clip0_3381_5373)">
<path d="M24.3068 5.27609C24.28 7.35729 26.1909 8.51862 27.6304 9.20916C29.1094 9.91759 29.6061 10.3719 29.6003 11.0055C29.5893 11.9751 28.4206 12.4031 27.327 12.4197C25.419 12.4488 24.3096 11.9126 23.4277 11.5071L22.7403 14.6731C23.6252 15.0745 25.2637 15.4246 26.9627 15.4399C30.9511 15.4399 33.5603 13.5019 33.5745 10.497C33.5901 6.68338 28.2161 6.47229 28.2528 4.76771C28.2654 4.25084 28.7664 3.69928 29.8643 3.55904C30.4077 3.48819 31.9077 3.43398 33.6084 4.20494L34.2759 1.14169C33.3613 0.813858 32.1859 0.499942 30.7223 0.499942C26.9684 0.499942 24.3281 2.4644 24.3068 5.27609ZM40.69 0.763797C39.9617 0.763797 39.348 1.18199 39.0741 1.82374L33.3769 15.2149H37.3623L38.1554 13.0573H43.0255L43.4856 15.2149H46.9983L43.933 0.763797H40.69ZM41.2475 4.66759L42.3977 10.0942H39.2477L41.2475 4.66759ZM19.4747 0.763977L16.3333 15.2148H20.1311L23.2711 0.763617L19.4747 0.763977ZM13.8565 0.763977L9.90363 10.5998L8.30462 2.23651C8.117 1.30289 7.37606 0.763797 6.55324 0.763797H0.091483L0.000976562 1.18344C1.32755 1.46681 2.83477 1.92386 3.74791 2.41289C4.30674 2.71163 4.46609 2.97277 4.64967 3.68265L7.67824 15.2149H11.6916L17.8445 0.763797L13.8565 0.763977Z" fill="#1434CB"/>
</g>
<defs>
<clipPath id="clip0_3381_5373">
<rect width="47" height="15" fill="white" transform="translate(0 0.5)"/>
</clipPath>
</defs>
</svg>
