<svg width="35" height="28" viewBox="0 0 35 28" fill="none" xmlns="http://www.w3.org/2000/svg">
<g clip-path="url(#clip0_3381_5255)">
<path d="M6.36262 27.5719V25.7712C6.36262 25.0807 5.94234 24.6306 5.22197 24.6306C4.86186 24.6306 4.47166 24.7507 4.2015 25.1409C3.9915 24.8107 3.69141 24.6306 3.24119 24.6306C2.94096 24.6306 2.641 24.7206 2.40078 25.0508V24.6907H1.77051V27.5719H2.40078V25.9812C2.40078 25.4711 2.67094 25.2308 3.09121 25.2308C3.51121 25.2308 3.72148 25.501 3.72148 25.9812V27.5719H4.35176V25.9812C4.35176 25.4711 4.65172 25.2308 5.04191 25.2308C5.46219 25.2308 5.67219 25.501 5.67219 25.9812V27.5719H6.36262ZM15.6965 24.6907H14.6762V23.8203H14.0459V24.6907H13.4757V25.2608H14.0458V26.5815C14.0458 27.2418 14.316 27.6319 15.0363 27.6319C15.3065 27.6319 15.6064 27.5419 15.8167 27.4219L15.6365 26.8816C15.4565 27.0016 15.2465 27.0317 15.0963 27.0317C14.7962 27.0317 14.6762 26.8516 14.6762 26.5514V25.2608H15.6965V24.6907ZM21.039 24.6305C20.6788 24.6305 20.4388 24.8107 20.2887 25.0508V24.6907H19.6584V27.5719H20.2887V25.9512C20.2887 25.4711 20.4987 25.2009 20.8888 25.2009C21.0089 25.2009 21.159 25.231 21.279 25.2609L21.4591 24.6607C21.3391 24.6306 21.159 24.6306 21.039 24.6306M12.9654 24.9309C12.6652 24.7207 12.2451 24.6308 11.7949 24.6308C11.0746 24.6308 10.5945 24.9909 10.5945 25.5612C10.5945 26.0414 10.9546 26.3115 11.5849 26.4016L11.885 26.4316C12.2151 26.4915 12.3952 26.5816 12.3952 26.7317C12.3952 26.9417 12.1551 27.0919 11.7348 27.0919C11.3146 27.0919 10.9845 26.9417 10.7744 26.7918L10.4743 27.2719C10.8045 27.512 11.2547 27.632 11.7048 27.632C12.5452 27.632 13.0255 27.242 13.0255 26.7017C13.0255 26.1914 12.6353 25.9213 12.0349 25.8313L11.7348 25.8012C11.4647 25.7712 11.2547 25.7113 11.2547 25.5312C11.2547 25.3211 11.4647 25.201 11.7949 25.201C12.1551 25.201 12.5152 25.351 12.6953 25.4411L12.9654 24.9309ZM29.7128 24.6308C29.3526 24.6308 29.1125 24.8108 28.9624 25.0509V24.6908H28.3321V27.572H28.9624V25.9513C28.9624 25.4712 29.1725 25.201 29.5626 25.201C29.6827 25.201 29.8329 25.2311 29.9529 25.2611L30.1329 24.6609C30.0129 24.6308 29.8329 24.6308 29.7128 24.6308ZM21.6692 26.1314C21.6692 27.0018 22.2694 27.632 23.1999 27.632C23.6201 27.632 23.9202 27.5421 24.2203 27.302L23.9202 26.7918C23.6801 26.9718 23.44 27.0618 23.1699 27.0618C22.6596 27.0618 22.2995 26.7017 22.2995 26.1314C22.2995 25.5912 22.6596 25.231 23.1699 25.201C23.44 25.201 23.6801 25.291 23.9202 25.4712L24.2203 24.961C23.9202 24.7207 23.6201 24.6308 23.1999 24.6308C22.2694 24.6308 21.6692 25.2611 21.6692 26.1314ZM27.4918 26.1314V24.6908H26.8615V25.0509C26.6514 24.7809 26.3513 24.6308 25.9611 24.6308C25.1508 24.6308 24.5205 25.2611 24.5205 26.1314C24.5205 27.0018 25.1508 27.632 25.9611 27.632C26.3813 27.632 26.6815 27.4821 26.8615 27.2119V27.572H27.4918V26.1314ZM25.1807 26.1314C25.1807 25.6212 25.5109 25.201 26.0511 25.201C26.5613 25.201 26.9216 25.5912 26.9216 26.1314C26.9216 26.6416 26.5613 27.0618 26.0511 27.0618C25.5109 27.0317 25.1807 26.6416 25.1807 26.1314ZM17.6475 24.6308C16.8071 24.6308 16.2068 25.231 16.2068 26.1314C16.2068 27.0318 16.807 27.632 17.6775 27.632C18.0976 27.632 18.5179 27.512 18.848 27.242L18.5478 26.7918C18.3077 26.9718 18.0076 27.0919 17.7075 27.0919C17.3173 27.0919 16.9271 26.9118 16.8371 26.4014H18.9681V26.1615C18.9982 25.231 18.458 24.6308 17.6475 24.6308ZM17.6474 25.171C18.0374 25.171 18.3077 25.4112 18.3676 25.8614H16.867C16.927 25.4712 17.1972 25.171 17.6474 25.171ZM33.2842 26.1314V23.5503H32.6539V25.0509C32.4438 24.7809 32.1437 24.6308 31.7535 24.6308C30.9431 24.6308 30.3129 25.2611 30.3129 26.1314C30.3129 27.0018 30.9431 27.632 31.7535 27.632C32.1737 27.632 32.4738 27.4821 32.6539 27.2119V27.572H33.2842V26.1314ZM30.9732 26.1314C30.9732 25.6212 31.3033 25.201 31.8436 25.201C32.3538 25.201 32.7139 25.5912 32.7139 26.1314C32.7139 26.6416 32.3538 27.0618 31.8436 27.0618C31.3033 27.0317 30.9732 26.6416 30.9732 26.1314ZM9.90391 26.1314V24.6908H9.27363V25.0509C9.0635 24.7809 8.7634 24.6308 8.3732 24.6308C7.56287 24.6308 6.9326 25.2611 6.9326 26.1314C6.9326 27.0018 7.56287 27.632 8.3732 27.632C8.79348 27.632 9.09357 27.4821 9.27363 27.2119V27.572H9.90391V26.1314ZM7.56287 26.1314C7.56287 25.6212 7.89305 25.201 8.43322 25.201C8.94346 25.201 9.30371 25.5912 9.30371 26.1314C9.30371 26.6416 8.94346 27.0618 8.43322 27.0618C7.89305 27.0317 7.56287 26.6416 7.56287 26.1314Z" fill="black"/>
<path d="M12.7559 2.81104H22.21V19.7985H12.7559V2.81104Z" fill="#FF5F00"/>
<path d="M13.3559 11.3047C13.3559 7.85328 14.9766 4.79187 17.4676 2.81096C15.6369 1.37035 13.326 0.5 10.8049 0.5C4.83205 0.5 0 5.33205 0 11.3047C0 17.2774 4.83205 22.1095 10.8047 22.1095C13.3258 22.1095 15.6368 21.2391 17.4676 19.7984C14.9766 17.8476 13.3559 14.7562 13.3559 11.3047Z" fill="#EB001B"/>
<path d="M34.9656 11.3047C34.9656 17.2773 30.1336 22.1095 24.1609 22.1095C21.6398 22.1095 19.3288 21.2391 17.498 19.7984C20.0191 17.8176 21.6099 14.7562 21.6099 11.3047C21.6099 7.85328 19.9891 4.79187 17.498 2.81096C19.3287 1.37035 21.6398 0.5 24.1609 0.5C30.1336 0.5 34.9656 5.36213 34.9656 11.3047Z" fill="#F79E1B"/>
</g>
<defs>
<clipPath id="clip0_3381_5255">
<rect width="35" height="27.207" fill="white" transform="translate(0 0.5)"/>
</clipPath>
</defs>
</svg>
