<svg width="169" height="237" viewBox="0 0 169 237" fill="none" xmlns="http://www.w3.org/2000/svg">
<g clip-path="url(#clip0_3290_15739)">
<mask id="mask0_3290_15739" style="mask-type:luminance" maskUnits="userSpaceOnUse" x="0" y="0" width="169" height="237">
<path d="M168.99 0H0V237H168.99V0Z" fill="white"/>
</mask>
<g mask="url(#mask0_3290_15739)">
<path d="M31.4935 139.799H31.3297C29.8549 141.985 28.0011 143.749 25.7684 145.083C23.5357 146.427 21.0469 147.094 18.3226 147.094C15.3832 147.094 12.7613 146.53 10.4671 145.411C8.17296 144.293 6.25774 142.775 4.70099 140.866C3.14423 138.958 1.97667 136.742 1.18805 134.228C0.39943 131.715 0 129.098 0 126.359C0 123.62 0.419914 121.219 1.26998 118.787C2.10981 116.366 3.31834 114.232 4.86486 112.395C6.42161 110.569 8.29586 109.092 10.5081 107.974C12.7101 106.855 15.2091 106.291 17.9949 106.291C20.7806 106.291 23.4435 106.978 25.6864 108.343C27.9192 109.707 29.8036 111.534 31.3297 113.832H31.4935V74.6807H38.8574V145.781H31.4935V139.799ZM19.4697 140.538C21.4873 140.538 23.2591 140.169 24.7852 139.43C26.3112 138.691 27.6017 137.686 28.6668 136.393C29.732 135.111 30.5308 133.643 31.0839 131.971C31.6267 130.299 31.9032 128.524 31.9032 126.605C31.9032 124.687 31.6267 122.984 31.0839 121.321C30.5411 119.659 29.732 118.202 28.6668 116.941C27.6119 115.679 26.2907 114.683 24.7442 113.945C23.1874 113.206 21.4361 112.837 19.4697 112.837C17.5032 112.837 15.8543 113.216 14.359 113.986C12.8637 114.745 11.5937 115.771 10.5491 117.064C9.51464 118.346 8.72602 119.813 8.17296 121.445C7.63014 123.086 7.35362 124.799 7.35362 126.605C7.35362 128.411 7.63014 130.145 8.17296 131.807C8.71578 133.469 9.49415 134.957 10.5081 136.27C11.522 137.573 12.7715 138.619 14.2668 139.379C15.7621 140.138 17.493 140.528 19.4594 140.528L19.4697 140.538Z" fill="#FFC500"/>
<path d="M99.9498 112.601H100.114C101.261 110.528 102.879 108.958 104.979 107.891C107.078 106.824 109.301 106.291 111.646 106.291C114.319 106.291 116.542 106.712 118.313 107.563C120.085 108.415 121.478 109.584 122.482 111.082C123.496 112.58 124.202 114.345 124.612 116.366C125.022 118.377 125.227 120.572 125.227 122.922V145.77H117.863V123.815C117.863 122.173 117.781 120.685 117.617 119.352C117.453 118.018 117.074 116.858 116.47 115.874C115.866 114.889 115.015 114.14 113.889 113.616C112.773 113.103 111.287 112.837 109.434 112.837C107.037 112.837 105.194 113.319 103.913 114.273C102.633 115.227 101.711 116.438 101.128 117.915C100.554 119.393 100.216 121.024 100.103 122.83C99.9907 124.625 99.9395 126.41 99.9395 128.154V145.76H92.5757V107.419H99.9395V112.58L99.9498 112.601Z" fill="#FFC500"/>
<path d="M139.79 127.836C139.79 129.478 140.067 131.058 140.61 132.587C141.153 134.115 141.931 135.47 142.945 136.639C143.959 137.809 145.167 138.753 146.581 139.461C147.994 140.169 149.582 140.528 151.323 140.528C154.16 140.528 156.423 139.861 158.113 138.517C159.803 137.173 161.36 135.367 162.773 133.069L168.99 136.588C167.197 139.922 164.729 142.498 161.595 144.324C158.451 146.15 155.01 147.063 151.251 147.063C148.312 147.063 145.669 146.54 143.355 145.504C141.04 144.467 139.073 143.052 137.465 141.246C135.858 139.45 134.608 137.316 133.748 134.854C132.877 132.392 132.437 129.745 132.437 126.903C132.437 124.061 132.826 121.219 133.625 118.705C134.413 116.192 135.591 114.006 137.148 112.149C138.705 110.292 140.63 108.846 142.955 107.809C145.27 106.773 147.984 106.25 151.097 106.25C154.211 106.25 156.792 106.783 159.035 107.85C161.267 108.917 163.121 110.364 164.596 112.19C166.071 114.016 167.177 116.181 167.914 118.664C168.652 121.147 169.01 123.815 169.01 126.646V127.795H139.79V127.836ZM161.626 122.265C161.196 119.372 160.059 117.053 158.236 115.309C156.413 113.555 154.026 112.693 151.077 112.693C148.127 112.693 145.761 113.596 143.795 115.402C141.828 117.197 140.63 119.495 140.2 122.276H161.626V122.265Z" fill="#FFC500"/>
<path d="M84.29 118.623C83.2248 116.14 81.7807 113.986 79.9577 112.149C78.1347 110.323 75.9634 108.887 73.4542 107.85C70.9449 106.814 68.2718 106.291 65.4348 106.291C62.5978 106.291 59.8633 106.814 57.3745 107.85C54.896 108.887 52.735 110.323 50.9119 112.149C49.0889 113.975 47.6448 116.14 46.5797 118.623C45.5145 121.106 44.9819 123.794 44.9819 126.687C44.9819 129.581 45.5145 132.269 46.5797 134.751C47.6448 137.234 49.0889 139.389 50.9119 141.215C52.7452 143.041 54.896 144.478 57.3745 145.514C59.853 146.55 62.5978 147.073 65.4348 147.073C66.4795 147.073 67.5037 146.981 68.4971 146.837L65.6192 140.025C65.5577 140.025 65.486 140.025 65.4246 140.025C63.622 140.025 61.9219 139.676 60.3139 138.958C58.706 138.25 57.3131 137.275 56.1455 136.054C54.9677 134.823 54.0459 133.407 53.3597 131.797C52.6735 130.186 52.3355 128.472 52.3355 126.677C52.3355 124.882 52.6735 123.158 53.3597 121.516C54.0459 119.875 54.9677 118.459 56.1455 117.259C57.3131 116.058 58.706 115.104 60.3139 114.396C61.9219 113.688 63.622 113.329 65.4246 113.329C67.2271 113.329 68.9273 113.688 70.5352 114.396C72.1432 115.104 73.5361 116.068 74.7037 117.259C75.8712 118.459 76.8032 119.885 77.4894 121.516C78.1756 123.158 78.5136 124.871 78.5136 126.677C78.5136 128.483 78.1654 130.186 77.4894 131.797C76.8032 133.407 75.8815 134.834 74.7037 136.054C74.5398 136.229 74.3657 136.383 74.1916 136.537L77.131 143.503C78.1347 142.816 79.0769 142.056 79.9372 141.195C81.7603 139.368 83.2043 137.214 84.2695 134.731C85.3244 132.248 85.8672 129.56 85.8672 126.667C85.8672 123.774 85.3346 121.085 84.2695 118.603L84.29 118.623Z" fill="#FFC500"/>
<path d="M81.2586 83.4527C81.5556 82.8063 81.5453 82.2523 81.3507 81.7393C81.3303 81.6983 81.3303 81.688 81.3303 81.6778C81.3303 81.6573 81.32 81.647 81.3098 81.6265C80.9513 80.816 80.05 80.0978 78.9747 79.7079C77.889 79.318 76.66 79.277 75.769 79.6463C75.1237 79.9234 74.6526 80.3851 74.4273 81.1956L70.689 94.3588L68.1491 103.295V103.316C68.2412 103.552 68.8148 103.982 69.5932 104.259C69.6034 104.259 69.6136 104.259 69.6341 104.27C70.433 104.567 71.2728 104.608 71.5596 104.475L71.703 104.434C71.703 104.434 71.703 104.424 71.703 104.413C71.7235 104.362 71.7644 104.27 71.7849 104.126L71.8361 103.952L78.0836 90.3165L81.2381 83.4425H81.2483L81.2586 83.4527ZM46.6413 77.0609C45.7298 76.8762 44.6134 77.0301 43.5995 77.4405C42.5855 77.8714 41.6945 78.5588 41.1926 79.3488C40.6908 80.1388 40.5372 80.9596 40.9263 81.9138C40.9571 81.9856 40.9878 82.0574 41.039 82.1497L51.2091 102.064L53.0219 105.603C53.0219 105.603 53.1448 105.757 53.6364 105.757C54.0871 105.757 54.6913 105.593 55.2751 105.357C55.8487 105.111 56.3812 104.783 56.6987 104.475C57.0572 104.116 57.0572 103.952 57.0367 103.941L55.777 100.156L48.7511 78.9384C48.7204 78.8461 48.6896 78.7538 48.6589 78.6819C48.2595 77.7278 47.563 77.2661 46.6515 77.0609H46.6413ZM46.5696 113.021L37.3212 108.374L26.2294 102.803C25.5329 102.464 24.9286 102.485 24.3551 102.71C23.5153 103.069 22.7369 103.952 22.3067 105.008C21.8766 106.045 21.7947 107.204 22.1224 108.066C22.1224 108.076 22.1224 108.086 22.1326 108.097C22.3784 108.671 22.7984 109.102 23.5358 109.348L28.7386 111.031L45.2074 116.356C45.2074 116.356 45.2279 116.356 45.2381 116.345C45.5044 116.263 45.996 115.648 46.3033 114.878C46.631 114.099 46.7027 113.309 46.5901 113.083C46.5901 113.073 46.5696 113.042 46.5696 113.042V113.021ZM46.9895 142.898C46.8973 142.867 46.8666 142.857 46.8359 142.867L40.2811 148.12L32.8046 154.122C32.0979 154.707 32.0365 155.445 32.354 156.307L32.3744 156.348C32.6715 157.056 33.2757 157.754 33.9414 158.164C34.6174 158.575 35.3036 158.698 35.8567 158.462C36.0615 158.38 36.2663 158.236 36.4609 158.031L41.6125 152.408L48.6179 144.765C48.6179 144.765 48.5975 144.632 48.5463 144.498C48.3926 144.129 47.9932 143.606 47.5835 143.277C47.3275 143.082 47.1226 142.939 46.9895 142.887V142.898Z" fill="white"/>
<path d="M111.441 237L100.687 211.279C100.247 210.232 99.0691 209.709 98.0039 210.078C97.9835 210.078 97.963 210.089 97.9732 210.078C97.881 210.109 97.5021 210.243 96.9183 210.427C95.9044 210.745 94.3271 211.197 92.924 211.443C92.2276 211.566 91.5516 211.648 91.0805 211.648C90.8347 211.648 90.6606 211.638 90.5479 211.617C90.5479 211.617 90.5274 211.617 90.5172 211.617L90.4557 211.597C87.6802 210.058 85.2836 206.857 81.3917 203.574C77.4589 200.291 71.9078 197.202 62.9155 196.228C62.8438 196.228 62.7824 196.176 62.7414 196.115C62.7209 196.074 62.6902 196.033 62.6697 195.971C62.6697 195.951 62.6492 195.93 62.6492 195.92V195.899C62.3932 195.284 62.3829 193.786 63.0691 192.339C63.7451 190.852 64.9639 189.426 66.8996 188.564C66.9201 188.492 66.9713 188.43 67.0532 188.41C67.1147 188.389 67.1761 188.4 67.2273 188.42C69.0708 187.692 71.6927 187.435 75.2159 188.338C77.2336 188.851 79.538 189.754 82.1803 191.16C82.2213 191.18 82.2623 191.221 82.2828 191.272L84.116 195.653C84.5872 196.782 85.8879 197.315 87.0145 196.843C88.1411 196.371 88.6737 195.068 88.2025 193.94L64.124 136.393C63.5403 134.967 63.6837 133.664 64.2879 132.422C64.8922 131.212 66.0188 130.165 67.2068 129.663H67.2171C68.2617 129.232 69.2347 129.191 70.0643 129.519C70.8836 129.858 71.7644 130.576 72.5121 132.33L72.5428 132.422C74.2942 136.752 76.6088 142.303 78.8927 147.781C81.1254 153.116 83.3479 158.38 85.0378 162.381C85.0378 162.371 85.0173 162.35 85.0071 162.34C85.0173 162.36 85.0378 162.381 85.0481 162.401C85.0481 162.401 85.0481 162.422 85.0481 162.432V162.453C85.0481 162.453 85.0481 162.484 85.0685 162.504L88.3049 170.23C88.7863 171.368 90.087 171.912 91.2341 171.43C92.3709 170.948 92.9138 169.635 92.4324 168.496L92.0842 167.675C92.0842 167.675 92.0739 167.634 92.0534 167.603C92.033 167.572 92.0125 167.501 91.9818 167.429C91.9818 167.429 88.0694 158.185 87.5266 156.892C86.953 154.912 87.9465 152.757 89.9129 151.926C92.0227 151.044 94.45 152.039 95.3308 154.153L99.9294 165.356C100.411 166.495 101.722 167.039 102.859 166.557C103.995 166.074 104.538 164.761 104.057 163.622L103.965 163.397C103.965 163.397 103.965 163.376 103.965 163.366C103.965 163.366 103.954 163.325 103.934 163.304C103.913 163.243 103.883 163.161 103.842 163.048C103.76 162.832 103.627 162.525 103.483 162.155C103.176 161.427 102.777 160.442 102.377 159.467C101.568 157.518 100.759 155.579 100.759 155.579C99.8782 153.465 100.872 151.044 102.981 150.151C105.02 149.3 107.334 150.192 108.297 152.152V152.193C108.338 152.255 108.379 152.367 108.461 152.573C109.127 154.245 111.677 160.432 111.687 160.442C112.168 161.581 113.479 162.114 114.616 161.642C115.753 161.16 116.296 159.847 115.814 158.698L113.828 153.783C112.947 151.67 113.94 149.238 116.05 148.346C118.16 147.463 120.587 148.458 121.478 150.572C121.478 150.572 122.277 152.603 122.338 152.747L123.332 155.117C125.79 161.006 128.094 167.008 130.563 172.907C131.464 175.062 132.386 177.196 133.348 179.31C133.41 179.443 133.461 179.576 133.523 179.71C136.155 186.05 133.4 192.493 131.863 198.885C131.761 199.326 131.792 199.788 131.966 200.198L131.976 200.209L148.517 236.938H153.177L136.759 200.557C136.759 200.557 136.759 200.557 136.749 200.527C136.452 199.757 136.697 197.808 137.076 195.828C137.455 193.837 137.957 191.837 138.162 191.047C139.104 187.363 139.944 183.998 138.602 180.264C138.418 179.74 138.213 179.227 137.988 178.704C137.302 177.063 136.503 175.452 135.817 173.81C135.817 173.81 135.817 173.81 135.817 173.78C135.817 173.759 135.796 173.728 135.776 173.708C135.714 173.564 135.663 173.42 135.602 173.277C135.11 172.046 134.598 170.814 134.086 169.583C132.621 166.074 131.095 162.596 129.631 159.088C129.375 158.472 129.119 157.856 128.862 157.241C128.596 156.584 128.32 155.938 128.064 155.312C128.064 155.312 128.064 155.291 128.053 155.281C127.777 154.625 125.442 148.9 125.442 148.9C123.639 144.601 118.703 142.569 114.411 144.375C112.773 145.062 111.472 146.222 110.571 147.617C110.54 147.668 110.478 147.709 110.407 147.72C110.345 147.73 110.274 147.72 110.222 147.668C107.877 145.565 104.446 144.868 101.343 146.171C99.6938 146.858 98.3931 148.017 97.5021 149.413C97.4714 149.464 97.4099 149.505 97.3382 149.515C97.2768 149.515 97.2051 149.515 97.1539 149.464C94.8085 147.361 91.3775 146.663 88.2742 147.966C87.0145 148.5 85.9493 149.3 85.1197 150.274C85.0685 150.336 84.9866 150.367 84.9047 150.357C84.8227 150.357 84.7613 150.295 84.7306 150.213C84.157 148.848 83.5732 147.453 82.9895 146.058C80.6953 140.579 78.4011 135.049 76.6498 130.74L76.5678 130.545C75.5027 127.99 73.7513 126.185 71.6723 125.384C69.5932 124.564 67.4014 124.758 65.5272 125.538H65.4965C63.2945 126.482 61.4305 128.206 60.3039 130.412C59.1875 132.597 58.8802 135.398 59.9864 138.065C59.9864 138.065 59.9864 138.076 60.0068 138.106L79.5482 184.798C79.5789 184.881 79.5687 184.983 79.5072 185.055C79.4458 185.117 79.3434 185.137 79.2614 185.106C76.3118 184.008 73.6489 183.485 71.2831 183.444C69.0504 183.403 67.0839 183.793 65.3736 184.501H65.3531C62.26 185.804 60.2014 188.133 59.126 190.534C58.0609 192.955 57.8151 195.438 58.6754 197.582C58.9622 198.28 59.4026 198.936 60.0273 199.47C60.6521 199.993 61.4612 200.352 62.3215 200.445C70.6378 201.378 75.134 203.974 78.6162 206.836C82.1087 209.689 84.4745 213.085 88.3971 215.342C89.6978 216.009 90.7835 215.937 91.9203 215.875C93.7536 215.711 95.7815 215.198 97.2665 214.767C97.3792 214.736 97.5021 214.788 97.5533 214.901L106.781 236.949H111.431L111.441 237Z" fill="white"/>
<path d="M31.4935 65.1186H31.3297C29.8549 67.3039 28.0011 69.0686 25.7684 70.4024C23.5357 71.7464 21.0469 72.4133 18.3226 72.4133C15.3832 72.4133 12.7613 71.849 10.4671 70.7307C8.17296 69.6124 6.25774 68.0939 4.70099 66.1856C3.14423 64.2773 1.97667 62.0612 1.18805 59.5475C0.39943 57.0339 0 54.4177 0 51.6783C0 48.939 0.419914 46.5382 1.26998 44.1066C2.10981 41.6853 3.31834 39.5513 4.86486 37.7148C6.42161 35.8886 8.29586 34.4112 10.5081 33.2929C12.7101 32.1745 15.2091 31.6103 17.9949 31.6103C20.7806 31.6103 23.4435 32.2977 25.6864 33.6622C27.9192 35.0268 29.8036 36.853 31.3297 39.1512H31.4935V0H38.8574V71.1H31.4935V65.1186ZM19.4697 65.8573C21.4873 65.8573 23.2591 65.4879 24.7852 64.7492C26.3112 64.0105 27.6017 63.0051 28.6668 61.7123C29.732 60.4299 30.5308 58.9627 31.0839 57.2904C31.6267 55.6181 31.9032 53.8431 31.9032 51.9246C31.9032 50.006 31.6267 48.3029 31.0839 46.6408C30.5411 44.9787 29.732 43.5218 28.6668 42.2599C27.6119 40.9979 26.2907 40.0027 24.7442 39.264C23.1874 38.5253 21.4361 38.156 19.4697 38.156C17.5032 38.156 15.8543 38.5356 14.359 39.3051C12.8637 40.0643 11.5937 41.0903 10.5491 42.383C9.50439 43.6655 8.72602 45.1223 8.17296 46.7639C7.63014 48.4055 7.35362 50.1188 7.35362 51.9246C7.35362 53.7303 7.63014 55.4642 8.17296 57.1262C8.71578 58.7986 9.49415 60.276 10.5081 61.5892C11.522 62.9025 12.7715 63.9387 14.2668 64.6979C15.7621 65.4572 17.493 65.847 19.4594 65.847L19.4697 65.8573Z" fill="#FFC500"/>
<path d="M53.8207 10.0751C55.234 10.0751 56.4323 10.5778 57.4155 11.5935C58.3988 12.6092 58.8904 13.8199 58.8904 15.2357C58.8904 16.6516 58.3988 17.8417 57.4155 18.7958C56.4323 19.75 55.234 20.2322 53.8207 20.2322C52.4073 20.2322 51.209 19.7603 50.2258 18.7958C49.2426 17.8417 48.751 16.6516 48.751 15.2357C48.751 13.8199 49.2426 12.599 50.2258 11.5935C51.209 10.5778 52.4073 10.0751 53.8207 10.0751ZM57.4975 71.1H50.1336V32.7594H57.4975V71.1Z" fill="#FFC500"/>
<path d="M76.6395 37.9303H76.8033C77.9504 35.8578 79.5686 34.288 81.6682 33.221C83.7678 32.154 85.9902 31.6205 88.3356 31.6205C91.0087 31.6205 93.2312 32.0412 95.003 32.8927C96.7749 33.7443 98.1678 34.9139 99.1715 36.4118C100.185 37.9097 100.892 39.6744 101.302 41.6956C101.711 43.7167 101.916 45.9021 101.916 48.2516V71.1H94.5524V49.1442C94.5524 47.5026 94.4705 46.0252 94.3066 44.6812C94.1427 43.3371 93.7638 42.188 93.1595 41.2031C92.5552 40.2182 91.7052 39.4692 90.5786 38.946C89.4622 38.433 87.9772 38.1662 86.1234 38.1662C83.7268 38.1662 81.8833 38.6484 80.6031 39.6026C79.3228 40.5567 78.4011 41.7674 77.8173 43.2448C77.2438 44.7222 76.9058 46.3535 76.7931 48.1592C76.6805 49.9547 76.6292 51.7399 76.6292 53.484V71.0897H69.2654V32.7593H76.6292V37.92L76.6395 37.9303Z" fill="#FFC500"/>
<path d="M147.892 73.2648C147.892 76.5377 147.615 79.5746 147.072 82.3549C146.529 85.1353 145.556 87.5361 144.174 89.5573C142.781 91.5784 140.876 93.1482 138.449 94.2665C136.021 95.3848 132.949 95.9491 129.252 95.9491C126.578 95.9491 124.12 95.5592 121.888 94.759C119.655 93.969 117.719 92.8199 116.081 91.322C114.442 89.824 113.162 88.0081 112.23 85.874C111.298 83.7503 110.816 81.3187 110.755 78.5896H118.119C118.119 82.0266 119.184 84.6942 121.304 86.5717C123.434 88.4595 126.179 89.3931 129.569 89.3931C131.863 89.3931 133.717 89.0238 135.141 88.2851C136.564 87.5464 137.66 86.5512 138.449 85.2892C139.237 84.0273 139.78 82.5499 140.087 80.8262C140.384 79.1129 140.538 77.2661 140.538 75.2962V65.1083H140.374C138.899 67.2936 137.046 69.0583 134.813 70.3921C132.58 71.7361 130.091 72.403 127.367 72.403C124.428 72.403 121.806 71.8387 119.512 70.7204C117.217 69.6021 115.302 68.0836 113.745 66.1753C112.189 64.267 111.021 62.0509 110.232 59.5373C109.444 57.0236 109.044 54.4074 109.044 51.6681C109.044 48.9287 109.464 46.5279 110.314 44.0964C111.154 41.6751 112.363 39.541 113.909 37.7046C115.466 35.8783 117.34 34.4009 119.553 33.2826C121.755 32.1643 124.254 31.6 127.039 31.6C129.825 31.6 132.488 32.2874 134.731 33.652C136.964 35.0165 138.848 36.9043 140.374 39.3051H140.538V32.7491H147.902V73.2443L147.892 73.2648ZM128.504 65.8573C130.521 65.8573 132.293 65.4879 133.819 64.7492C135.345 64.0105 136.636 63.0051 137.701 61.7123C138.766 60.4299 139.565 58.9627 140.118 57.2904C140.661 55.6181 140.937 53.8431 140.937 51.9246C140.937 50.006 140.661 48.3029 140.118 46.6408C139.575 44.9684 138.766 43.5218 137.701 42.2599C136.636 40.9979 135.325 40.0027 133.778 39.264C132.222 38.5253 130.47 38.156 128.504 38.156C126.537 38.156 124.889 38.5356 123.393 39.3051C121.898 40.0643 120.628 41.0903 119.593 42.383C118.559 43.6655 117.77 45.1223 117.217 46.7639C116.675 48.4055 116.398 50.1188 116.398 51.9246C116.398 53.7303 116.675 55.4642 117.217 57.1262C117.76 58.7986 118.539 60.276 119.553 61.5892C120.566 62.9025 121.816 63.9387 123.311 64.6979C124.807 65.4572 126.537 65.847 128.504 65.847V65.8573Z" fill="#FFC500"/>
<path d="M95.8941 103.839C96.4267 103.459 96.5188 102.926 96.314 102.269C96.314 102.259 96.3038 102.238 96.2935 102.228C96.2935 102.218 96.2935 102.197 96.273 102.166C96.0682 101.612 95.6278 101.058 95.1567 100.72C94.6548 100.371 94.1427 100.258 93.7331 100.402C93.5794 100.453 93.4258 100.545 93.2722 100.699L82.9075 110.795C82.9075 110.795 82.9177 110.867 82.9382 110.918C83.0304 111.205 83.3274 111.626 83.6142 111.893C83.7575 112.016 83.8804 112.118 83.9624 112.17L83.9214 112.231L83.9521 112.18C84.0033 112.211 84.0443 112.231 84.0955 112.242H84.1058H84.1262C84.1262 112.242 84.1263 112.231 84.1467 112.211C84.2184 112.098 84.3311 112.006 84.454 111.954" fill="white"/>
<path d="M107.754 118.428C107.303 117.628 106.689 117.197 105.788 117.371L88.1717 120.952C88.1102 121.024 88.0386 121.25 88.0181 121.763C88.0181 122.317 88.141 122.953 88.3356 123.302C88.3868 123.404 88.438 123.476 88.4789 123.517C88.4789 123.517 88.4789 123.527 88.4892 123.538L106.443 122.686C106.73 122.665 106.965 122.604 107.15 122.501C107.693 122.214 108.041 121.619 108.164 120.839" fill="white"/>
<path d="M29.5066 129.509L27.745 129.611C27.53 129.622 27.3558 129.683 27.2329 129.745C26.8335 129.96 26.5672 130.412 26.4955 131.017C26.4136 131.622 26.5467 132.33 26.8335 132.864C26.8335 132.864 26.8335 132.884 26.8438 132.884C27.2022 133.489 27.6529 133.797 28.3186 133.654C28.3288 133.654 28.3493 133.654 28.3595 133.654L31.8418 132.894L42.4727 130.576C42.4932 130.524 42.524 130.381 42.5444 130.022C42.5444 129.591 42.4318 129.088 42.2884 128.842C42.2577 128.78 42.2269 128.739 42.2065 128.708L29.5271 129.488L29.5066 129.509Z" fill="white"/>
</g>
</g>
<defs>
<clipPath id="clip0_3290_15739">
<rect width="169" height="237" fill="white"/>
</clipPath>
</defs>
</svg>
