<svg width="20" height="20" viewBox="0 0 20 20" fill="none" xmlns="http://www.w3.org/2000/svg">
<path d="M10.2423 2.30266e-06C11.0525 -0.000638265 11.8574 0.132373 12.6244 0.39368C11.8975 1.1451 11.4397 2.11585 11.3222 3.15465C11.2047 4.19345 11.4342 5.24192 11.9749 6.13667C12.5156 7.03142 13.3371 7.72217 14.3114 8.10127C15.2856 8.48036 16.358 8.52651 17.3612 8.2325L17.6107 8.1504V11.0809C17.6108 11.2029 17.6322 11.324 17.6738 11.4388L17.7223 11.5514L19.5286 15.165C19.6123 15.3324 19.6542 15.5175 19.6507 15.7046C19.6471 15.8917 19.5983 16.0752 19.5084 16.2393C19.4185 16.4034 19.2901 16.5433 19.1343 16.6469C18.9785 16.7506 18.7999 16.8149 18.6138 16.8345L18.4928 16.8408H1.99173C1.80454 16.8408 1.62012 16.7955 1.45428 16.7087C1.28844 16.6218 1.14613 16.4961 1.03954 16.3422C0.932949 16.1883 0.865257 16.0109 0.842264 15.8251C0.819271 15.6394 0.841664 15.4508 0.907523 15.2755L0.955944 15.165L2.76331 11.5514C2.81764 11.4421 2.85254 11.3242 2.86647 11.203L2.87384 11.0819V7.36831C2.87384 5.41411 3.65015 3.53995 5.032 2.15813C6.41384 0.776303 8.28803 2.30266e-06 10.2423 2.30266e-06ZM16.0317 1.05262C16.7297 1.05262 17.399 1.32987 17.8925 1.82338C18.3861 2.31688 18.6633 2.98623 18.6633 3.68415C18.6633 4.38208 18.3861 5.05142 17.8925 5.54493C17.399 6.03844 16.7297 6.31569 16.0317 6.31569C15.3338 6.31569 14.6644 6.03844 14.1709 5.54493C13.6774 5.05142 13.4002 4.38208 13.4002 3.68415C13.4002 2.98623 13.6774 2.31688 14.1709 1.82338C14.6644 1.32987 15.3338 1.05262 16.0317 1.05262ZM10.2423 19.9997C9.58894 20 8.9516 19.7977 8.41807 19.4207C7.88454 19.0436 7.48108 18.5104 7.26331 17.8945H13.2212C13.0034 18.5104 12.6 19.0436 12.0664 19.4207C11.5329 19.7977 10.8956 20 10.2423 19.9997Z" fill="#FFC500"/>
</svg>
