<svg width="213" height="168" viewBox="0 0 213 168" fill="none" xmlns="http://www.w3.org/2000/svg">
<g clip-path="url(#clip0_3381_5879)">
<path d="M179.3 86.6697H30.0703C33.4403 86.6697 36.4903 85.3497 38.7003 83.2297C40.9103 81.0997 42.2703 78.1597 42.2703 74.9197C42.2703 68.4297 36.8103 63.1597 30.0703 63.1597H179.3C175.93 63.1597 172.88 64.4797 170.67 66.5997C168.46 68.7297 167.1 71.6697 167.1 74.9097C167.1 81.3997 172.56 86.6697 179.3 86.6697Z" fill="#EAEAFF"/>
<path d="M180.19 86.6694H29.1104C19.6277 86.6694 11.9404 94.3567 11.9404 103.839V103.849C11.9404 113.332 19.6277 121.019 29.1104 121.019H180.19C189.673 121.019 197.36 113.332 197.36 103.849V103.839C197.36 94.3567 189.673 86.6694 180.19 86.6694Z" fill="#EAEAFF"/>
<path d="M144.491 0.55957H55.1507C50.633 0.55957 46.9707 4.22188 46.9707 8.73957V8.74957C46.9707 13.2673 50.633 16.9296 55.1507 16.9296H144.491C149.008 16.9296 152.671 13.2673 152.671 8.74957V8.73957C152.671 4.22188 149.008 0.55957 144.491 0.55957Z" fill="#EAEAFF"/>
<path d="M31.5102 0.55957H28.6302C24.1125 0.55957 20.4502 4.22188 20.4502 8.73957V8.74957C20.4502 13.2673 24.1125 16.9296 28.6302 16.9296H31.5102C36.0279 16.9296 39.6902 13.2673 39.6902 8.74957V8.73957C39.6902 4.22188 36.0279 0.55957 31.5102 0.55957Z" fill="#EAEAFF"/>
<path d="M174.05 147.1H37.1098C31.5538 147.1 27.0498 151.604 27.0498 157.16C27.0498 162.716 31.5538 167.22 37.1098 167.22H174.05C179.606 167.22 184.11 162.716 184.11 157.16C184.11 151.604 179.606 147.1 174.05 147.1Z" fill="#EAEAFF"/>
<path d="M193.98 25.5996H19.0202C8.64833 25.5996 0.240234 34.0077 0.240234 44.3796C0.240234 54.7515 8.64833 63.1596 19.0202 63.1596H193.98C204.352 63.1596 212.76 54.7515 212.76 44.3796C212.76 34.0077 204.352 25.5996 193.98 25.5996Z" fill="#EAEAFF"/>
<path d="M131.83 130.879H125.57V131.439V132.749C125.57 132.879 125.57 133.009 125.57 133.139C125.54 134.509 125.37 135.839 125.05 137.139C124.79 138.219 124.42 139.279 123.96 140.309C121.11 146.609 115.06 150.729 108.15 151.059C107.89 151.069 107.62 151.079 107.33 151.079H107.26C106.08 151.079 104.89 150.969 103.74 150.739C97.5902 149.539 92.3802 145.149 90.1502 139.269C89.8902 138.599 89.6802 137.899 89.5102 137.199C89.2402 136.099 89.0602 134.969 89.0002 133.829V133.809C88.9802 133.509 88.9702 133.189 88.9702 132.859V130.949L82.7002 130.959L82.7202 136.009H82.9402C82.9902 136.409 83.0502 136.809 83.1302 137.209C83.3902 138.669 83.7902 140.099 84.3202 141.489C85.7902 145.359 88.2402 148.819 91.4102 151.509C94.6102 154.219 98.4702 156.079 102.56 156.879C104.1 157.179 105.68 157.329 107.27 157.329H107.36C107.76 157.329 108.12 157.319 108.46 157.299C113.04 157.079 117.45 155.589 121.22 152.989C124.9 150.449 127.82 146.959 129.66 142.889C130.5 141.039 131.1 139.109 131.45 137.129C131.53 136.709 131.59 136.279 131.64 135.859H131.86L131.84 130.879H131.83Z" fill="#6E6BE8"/>
<path d="M122.46 25.6397C122.46 25.3797 122.46 25.1197 122.44 24.8597C122.24 21.0897 120.68 17.5797 117.99 14.8897C115.62 12.5297 112.49 10.9897 109.19 10.5697C108.54 10.4897 107.88 10.4497 107.22 10.4497C106.04 10.4497 104.87 10.5897 103.74 10.8597C100.46 11.6397 97.4803 13.5197 95.3603 16.1697C93.4103 18.6097 92.2603 21.6097 92.0603 24.7197C92.0403 25.0397 92.0303 25.3697 92.0303 25.6897V31.3297C93.6003 30.7497 95.2003 30.2597 96.8203 29.8697C97.0003 29.8197 97.1803 29.7797 97.3603 29.7397H97.3903C97.4703 29.7197 97.5403 29.6997 97.6203 29.6797H97.6503C97.7503 29.6497 97.8603 29.6297 97.9603 29.6097H98.0203C98.2003 29.5597 98.3803 29.5197 98.5303 29.4897H98.5703C98.6503 29.4697 98.7403 29.4497 98.8303 29.4297C98.9003 29.4197 98.9803 29.3997 99.0503 29.3897C99.1103 29.3797 99.1703 29.3697 99.2303 29.3597H99.2403C99.3503 29.3397 99.4703 29.3097 99.5903 29.2897L99.7303 29.2697C99.9003 29.2397 100.08 29.2097 100.25 29.1797H100.26C100.36 29.1597 100.46 29.1497 100.57 29.1297H98.2903V25.6797C98.2903 24.7897 98.4103 23.9297 98.6503 23.1097C99.5403 20.0797 101.97 17.6997 105.17 16.9397C105.84 16.7797 106.53 16.6997 107.23 16.6997H107.25C107.63 16.6997 108.02 16.7197 108.4 16.7697C110.34 17.0197 112.18 17.9197 113.58 19.3097C114.68 20.3997 115.46 21.7297 115.87 23.1797C116.1 23.9697 116.21 24.7997 116.22 25.6397V29.0997H113.36C115.01 29.3397 116.67 29.6797 118.28 30.1197C119.71 30.4997 121.11 30.9597 122.48 31.4897V25.6297L122.46 25.6397Z" fill="#6E6BE8"/>
<path d="M172.15 123.35L165.36 112.9C159.64 104.09 156.53 93.8697 156.38 83.3596V83.3296C156.38 83.1396 156.38 82.9296 156.38 82.6896L156.36 72.8396V71.6196C156.36 70.4896 156.32 69.3596 156.24 68.2496L150.11 72.1496L150.13 82.6796C150.13 82.9596 150.13 83.2196 150.13 83.4596C150.3 95.1497 153.75 106.51 160.12 116.3L166.91 126.76C167.68 127.94 167.24 129.03 167.02 129.44C166.8 129.85 166.13 130.81 164.72 130.81L140.11 130.86H139.92L131.83 130.87H125.57L88.9504 130.95H82.6804L50.1904 131.02L48.0904 130.41L48.0704 130.39C48.0104 130.34 47.9604 130.29 47.9104 130.24L47.8504 130.16L47.7804 130.09C47.7804 130.09 47.7504 130.05 47.7404 130.04L47.7104 130L47.6704 129.95L47.5504 129.77C47.5504 129.77 47.5304 129.73 47.5304 129.71C47.5104 129.67 47.4804 129.61 47.4604 129.57L47.3804 129.38C47.3804 129.38 47.3604 129.32 47.3404 129.29C47.3404 129.28 47.3404 129.27 47.3404 129.26C47.1904 128.81 47.0204 127.92 47.6204 126.98L54.3704 116.36C54.8904 115.54 55.3904 114.72 55.8604 113.88C53.8404 113.1 51.8504 112.27 50.0304 111.47C49.7304 111.98 49.4104 112.49 49.0904 113L42.3404 123.61C40.8704 125.92 40.5404 128.71 41.4304 131.28C41.4304 131.3 41.4504 131.33 41.4504 131.35L41.4804 131.44C41.5204 131.55 41.5704 131.67 41.6104 131.78C41.6404 131.86 41.6804 131.96 41.7404 132.07V132.09C41.7804 132.16 41.8104 132.22 41.8404 132.29C41.9204 132.46 42.0204 132.64 42.1304 132.84L42.1904 132.95C42.1904 132.95 42.2404 133.03 42.2604 133.07C42.2904 133.11 42.3104 133.15 42.3304 133.18C42.3904 133.27 42.4504 133.36 42.5104 133.46C42.5904 133.58 42.6704 133.69 42.7704 133.82C42.8604 133.94 42.9604 134.06 43.0704 134.18C43.1104 134.23 43.1504 134.28 43.1904 134.32C43.2204 134.35 43.2404 134.38 43.2604 134.4C43.3304 134.48 43.3904 134.54 43.4404 134.59C43.5604 134.72 43.6904 134.85 43.8304 134.97C43.8904 135.03 43.9504 135.09 44.0204 135.14C44.0704 135.18 44.1204 135.22 44.1804 135.27C44.3304 135.39 44.4804 135.51 44.6504 135.63L46.3404 136.58H46.3704C46.4404 136.62 46.5004 136.65 46.5704 136.67C46.5704 136.67 46.5904 136.67 46.6004 136.67C46.6304 136.67 46.6504 136.69 46.6804 136.7C46.7604 136.73 46.8304 136.76 46.8804 136.77C46.9904 136.81 47.1004 136.85 47.2204 136.88C47.2804 136.9 47.3504 136.92 47.4104 136.93H47.4204C47.5904 136.98 47.7504 137.02 47.9104 137.05L49.3004 137.24C49.3004 137.24 49.3604 137.24 49.3904 137.24C49.5404 137.24 49.6804 137.25 49.8004 137.25H49.8204L83.1504 137.19H89.5404L125.09 137.12H131.48L139.95 137.09H140.57L164.77 137.04C168.02 137.04 171.01 135.25 172.56 132.39C174.11 129.52 173.97 126.05 172.19 123.33L172.15 123.35ZM122.44 24.8496C121.6 24.5796 120.76 24.3196 119.9 24.0896C118.57 23.7296 117.22 23.4296 115.86 23.1796C115.26 23.0696 114.65 22.9696 114.04 22.8896C111.71 22.5596 109.32 22.3896 106.94 22.3896C104.59 22.3896 102.23 22.5696 99.9304 22.8996C99.7104 22.9296 99.4904 22.9696 99.2704 22.9996C99.0804 23.0296 98.8904 23.0596 98.7004 23.0896C98.6804 23.0896 98.6504 23.0896 98.6304 23.0996C98.6104 23.1096 98.5904 23.0996 98.5704 23.1096C98.4204 23.1296 98.2604 23.1596 98.1104 23.1896H98.0704C98.0704 23.1896 98.0304 23.2096 98.0104 23.2096L97.8604 23.2396L97.6104 23.2896C97.5204 23.3096 97.4304 23.3196 97.3404 23.3396C97.1204 23.3796 96.9104 23.4296 96.7004 23.4696C96.5504 23.4996 96.4104 23.5296 96.2604 23.5696C96.1504 23.5896 96.0504 23.6196 95.9504 23.6396C95.7404 23.6896 95.5204 23.7396 95.3104 23.7896C94.2104 24.0596 93.1204 24.3696 92.0404 24.7096C91.2104 24.9696 90.3904 25.2596 89.5804 25.5596C89.3304 25.6496 89.0704 25.7496 88.8004 25.8596C88.7504 25.8796 88.6904 25.8996 88.6404 25.9296C88.5904 25.9596 88.5304 25.9696 88.4704 25.9996L88.4104 26.0196C87.5304 26.3796 86.6404 26.7696 85.7704 27.1896H85.7504C85.6704 27.2396 85.5904 27.2796 85.5204 27.3096C83.8704 28.1096 82.2604 29.0096 80.7104 29.9896L80.6804 30.0096C80.5804 30.0696 80.4904 30.1296 80.3904 30.1896L80.3604 30.2096C80.0304 30.4296 79.7704 30.5996 79.5304 30.7596C79.3304 30.8896 79.1604 30.9996 79.0004 31.1196C77.7804 31.9696 76.5704 32.8796 75.4204 33.8496C75.0204 34.1796 74.6104 34.5396 74.1904 34.9096H74.1804C74.0804 35.0096 73.9904 35.0996 73.8904 35.1896C73.7104 35.3496 73.5304 35.5196 73.3504 35.6796L73.2804 35.7496C72.8504 36.1596 72.4604 36.5297 72.1104 36.8897C67.5904 41.4296 64.0504 46.7096 61.5704 52.5796C59.0104 58.6696 57.7204 65.1296 57.7304 71.7796L57.7504 83.0296C57.7504 88.4296 56.9904 93.7496 55.4804 98.8596L61.5804 100.28C63.1904 94.6996 64.0104 88.8896 64.0004 83.0096L63.9804 71.7596C63.9604 60.2596 68.4204 49.4396 76.5404 41.2796C76.8504 40.9697 77.1804 40.6496 77.5604 40.2896L77.6204 40.2396C77.7704 40.0996 77.9204 39.9596 78.0704 39.8196L78.0904 39.7997C78.1804 39.7197 78.2604 39.6396 78.3504 39.5596C78.7204 39.2296 79.0804 38.9196 79.4304 38.6296C80.4404 37.7896 81.4904 36.9796 82.5604 36.2396H82.5804C82.7204 36.1296 82.8604 36.0396 82.9904 35.9496L83.0204 35.9296C83.2204 35.7896 83.4504 35.6396 83.7404 35.4496C83.8504 35.3796 83.9604 35.3096 84.0704 35.2396C85.4204 34.3896 86.8304 33.5996 88.2704 32.9096L88.3104 32.8897C88.3104 32.8897 88.3904 32.8496 88.4304 32.8296L88.4704 32.8096C89.2304 32.4396 90.0004 32.0996 90.7604 31.7896C90.8404 31.7596 90.9204 31.7296 91.0004 31.6996L91.1304 31.6496C91.3704 31.5496 91.5904 31.4696 91.8004 31.3896C91.8804 31.3596 91.9604 31.3296 92.0404 31.2996C93.6004 30.7196 95.2004 30.2296 96.8204 29.8396C97.0004 29.7896 97.1804 29.7496 97.3604 29.7096H97.3904C97.4704 29.6896 97.5404 29.6696 97.6204 29.6496H97.6504C97.7504 29.6196 97.8604 29.5996 97.9604 29.5796H98.0204C98.2004 29.5296 98.3804 29.4896 98.5304 29.4596H98.5704C98.6504 29.4396 98.7404 29.4196 98.8304 29.3996C98.9004 29.3896 98.9804 29.3696 99.0504 29.3596C99.1104 29.3496 99.1704 29.3396 99.2304 29.3296H99.2404C99.3504 29.3096 99.4704 29.2796 99.5904 29.2596L99.7304 29.2396C99.9004 29.2096 100.08 29.1796 100.25 29.1496H100.26C100.36 29.1296 100.46 29.1196 100.57 29.0996C100.65 29.0896 100.74 29.0696 100.83 29.0596C102.84 28.7696 104.91 28.6196 106.97 28.6096C109.04 28.6096 111.14 28.7496 113.18 29.0396C113.24 29.0396 113.3 29.0596 113.36 29.0696C115.01 29.3096 116.67 29.6496 118.28 30.0896C119.71 30.4696 121.11 30.9296 122.48 31.4596C132.02 35.1196 140.01 42.1096 144.93 51.1696L150.2 47.7896C144.17 36.8996 134.22 28.6796 122.45 24.8096L122.44 24.8496Z" fill="#6E6BE8"/>
<path d="M79.5305 107.789C78.4205 107.789 77.3005 107.759 76.1705 107.699C69.4305 107.349 62.3605 105.949 55.1405 103.529C39.7505 98.3793 27.1505 89.9293 19.2905 83.7493C17.9305 82.6793 17.7005 80.7193 18.7705 79.3593C19.8405 77.9993 21.8005 77.7693 23.1605 78.8393C32.4405 86.1393 65.0905 109.169 95.6205 99.0193C105.171 95.8493 116.131 87.7893 117.951 79.7993C118.201 78.6893 118.271 77.6093 118.161 76.5493C103.351 80.2993 92.8905 79.8593 87.0705 75.2493C83.8805 72.7293 82.5405 68.9893 83.4905 65.2393C84.6305 60.7293 88.7605 57.1093 93.7805 56.2293C97.5905 55.5593 101.831 56.1093 106.751 57.8993C111.621 59.6793 115.581 62.0093 118.511 64.8393C119.961 66.2393 121.081 67.6393 121.941 69.0193C137.121 64.4493 152.841 56.6593 169.841 45.2993C171.281 44.3393 173.221 44.7293 174.171 46.1593C175.131 47.5993 174.741 49.5393 173.311 50.4893C155.961 62.0793 139.841 70.0893 124.221 74.8493C124.641 77.2293 124.451 79.3893 124.041 81.1693C121.621 91.8093 108.911 101.179 97.5905 104.939C91.9205 106.819 85.8605 107.769 79.5305 107.769V107.789ZM97.0205 62.2193C96.2605 62.2193 95.5405 62.2793 94.8505 62.3993C91.8305 62.9293 89.9805 65.0493 89.5405 66.7893C89.2005 68.1493 89.6705 69.3593 90.9405 70.3593C94.9205 73.5093 103.611 73.6493 115.511 70.7793C115.111 70.2993 114.661 69.8193 114.171 69.3493C111.871 67.1293 108.661 65.2593 104.611 63.7893C101.731 62.7393 99.2305 62.2193 97.0205 62.2193Z" fill="#6E6BE8"/>
<path d="M63.4604 116.62C63.4104 116.62 63.3504 116.62 63.3004 116.62C52.2204 115.26 39.5404 107.19 39.0104 106.85C38.4004 106.46 38.2204 105.65 38.6104 105.04C39.0004 104.43 39.8104 104.25 40.4204 104.64C40.5504 104.72 53.1304 112.73 63.6204 114.02C64.3404 114.11 64.8504 114.76 64.7604 115.48C64.6804 116.15 64.1104 116.63 63.4604 116.63V116.62Z" fill="#6E6BE8"/>
<path d="M130.86 57.0697C130.22 57.0697 129.67 56.6097 129.56 55.9597C129.45 55.2397 129.94 54.5697 130.65 54.4597C143.17 52.4997 157.72 40.9297 157.86 40.8197C158.43 40.3697 159.25 40.4597 159.7 41.0197C160.15 41.5897 160.06 42.4097 159.5 42.8597C159.35 42.9797 155.67 45.9197 150.33 49.1497C143.11 53.5197 136.63 56.1697 131.06 57.0497C130.99 57.0597 130.92 57.0697 130.86 57.0697Z" fill="#6E6BE8"/>
</g>
<defs>
<clipPath id="clip0_3381_5879">
<rect width="212.52" height="166.65" fill="white" transform="translate(0.240234 0.55957)"/>
</clipPath>
</defs>
</svg>
