<svg xmlns="http://www.w3.org/2000/svg" width="25.237" height="26.41" viewBox="0 0 25.237 26.41">
  <g id="notifications" transform="translate(-34.715 -423.561)">
    <path id="Vector" d="M12.634,0a2.661,2.661,0,0,1,2.249,1.286A2.2,2.2,0,0,1,15.224,2.6a1.911,1.911,0,0,0,.291,1.088,2.44,2.44,0,0,0,3.184.853,2.612,2.612,0,0,1,3.551.94L23.1,6.937a2.507,2.507,0,0,1-.935,3.5,2.253,2.253,0,0,0-.809,3.091,1.913,1.913,0,0,0,.783.791,2.847,2.847,0,0,1,1.024.977,2.5,2.5,0,0,1-.025,2.535l-.885,1.484a2.593,2.593,0,0,1-3.576.915,2.016,2.016,0,0,0-1.112-.284,2.36,2.36,0,0,0-2.338,2.25,2.557,2.557,0,0,1-2.616,2.535H10.89A2.56,2.56,0,0,1,8.261,22.2a2.34,2.34,0,0,0-2.325-2.25,1.961,1.961,0,0,0-1.112.284,2.672,2.672,0,0,1-1.339.371,2.638,2.638,0,0,1-2.249-1.286L.364,17.831A2.467,2.467,0,0,1,.338,15.3a2.619,2.619,0,0,1,1.011-.977,2.021,2.021,0,0,0,.8-.791,2.268,2.268,0,0,0-.821-3.091,2.527,2.527,0,0,1-.935-3.5l.847-1.459A2.627,2.627,0,0,1,4.8,4.538a2.427,2.427,0,0,0,3.172-.853A1.911,1.911,0,0,0,8.261,2.6a2.207,2.207,0,0,1,.354-1.311A2.714,2.714,0,0,1,10.852,0Z" transform="translate(35.59 424.401)" fill="none" stroke="#4100e3" stroke-width="1.68"/>
    <path id="Vector-2" data-name="Vector" d="M9.2,4.6A4.6,4.6,0,1,1,4.6,0,4.6,4.6,0,0,1,9.2,4.6Z" transform="translate(42.663 432.109)" fill="none" stroke="#ffc500" stroke-width="1.68"/>
  </g>
</svg>
