<svg width="20" height="21" viewBox="0 0 20 21" fill="none" xmlns="http://www.w3.org/2000/svg">
<g clip-path="url(#clip0_3358_988)">
<path d="M17 2.88379C17.7917 2.88379 18.5583 3.18379 19.125 3.70484C19.6917 4.23379 20 4.94432 20 5.69432V15.0733C20 15.8154 19.6833 16.5338 19.125 17.0627C18.5667 17.5917 17.8 17.8838 17 17.8838H3C2.20833 17.8838 1.44167 17.5838 0.875 17.0627C0.308333 16.5338 0 15.8233 0 15.0733V5.69432C0 4.95221 0.316667 4.23379 0.875 3.70484C1.44167 3.18379 2.20833 2.88379 3 2.88379H17ZM18 8.50484H2V15.0654C2 15.2943 2.09167 15.5154 2.25 15.6891C2.41667 15.8627 2.63333 15.9733 2.88333 15.9969H3H17C17.2417 15.9969 17.4833 15.9101 17.6667 15.7601C17.85 15.6101 17.9667 15.3969 17.9917 15.168V15.0575V8.49695L18 8.50484ZM17 4.76274H3C2.73333 4.76274 2.48333 4.86537 2.29167 5.03905C2.1 5.21274 2 5.44958 2 5.70221V6.64168H18V5.70221C18 5.45747 17.8917 5.21274 17.7083 5.03905C17.5167 4.86537 17.2667 4.76274 17 4.76274Z" fill="#4100E3"/>
<path d="M15.0001 11.3232C15.2585 11.3232 15.5001 11.418 15.6835 11.5759C15.8668 11.7417 15.9835 11.9627 15.9918 12.1996C16.0085 12.4364 15.9251 12.6732 15.7585 12.8548C15.5918 13.0364 15.3668 13.1548 15.1085 13.1864H14.9918H11.9918C11.7335 13.1864 11.4918 13.0917 11.3085 12.9338C11.1251 12.768 11.0085 12.5469 11.0001 12.3101C10.9835 12.0732 11.0668 11.8364 11.2335 11.6548C11.4001 11.4732 11.6251 11.3548 11.8835 11.3232H12.0001H15.0001Z" fill="#FFC500"/>
</g>
<defs>
<clipPath id="clip0_3358_988">
<rect width="20" height="15" fill="white" transform="translate(0 2.88379)"/>
</clipPath>
</defs>
</svg>
