<svg xmlns="http://www.w3.org/2000/svg" xmlns:xlink="http://www.w3.org/1999/xlink" width="32" height="30.922" viewBox="0 0 32 30.922">
  <defs>
    <clipPath id="clip-path">
      <rect id="Rectangle_3" data-name="Rectangle 3" width="32" height="30.922" fill="#8f9bb3"/>
    </clipPath>
  </defs>
  <g id="plumbing-blue" transform="translate(0 0)">
    <g id="Group_1" data-name="Group 1" transform="translate(0 0)" clip-path="url(#clip-path)">
      <path id="Path_1" data-name="Path 1" d="M45,30.483H37V28.828h7.172v-8A.828.828,0,0,1,45,20h3.586v1.655H45.828v8a.828.828,0,0,1-.828.828" transform="translate(-16.586 -8.966)" fill="#8f9bb3"/>
      <path id="Path_2" data-name="Path 2" d="M13.793,26.448H3.586a.828.828,0,0,1-.828-.828V12.655H0V11H3.586a.828.828,0,0,1,.828.828V24.793h9.379Z" transform="translate(0 -4.931)" fill="#8f9bb3"/>
      <path id="Path_3" data-name="Path 3" d="M13.793,15.448H9.655a.828.828,0,0,1-.828-.828V1.655H0V0H9.655a.828.828,0,0,1,.828.828V13.793h3.31Z" transform="translate(0 0)" fill="#8f9bb3"/>
      <path id="Path_4" data-name="Path 4" d="M37.138,19.483H33V17.828h3.31v-8A.828.828,0,0,1,37.138,9h9.655v1.655H37.966v8a.828.828,0,0,1-.828.828" transform="translate(-14.793 -4.035)" fill="#8f9bb3"/>
      <path id="Path_5" data-name="Path 5" d="M26.759,33.138A2.762,2.762,0,0,1,24,30.379V23.759a2.759,2.759,0,1,1,5.517,0v6.621a2.762,2.762,0,0,1-2.759,2.759m0-10.483a1.1,1.1,0,0,0-1.1,1.1v6.621a1.1,1.1,0,1,0,2.207,0V23.759a1.1,1.1,0,0,0-1.1-1.1" transform="translate(-10.759 -9.414)" fill="#8f9bb3"/>
      <path id="Path_6" data-name="Path 6" d="M26.546,50.811a2.521,2.521,0,0,1-1.276-.342,2.168,2.168,0,0,1-1.078-1.95c.012-.962,1.174-2.948,1.672-3.757a.828.828,0,0,1,.7-.394h0a.829.829,0,0,1,.7.391c.375.6,1.6,2.655,1.6,3.77a2.188,2.188,0,0,1-1.1,1.962,2.478,2.478,0,0,1-1.229.32m.02-3.943a6.786,6.786,0,0,0-.718,1.676.52.52,0,0,0,.263.5.9.9,0,0,0,.842.012.542.542,0,0,0,.264-.524,5.528,5.528,0,0,0-.651-1.663" transform="translate(-10.845 -19.89)" fill="#8f9bb3"/>
      <rect id="Rectangle_1" data-name="Rectangle 1" width="1.655" height="3.31" transform="translate(9.931 17.655)" fill="#8f9bb3"/>
      <rect id="Rectangle_2" data-name="Rectangle 2" width="1.655" height="5.191" transform="matrix(0.714, -0.7, 0.7, 0.714, 18.906, 25.837)" fill="#8f9bb3"/>
    </g>
  </g>
</svg>
