<svg xmlns="http://www.w3.org/2000/svg" width="22.596" height="24.32" viewBox="0 0 22.596 24.32">
  <g id="policy" transform="translate(-36.471 -594.195)">
    <path id="Vector" d="M10.166,22.639h.584a13.249,13.249,0,0,0,7.829-7.245A28.663,28.663,0,0,0,20.916,5.346a.954.954,0,0,0-.935-1.052,14.663,14.663,0,0,1-5.258-1.4A13.863,13.863,0,0,1,11.451.438a1.343,1.343,0,0,0-1.986,0A18.525,18.525,0,0,1,6.193,2.775,13.093,13.093,0,0,1,.935,4.294.954.954,0,0,0,0,5.346,31.576,31.576,0,0,0,2.337,15.395,13.562,13.562,0,0,0,10.166,22.639Z" transform="translate(37.311 595.035)" fill="none" stroke="#4100e3" stroke-width="1.68"/>
    <path id="Vector-2" data-name="Vector" d="M10.166,0,3.739,5.375,0,2.22" transform="translate(43.154 603.186)" fill="none" stroke="#ffc500" stroke-width="1.68"/>
  </g>
</svg>
