<svg width="20" height="20" viewBox="0 0 20 20" fill="none" xmlns="http://www.w3.org/2000/svg">
<g clip-path="url(#clip0_3458_2192)">
<g clip-path="url(#clip1_3458_2192)">
<path d="M13.3581 0.137207H5.66764C3.64383 0.137207 2 1.78104 2 3.80485V16.1873C2 18.2111 3.64383 19.8549 5.66764 19.8549H15.3241C17.3479 19.8549 18.9917 18.2111 18.9917 16.1873V5.77909L13.3581 0.137207ZM13.5398 5.59736V3.12749L16.0097 5.59736H13.5398ZM17.0092 7.57987V16.1212C17.0092 17.0876 16.2245 17.8806 15.2498 17.8806H5.74198C4.77551 17.8806 3.98251 17.0959 3.98251 16.1212V3.87919C3.98251 2.91272 4.76725 2.11971 5.74198 2.11971H11.5573V7.57987H17.0175H17.0092Z" fill="#4100E3"/>
<path d="M13.6967 11.5199C13.4489 11.2721 13.1185 11.1316 12.7715 11.1069C12.7715 11.1069 12.7715 11.1069 12.7715 11.0986V10.2808C12.7715 9.07479 11.7472 8.0918 10.4999 8.0918C9.25258 8.0918 8.22829 9.07479 8.22829 10.2808V11.0986C8.22829 11.0986 8.22829 11.0986 8.22829 11.1069C7.88135 11.1316 7.55093 11.2721 7.30312 11.5199C7.03052 11.7925 6.88184 12.1642 6.88184 12.5442V14.7167C6.88184 15.1049 7.03052 15.4684 7.30312 15.741C7.57571 16.0136 7.94743 16.1623 8.32741 16.1623H12.6724C13.0607 16.1623 13.4241 16.0136 13.6967 15.741C13.9693 15.4684 14.118 15.0967 14.118 14.7167V12.5442C14.118 12.1559 13.9693 11.7925 13.6967 11.5199ZM9.87212 10.2726C9.87212 9.97518 10.153 9.73563 10.4917 9.73563C10.8303 9.73563 11.1112 9.97518 11.1112 10.2726V11.0903H9.86386V10.2726H9.87212Z" fill="#FFC500"/>
</g>
</g>
<defs>
<clipPath id="clip0_3458_2192">
<rect width="20" height="19.9997" fill="white"/>
</clipPath>
<clipPath id="clip1_3458_2192">
<rect width="17" height="19.7259" fill="white" transform="translate(2 0.137207)"/>
</clipPath>
</defs>
</svg>
