<svg width="23" height="24" viewBox="0 0 23 24" fill="none" xmlns="http://www.w3.org/2000/svg">
<g clip-path="url(#clip0_3342_194)">
<path fill-rule="evenodd" clip-rule="evenodd" d="M21.47 17.2287C20.87 16.4787 20.03 15.7887 19.05 15.1987C17.09 14.0287 14.43 13.1887 11.5 13.1887C8.57 13.1887 5.91 14.0187 3.95 15.1987C2.97 15.7887 2.14 16.4787 1.53 17.2287C0.94 17.9687 0.5 18.8487 0.5 19.7987C0.5 20.8087 1 21.6087 1.73 22.1787C2.41 22.7187 3.32 23.0787 4.28 23.3287C6.21 23.8287 8.78 23.9987 11.51 23.9987C14.24 23.9987 16.81 23.8287 18.74 23.3287C19.7 23.0787 20.6 22.7187 21.29 22.1787C22.01 21.6087 22.52 20.8087 22.52 19.7987C22.52 18.8587 22.08 17.9687 21.49 17.2287H21.47ZM19.74 20.3087C19.44 20.5487 18.91 20.7987 18.1 21.0087C16.49 21.4287 14.18 21.5987 11.5 21.5987C8.82 21.5987 6.51 21.4287 4.9 21.0087C4.09 20.7987 3.56 20.5487 3.26 20.3087C2.99 20.0987 2.95 19.9487 2.95 19.7987C2.95 19.5887 3.06 19.2087 3.46 18.7187C3.85 18.2387 4.44 17.7287 5.23 17.2487C6.81 16.2987 9.03 15.5987 11.51 15.5987C13.99 15.5987 16.21 16.3087 17.79 17.2487C18.58 17.7187 19.18 18.2387 19.56 18.7187C19.95 19.2087 20.06 19.5787 20.06 19.7987C20.06 19.9487 20.01 20.0987 19.75 20.3087H19.74Z" fill="#8F9098"/>
<path fill-rule="evenodd" clip-rule="evenodd" d="M15.8199 1.75878C14.6699 0.628779 13.1199 -0.0012207 11.4999 -0.0012207C9.87989 -0.0012207 8.31989 0.628779 7.17989 1.75878C6.02989 2.88878 5.38989 4.40878 5.38989 5.99878C5.38989 7.58878 6.02989 9.11878 7.17989 10.2388C8.32989 11.3688 9.87989 11.9988 11.4999 11.9988C13.1199 11.9988 14.6799 11.3688 15.8199 10.2388C16.9699 9.10878 17.6099 7.58878 17.6099 5.99878C17.6099 4.40878 16.9699 2.87878 15.8199 1.75878ZM14.0899 8.54878C13.3999 9.22878 12.4699 9.59878 11.4999 9.59878C11.0199 9.59878 10.5399 9.50878 10.0999 9.32878C9.65989 9.14878 9.24989 8.87878 8.90989 8.54878C8.56989 8.21878 8.29989 7.81878 8.11989 7.37878C7.93989 6.93878 7.83989 6.47878 7.83989 5.99878C7.83989 5.51878 7.92989 5.05878 8.11989 4.61878C8.30989 4.17878 8.56989 3.78878 8.90989 3.44878C9.24989 3.11878 9.64989 2.84878 10.0999 2.66878C10.5399 2.48878 11.0199 2.39878 11.4999 2.39878C12.4699 2.39878 13.4099 2.77878 14.0899 3.44878C14.7799 4.12878 15.1599 5.03878 15.1599 5.99878C15.1599 6.95878 14.7699 7.86878 14.0899 8.54878Z" fill="#8F9098"/>
</g>
<defs>
<clipPath id="clip0_3342_194">
<rect width="22" height="24" fill="white" transform="translate(0.5 -0.0012207)"/>
</clipPath>
</defs>
</svg>
