<svg width="21" height="22" viewBox="0 0 21 22" fill="none" xmlns="http://www.w3.org/2000/svg">
<path d="M10.3752 11.9022C12.8155 11.9022 15.0349 12.609 16.6676 13.6052C17.4824 14.1022 18.1791 14.6889 18.6822 15.3264C19.1772 15.9528 19.5418 16.7025 19.5418 17.504C19.5418 18.3647 19.1232 19.043 18.5203 19.5268C17.9499 19.9852 17.1972 20.2887 16.3977 20.5005C14.7904 20.9252 12.6454 21.0689 10.3752 21.0689C8.10488 21.0689 5.95988 20.9263 4.35266 20.5005C3.55313 20.2887 2.80044 19.9852 2.23007 19.5268C1.62609 19.042 1.2085 18.3647 1.2085 17.504C1.2085 16.7025 1.57313 15.9528 2.06813 15.3254C2.57127 14.6889 3.26692 14.1032 4.08276 13.6041C5.71544 12.6101 7.93581 11.9022 10.3752 11.9022ZM10.3752 0.698486C11.7258 0.698486 13.0211 1.23503 13.9762 2.19007C14.9312 3.14512 15.4678 4.44044 15.4678 5.79108C15.4678 7.14172 14.9312 8.43704 13.9762 9.39209C13.0211 10.3471 11.7258 10.8837 10.3752 10.8837C9.02452 10.8837 7.7292 10.3471 6.77416 9.39209C5.81911 8.43704 5.28257 7.14172 5.28257 5.79108C5.28257 4.44044 5.81911 3.14512 6.77416 2.19007C7.7292 1.23503 9.02452 0.698486 10.3752 0.698486Z" fill="#FFC500"/>
<path fill-rule="evenodd" clip-rule="evenodd" d="M10.3752 11.9022C12.8155 11.9022 15.0349 12.609 16.6676 13.6052C17.4824 14.1022 18.1791 14.6889 18.6822 15.3264C19.1772 15.9528 19.5418 16.7025 19.5418 17.504C19.5418 18.3647 19.1232 19.043 18.5203 19.5268C17.9499 19.9852 17.1972 20.2887 16.3977 20.5005C14.7904 20.9252 12.6454 21.0689 10.3752 21.0689C8.10488 21.0689 5.95988 20.9263 4.35266 20.5005C3.55313 20.2887 2.80044 19.9852 2.23007 19.5268C1.62609 19.042 1.2085 18.3647 1.2085 17.504C1.2085 16.7025 1.57313 15.9528 2.06813 15.3254C2.57127 14.6889 3.26692 14.1032 4.08276 13.6041C5.71544 12.6101 7.93581 11.9022 10.3752 11.9022ZM10.3752 13.9392C8.3147 13.9392 6.461 14.5402 5.14405 15.3438C4.48507 15.7451 3.98803 16.181 3.6672 16.5884C3.3372 17.006 3.24553 17.3217 3.24553 17.504C3.24553 17.6283 3.28322 17.7597 3.50526 17.9379C3.75887 18.1416 4.19988 18.3525 4.87414 18.5307C6.21655 18.8872 8.14563 19.0318 10.3752 19.0318C12.6057 19.0318 14.5338 18.8862 15.8752 18.5307C16.5504 18.3525 16.9915 18.1416 17.2451 17.9379C17.4671 17.7597 17.5048 17.6283 17.5048 17.504C17.5048 17.3207 17.4131 17.006 17.0841 16.5884C16.7623 16.181 16.2653 15.7451 15.6063 15.3438C14.2893 14.5391 12.4356 13.9392 10.3752 13.9392ZM10.3752 0.698486C11.7258 0.698486 13.0211 1.23503 13.9762 2.19007C14.9312 3.14512 15.4678 4.44044 15.4678 5.79108C15.4678 7.14172 14.9312 8.43704 13.9762 9.39209C13.0211 10.3471 11.7258 10.8837 10.3752 10.8837C9.02452 10.8837 7.7292 10.3471 6.77416 9.39209C5.81911 8.43704 5.28257 7.14172 5.28257 5.79108C5.28257 4.44044 5.81911 3.14512 6.77416 2.19007C7.7292 1.23503 9.02452 0.698486 10.3752 0.698486ZM10.3752 2.73552C9.9739 2.73552 9.57657 2.81456 9.20585 2.96811C8.83513 3.12167 8.49829 3.34674 8.21456 3.63047C7.93082 3.91421 7.70575 4.25105 7.5522 4.62177C7.39864 4.99249 7.31961 5.38982 7.31961 5.79108C7.31961 6.19234 7.39864 6.58967 7.5522 6.96039C7.70575 7.33111 7.93082 7.66795 8.21456 7.95168C8.49829 8.23542 8.83513 8.46049 9.20585 8.61404C9.57657 8.7676 9.9739 8.84663 10.3752 8.84663C11.1855 8.84663 11.9627 8.52471 12.5358 7.95168C13.1088 7.37865 13.4307 6.60146 13.4307 5.79108C13.4307 4.98069 13.1088 4.2035 12.5358 3.63047C11.9627 3.05745 11.1855 2.73552 10.3752 2.73552Z" fill="#4100E3"/>
</svg>
