<svg width="160" height="110" viewBox="0 0 160 110" fill="none" xmlns="http://www.w3.org/2000/svg">
<g clip-path="url(#clip0_3381_6121)">
<g clip-path="url(#clip1_3381_6121)">
<path d="M137.887 89.1025H30.4629C33.1217 89.1025 35.5309 87.8892 37.2735 85.9294C39.0161 83.9696 40.0946 81.2608 40.0946 78.2712C40.0946 72.2895 35.7818 67.4399 30.4629 67.4399H137.887C135.227 67.4399 132.819 68.652 131.076 70.6131C129.334 72.5728 128.255 75.2804 128.255 78.2712C128.255 84.2529 132.567 89.1025 137.887 89.1025Z" fill="#EAEAFF"/>
<path d="M138.618 89.1025H27.2458C21.6195 89.1025 17.0586 93.6635 17.0586 99.2897V99.291C17.0586 104.917 21.6195 109.478 27.2458 109.478H138.618C144.244 109.478 148.805 104.917 148.805 99.291V99.2897C148.805 93.6635 144.244 89.1025 138.618 89.1025Z" fill="#EAEAFF"/>
<path d="M32.2621 24.4282L74.7496 24.4282C81.1879 24.4282 86.4072 19.2089 86.4072 12.7706V11.9492C86.4072 5.5109 81.1879 0.291599 74.7496 0.291599L32.2621 0.291599C25.8238 0.291599 20.6045 5.5109 20.6045 11.9492V12.7706C20.6045 19.2089 25.8238 24.4282 32.2621 24.4282Z" fill="#EAEAFF"/>
<path d="M108.001 24.4282L111.05 24.4282C117.489 24.4282 122.708 19.2089 122.708 12.7706V11.9492C122.708 5.5109 117.489 0.291599 111.05 0.291599L108.001 0.291599C101.563 0.291599 96.3432 5.5109 96.3432 11.9492V12.7706C96.3432 19.2089 101.563 24.4282 108.001 24.4282Z" fill="#EAEAFF"/>
<path d="M142.669 28.7886H17.331C7.75937 28.7886 0 36.5479 0 46.1196V50.1091C0 59.6808 7.75937 67.4401 17.331 67.4401H142.669C152.241 67.4401 160 59.6808 160 50.1091V46.1196C160 36.5479 152.241 28.7886 142.669 28.7886Z" fill="#EAEAFF"/>
<path d="M116.402 90.0899H35.4325C29.1911 90.0899 24.1318 85.0307 24.1318 78.7893V74.7873L40.8088 80.6779L52.7023 70.0701L70.8323 77.5635L53.7821 60.2175L39.7278 68.1428L24.1318 55.9159V35.7288C24.1318 29.4875 29.1911 24.4282 35.4325 24.4282H116.4C122.642 24.4282 127.701 29.4875 127.701 35.7288V78.7918C127.701 85.0332 122.642 90.0924 116.4 90.0924L116.402 90.0899Z" fill="white"/>
<path d="M116.402 91.9622H35.4324C28.1687 91.9622 22.2581 86.0529 22.2581 78.7892V74.7872C22.2581 74.1793 22.5527 73.6101 23.0495 73.2581C23.5463 72.9073 24.1817 72.8187 24.7546 73.0209L40.3868 78.542L51.454 68.6707C51.9895 68.1926 52.7522 68.0628 53.415 68.3374L63.0542 72.3219L53.45 62.5517L40.6452 69.7717C39.9848 70.1437 39.166 70.0812 38.5705 69.6144L22.9746 57.3876C22.5215 57.033 22.2568 56.4888 22.2568 55.9146V35.7275C22.2568 28.4638 28.1662 22.5532 35.4311 22.5532H116.4C123.664 22.5532 129.575 28.4626 129.575 35.7275V78.7905C129.575 86.0542 123.665 91.9635 116.4 91.9635L116.402 91.9622ZM26.0042 77.4336V78.7892C26.0042 83.9883 30.2333 88.2174 35.4336 88.2174H116.403C121.602 88.2174 125.832 83.9883 125.832 78.7892V35.7263C125.832 30.5272 121.603 26.2968 116.403 26.2968H35.4324C30.2333 26.2968 26.0029 30.5259 26.0029 35.7263V55.0021L39.8962 65.8945L52.8608 58.5846C53.5985 58.169 54.5222 58.3 55.1164 58.903L72.1666 76.249C72.7907 76.8831 72.8818 77.8692 72.3838 78.6082C71.8857 79.3472 70.9383 79.633 70.1157 79.2923L53.0705 72.247L42.0532 82.0734C41.5439 82.5278 40.8274 82.6688 40.1833 82.4417L26.0029 77.4336H26.0042Z" fill="#6E6BE8"/>
<path d="M126 40.8848H26V51.8848H126V40.8848Z" fill="#6E6BE8" fill-opacity="0.5"/>
<path d="M115.197 17.8748L99.3684 43.5817C96.2303 48.6784 99.8977 55.2419 105.882 55.2419H137.179C143.164 55.2419 146.83 48.6784 143.692 43.5817L127.864 17.8748C124.959 13.1563 118.1 13.1563 115.195 17.8748H115.197Z" fill="#FFC500"/>
<path d="M137.18 57.1141H105.884C102.385 57.1141 99.2779 55.2904 97.5715 52.2359C95.8651 49.1814 95.9412 45.5788 97.7762 42.6005L113.604 16.8935C115.312 14.1198 118.277 12.4634 121.533 12.4634C124.79 12.4634 127.755 14.1198 129.462 16.8935L145.291 42.6005C147.124 45.5801 147.202 49.1826 145.495 52.2359C143.789 55.2904 140.682 57.1141 137.183 57.1141H137.18ZM121.531 16.2082C119.584 16.2082 117.812 17.1981 116.791 18.8558L100.963 44.5627C99.8496 46.3702 99.8034 48.556 100.839 50.4084C101.874 52.2621 103.76 53.3681 105.882 53.3681H137.179C139.301 53.3681 141.187 52.2621 142.222 50.4084C143.257 48.5547 143.211 46.3702 142.099 44.5615L126.271 18.8545C125.249 17.1968 123.477 16.207 121.531 16.207V16.2082Z" fill="#4100E3"/>
<path d="M121.531 41.7166C120.497 41.7166 119.658 40.8777 119.658 39.8442V25.117C119.658 24.0835 120.497 23.2446 121.531 23.2446C122.564 23.2446 123.403 24.0835 123.403 25.117V39.8442C123.403 40.8777 122.564 41.7166 121.531 41.7166Z" fill="#4100E3"/>
<path d="M121.53 48.3262C120.271 48.3262 119.251 47.3051 119.251 46.0469V45.8946C119.251 44.6351 120.272 43.6152 121.53 43.6152C122.789 43.6152 123.81 44.6363 123.81 45.8946V46.0469C123.81 47.3064 122.789 48.3262 121.53 48.3262Z" fill="#4100E3"/>
</g>
</g>
<defs>
<clipPath id="clip0_3381_6121">
<rect width="160" height="109.187" fill="white" transform="translate(0 0.291504)"/>
</clipPath>
<clipPath id="clip1_3381_6121">
<rect width="160" height="109.187" fill="white" transform="translate(0 0.291504)"/>
</clipPath>
</defs>
</svg>
