<svg width="160" height="144" viewBox="0 0 160 144" fill="none" xmlns="http://www.w3.org/2000/svg">
<g clip-path="url(#clip0_3381_6157)">
<g clip-path="url(#clip1_3381_6157)">
<path d="M142.907 99.6865H17.0935C7.65301 99.6865 0 107.34 0 116.78V119.658C0 129.099 7.65301 136.752 17.0935 136.752H142.907C152.347 136.752 160 129.099 160 119.658V116.78C160 107.34 152.347 99.6865 142.907 99.6865Z" fill="#EAEAFF"/>
<path d="M144.419 38.2969H20.1295C11.5251 38.2969 4.5498 45.2721 4.5498 53.8766V56.1873C4.5498 64.7917 11.5251 71.767 20.1295 71.767H144.419C153.024 71.767 159.999 64.7917 159.999 56.1873V53.8766C159.999 45.2721 153.024 38.2969 144.419 38.2969Z" fill="#EAEAFF"/>
<path d="M129.591 14.3594H49.152C43.9627 14.3594 39.7559 18.5662 39.7559 23.7555C39.7559 28.9449 43.9627 33.1517 49.152 33.1517H129.591C134.78 33.1517 138.987 28.9449 138.987 23.7555C138.987 18.5662 134.78 14.3594 129.591 14.3594Z" fill="#EAEAFF"/>
<path d="M146.056 99.6837C145.983 99.6865 145.908 99.6865 145.834 99.6865H20.4695C20.4447 99.6865 20.4184 99.6865 20.3936 99.6851C24.218 99.6658 27.6779 98.1064 30.1847 95.5982C32.7109 93.072 34.273 89.5818 34.273 85.7283C34.273 78.0448 28.0674 71.8129 20.3936 71.7729C20.4184 71.7715 20.4447 71.7715 20.4695 71.7715H145.834C145.908 71.7715 145.76 71.7715 145.834 71.7742C142.066 71.8309 138.884 73.3833 136.407 75.8584C133.881 78.3846 132.319 81.8748 132.319 85.7283C132.319 93.3635 138.448 99.5677 146.056 99.6837Z" fill="#EAEAFF"/>
<path d="M92.8366 5.23652C77.9397 12.1116 71.4353 29.7602 78.3105 44.6585C88.8736 67.5477 126.084 77.2838 126.084 77.2838C126.084 77.2838 142.82 42.652 132.257 19.7628C125.383 4.86439 107.735 -1.63868 92.8366 5.23652ZM111.017 44.6289C105.3 47.2666 98.5275 44.7714 95.8885 39.0552C93.2508 33.3388 95.746 26.5662 101.462 23.9271C107.179 21.2894 113.951 23.7847 116.59 29.5009C119.228 35.2173 116.733 41.9899 111.017 44.6289Z" fill="#FFC500"/>
<path d="M126.307 79.3422C126.062 79.3686 125.81 79.3513 125.56 79.2867C125.171 79.1856 115.927 76.7366 105.234 71.4072C98.9236 68.262 93.4302 64.7616 88.908 61.0048C83.1678 56.2364 78.9694 51.029 76.4298 45.5257C72.8725 37.8179 72.5303 29.1876 75.4649 21.2228C78.3995 13.258 84.2611 6.91202 91.9676 3.35629C99.6754 -0.200952 108.306 -0.543216 116.271 2.39138C124.235 5.32598 130.581 11.1876 134.137 18.8941C136.677 24.3974 137.915 30.9722 137.82 38.4329C137.744 44.3119 136.842 50.7637 135.142 57.6059C132.259 69.2007 128.123 77.8233 127.948 78.1839C127.629 78.8436 126.999 79.2674 126.305 79.3423L126.307 79.3422ZM93.705 7.11809C79.8694 13.5034 73.8065 29.954 80.1917 43.7897C85.387 55.0463 97.6435 62.9851 107.011 67.6644C114.731 71.5201 121.818 73.8549 124.936 74.7975C126.243 71.8139 129.064 64.9047 131.14 56.5297C133.659 46.3662 135.57 31.8882 130.377 20.6314C123.991 6.79575 107.541 0.732809 93.705 7.11809ZM107.697 47.6716C102.103 48.2762 96.4915 45.3067 94.0064 39.9226C92.4989 36.6555 92.3535 32.9967 93.5973 29.6198C94.8411 26.243 97.3261 23.553 100.593 22.0455C103.86 20.538 107.519 20.3926 110.896 21.6364C114.273 22.8802 116.963 25.3652 118.47 28.6322C121.583 35.3767 118.628 43.3965 111.883 46.5093C110.523 47.137 109.11 47.5175 107.697 47.6702L107.697 47.6716ZM105.245 24.9977C104.25 25.1053 103.267 25.3754 102.331 25.8073C100.068 26.852 98.3477 28.7133 97.4862 31.0514C96.6248 33.3895 96.7248 35.9223 97.7696 38.185C99.9246 42.8547 105.478 44.901 110.149 42.7458C114.818 40.5908 116.865 35.0378 114.71 30.3681C113.666 28.1053 111.804 26.3853 109.465 25.5238C108.095 25.019 106.657 24.8438 105.246 24.9962L105.245 24.9977Z" fill="#4100E3"/>
<path d="M51.217 26.3829L36.9715 54.1377L29.3805 50.2428C26.3861 48.7055 25.2052 45.033 26.7425 42.0386L35.4246 25.1246C36.9618 22.1303 40.6357 20.9493 43.6274 22.4866L51.2183 26.3815L51.217 26.3829Z" fill="#EAEAFF"/>
<path d="M36.97 56.2091C36.6509 56.2091 36.3291 56.1359 36.0252 55.9799L28.4343 52.0849C26.4937 51.0891 25.0573 49.3972 24.3888 47.3212C23.7217 45.2453 23.9026 43.0327 24.8984 41.0921L33.5805 24.1796C34.5764 22.239 36.2697 20.8026 38.3456 20.1355C40.4229 19.467 42.6342 19.6493 44.5733 20.6451L52.1629 24.5401C52.6519 24.7914 53.0206 25.2251 53.1891 25.7486C53.3577 26.2721 53.3107 26.8397 53.0607 27.3287L38.8138 55.0835C38.4464 55.7989 37.7213 56.2091 36.9686 56.2091H36.97ZM40.8483 23.884C40.434 23.884 40.0196 23.9489 39.6135 24.0787C38.5901 24.4075 37.7572 25.1146 37.2655 26.0718L28.5834 42.9843C28.0931 43.9401 28.0033 45.0299 28.3321 46.0519C28.6608 47.074 29.3679 47.9082 30.3237 48.3986L36.0708 51.3474L48.4255 27.2789L42.6784 24.3301C42.101 24.0332 41.4767 23.884 40.8469 23.884H40.8483Z" fill="#6E6BE8"/>
<path d="M72.0384 16.7762L41.303 76.6545L33.0615 72.4253C30.6665 71.1961 29.7218 68.2569 30.951 65.8619L57.2349 14.6561C58.4669 12.2598 61.4033 11.315 63.7983 12.5457L72.037 16.7762H72.0384Z" fill="#EAEAFF"/>
<path d="M41.3016 78.7264C40.9826 78.7264 40.6608 78.6532 40.3569 78.4971L32.1154 74.268C28.7081 72.518 27.3586 68.3234 29.1072 64.916L55.3924 13.7101C57.1452 10.3028 61.3398 8.95337 64.7458 10.7019L72.9845 14.9325C74.0025 15.4546 74.4044 16.7032 73.8809 17.7211L43.1455 77.5994C42.7781 78.3148 42.053 78.725 41.3003 78.725L41.3016 78.7264ZM61.5787 14.0803C60.5608 14.0803 59.576 14.6369 59.0788 15.6037L32.795 66.8082C32.0892 68.1825 32.6347 69.8758 34.009 70.5816L40.4066 73.8647L69.2484 17.6728L62.8522 14.3883C62.4447 14.1784 62.0083 14.0789 61.5774 14.0789L61.5787 14.0803Z" fill="#6E6BE8"/>
<path d="M102.013 134.559H63.5034C56.7715 134.559 51.3145 129.102 51.3145 122.371V57.1465H114.198V122.371C114.198 129.102 108.743 134.559 102.012 134.559H102.013Z" fill="white"/>
<path d="M102.014 136.631H63.5038C55.6408 136.631 49.2432 130.235 49.2432 122.372V57.147C49.2432 56.0033 50.1713 55.0752 51.3149 55.0752H114.199C115.342 55.0752 116.27 56.0033 116.27 57.147V122.372C116.27 130.233 109.874 136.631 102.013 136.631H102.014ZM53.3881 59.2187V122.372C53.3881 127.949 57.9266 132.488 63.5052 132.488H102.015C107.592 132.488 112.13 127.95 112.13 122.372V59.2187H53.3895H53.3881Z" fill="#6E6BE8"/>
<path d="M66.4927 119.814C65.3491 119.814 64.4209 118.885 64.4209 117.742V73.9653C64.4209 72.8217 65.3491 71.8936 66.4927 71.8936C67.6363 71.8936 68.5644 72.8217 68.5644 73.9653V117.742C68.5644 118.885 67.6363 119.814 66.4927 119.814Z" fill="#6E6BE8"/>
<path d="M82.7593 119.814C81.6157 119.814 80.6875 118.885 80.6875 117.742V73.9653C80.6875 72.8217 81.6157 71.8936 82.7593 71.8936C83.9029 71.8936 84.831 72.8217 84.831 73.9653V117.742C84.831 118.885 83.9029 119.814 82.7593 119.814Z" fill="#6E6BE8"/>
<path d="M99.0259 119.814C97.8823 119.814 96.9541 118.885 96.9541 117.742V73.9653C96.9541 72.8217 97.8823 71.8936 99.0259 71.8936C100.169 71.8936 101.098 72.8217 101.098 73.9653V117.742C101.098 118.885 100.169 119.814 99.0259 119.814Z" fill="#6E6BE8"/>
<path d="M38.2149 100.235L20.7016 128.679C17.2293 134.318 21.2872 141.581 27.9086 141.581H62.5375C69.1603 141.581 73.2168 134.318 69.7445 128.679L52.2312 100.235C49.0171 95.0141 41.4276 95.0141 38.2136 100.235H38.2149Z" fill="#FFC500"/>
<path d="M62.5382 143.652H27.9092C24.0378 143.652 20.6 141.634 18.712 138.254C16.8239 134.874 16.9082 130.888 18.9385 127.593L36.4518 99.1489C38.3413 96.0799 41.6216 94.2471 45.2251 94.2471C48.8286 94.2471 52.1089 96.0799 53.9983 99.1489L71.5117 127.593C73.5407 130.89 73.6263 134.876 71.7382 138.254C69.8501 141.634 66.4124 143.652 62.5409 143.652H62.5382ZM45.2237 98.3906C43.0691 98.3906 41.1092 99.4859 39.9794 101.32L22.466 129.764C21.234 131.764 21.1829 134.183 22.3293 136.232C23.4743 138.283 25.5612 139.507 27.9092 139.507H62.5382C64.8862 139.507 66.9731 138.283 68.1181 136.232C69.2631 134.181 69.212 131.764 67.9814 129.763L50.4681 101.319C49.3382 99.4845 47.377 98.3892 45.2237 98.3892V98.3906Z" fill="#4100E3"/>
<path d="M45.2241 126.615C44.0805 126.615 43.1523 125.687 43.1523 124.544V108.249C43.1523 107.105 44.0805 106.177 45.2241 106.177C46.3677 106.177 47.2959 107.105 47.2959 108.249V124.544C47.2959 125.687 46.3677 126.615 45.2241 126.615Z" fill="#4100E3"/>
<path d="M45.2242 133.928C43.8306 133.928 42.7021 132.799 42.7021 131.406V131.238C42.7021 129.844 43.832 128.716 45.2242 128.716C46.6164 128.716 47.7462 129.846 47.7462 131.238V131.406C47.7462 132.8 46.6164 133.928 45.2242 133.928Z" fill="#4100E3"/>
</g>
</g>
<defs>
<clipPath id="clip0_3381_6157">
<rect width="160" height="143.304" fill="white" transform="translate(0 0.347656)"/>
</clipPath>
<clipPath id="clip1_3381_6157">
<rect width="160" height="143.304" fill="white" transform="translate(0 0.347656)"/>
</clipPath>
</defs>
</svg>
