<svg width="25" height="25" viewBox="0 0 25 25" fill="none" xmlns="http://www.w3.org/2000/svg">
<path d="M1.5 4.88501C1.5 4.08936 1.81607 3.3263 2.37868 2.76369C2.94129 2.20108 3.70435 1.88501 4.5 1.88501H7.5C8.29565 1.88501 9.05871 2.20108 9.62132 2.76369C10.1839 3.3263 10.5 4.08936 10.5 4.88501V7.88501C10.5 8.68066 10.1839 9.44372 9.62132 10.0063C9.05871 10.5689 8.29565 10.885 7.5 10.885H4.5C3.70435 10.885 2.94129 10.5689 2.37868 10.0063C1.81607 9.44372 1.5 8.68066 1.5 7.88501V4.88501ZM1.5 17.885C1.5 17.0894 1.81607 16.3263 2.37868 15.7637C2.94129 15.2011 3.70435 14.885 4.5 14.885H7.5C8.29565 14.885 9.05871 15.2011 9.62132 15.7637C10.1839 16.3263 10.5 17.0894 10.5 17.885V20.885C10.5 21.6807 10.1839 22.4437 9.62132 23.0063C9.05871 23.5689 8.29565 23.885 7.5 23.885H4.5C3.70435 23.885 2.94129 23.5689 2.37868 23.0063C1.81607 22.4437 1.5 21.6807 1.5 20.885V17.885ZM14.5 4.88501C14.5 4.08936 14.8161 3.3263 15.3787 2.76369C15.9413 2.20108 16.7044 1.88501 17.5 1.88501H20.5C21.2957 1.88501 22.0587 2.20108 22.6213 2.76369C23.1839 3.3263 23.5 4.08936 23.5 4.88501V7.88501C23.5 8.68066 23.1839 9.44372 22.6213 10.0063C22.0587 10.5689 21.2957 10.885 20.5 10.885H17.5C16.7044 10.885 15.9413 10.5689 15.3787 10.0063C14.8161 9.44372 14.5 8.68066 14.5 7.88501V4.88501ZM14.5 17.885C14.5 17.0894 14.8161 16.3263 15.3787 15.7637C15.9413 15.2011 16.7044 14.885 17.5 14.885H20.5C21.2957 14.885 22.0587 15.2011 22.6213 15.7637C23.1839 16.3263 23.5 17.0894 23.5 17.885V20.885C23.5 21.6807 23.1839 22.4437 22.6213 23.0063C22.0587 23.5689 21.2957 23.885 20.5 23.885H17.5C16.7044 23.885 15.9413 23.5689 15.3787 23.0063C14.8161 22.4437 14.5 21.6807 14.5 20.885V17.885Z" stroke="#8F9098" stroke-width="2" stroke-linecap="round" stroke-linejoin="round"/>
</svg>
