<svg width="20" height="21" viewBox="0 0 20 21" fill="none" xmlns="http://www.w3.org/2000/svg">
<path fill-rule="evenodd" clip-rule="evenodd" d="M12.0348 1.19589C12.4048 0.929917 12.9247 0.80593 13.4356 0.992911C14.5218 1.39104 15.5307 1.97463 16.4173 2.71773C16.8343 3.0677 16.9873 3.57864 16.9413 4.0306C16.8663 4.78352 16.9983 5.51045 17.3612 6.13638C17.6812 6.69332 18.1632 7.13328 18.7511 7.44325L18.9761 7.55324C19.39 7.74022 19.758 8.12918 19.851 8.66612C20.0497 9.80406 20.0497 10.9678 19.851 12.1058C19.768 12.5897 19.461 12.9527 19.0981 13.1567L18.9761 13.2197C18.2861 13.5296 17.7222 14.0096 17.3602 14.6355C16.9983 15.2624 16.8663 15.9884 16.9413 16.7413C16.9863 17.1932 16.8343 17.7052 16.4173 18.0542C15.5307 18.7973 14.5218 19.3809 13.4356 19.779C13.2035 19.862 12.9545 19.8869 12.7105 19.8516C12.4665 19.8162 12.2348 19.7216 12.0358 19.576C11.4199 19.135 10.7229 18.8851 10 18.8851C9.27708 18.8851 8.58015 19.134 7.96521 19.576C7.76608 19.7217 7.53426 19.8164 7.29004 19.8518C7.04583 19.8872 6.79666 19.8622 6.56435 19.779C5.47816 19.3809 4.4693 18.7973 3.58266 18.0542C3.39483 17.8947 3.24889 17.6917 3.15756 17.4628C3.06623 17.234 3.03229 16.9863 3.05872 16.7413C3.13371 15.9884 3.00072 15.2614 2.63876 14.6355C2.3097 14.0762 1.82743 13.6227 1.2489 13.3286L1.02392 13.2187C0.798245 13.1188 0.600485 12.9651 0.447959 12.7711C0.295433 12.5771 0.19279 12.3486 0.149015 12.1058C-0.0496717 10.9678 -0.0496717 9.80406 0.149015 8.66612C0.232007 8.18217 0.538975 7.81921 0.901938 7.61523L1.02392 7.55324C1.71385 7.24227 2.2778 6.76332 2.63976 6.13638C3.00072 5.51045 3.13371 4.78352 3.05872 4.0306C3.03229 3.78562 3.06623 3.53791 3.15756 3.30906C3.24889 3.08022 3.39483 2.8772 3.58266 2.71773C4.4693 1.97463 5.47816 1.39104 6.56435 0.992911C6.79652 0.909866 7.0455 0.884946 7.28952 0.92033C7.53355 0.955713 7.76519 1.05032 7.96421 1.19589C8.57915 1.63784 9.27608 1.88682 10 1.88682C10.7239 1.88682 11.4199 1.63784 12.0348 1.19589ZM12.9917 2.96471C12.1258 3.53465 11.1049 3.88661 10 3.88661C8.89511 3.88661 7.87422 3.53365 7.00831 2.96471C6.31227 3.2458 5.65927 3.62347 5.06851 4.08659C5.1285 5.11949 4.92352 6.17938 4.37158 7.13628C3.81864 8.09218 3.00372 8.79911 2.07882 9.26406C1.97359 10.0076 1.97359 10.7623 2.07882 11.5058C3.00372 11.9708 3.81864 12.6777 4.37158 13.6356C4.92352 14.5905 5.1285 15.6504 5.06851 16.6833C5.65921 17.1468 6.31221 17.5248 7.00831 17.8062C7.87422 17.2362 8.89511 16.8843 10 16.8843C11.1049 16.8843 12.1258 17.2372 12.9917 17.8062C13.6877 17.5251 14.3407 17.1474 14.9315 16.6843C14.8715 15.6504 15.0765 14.5905 15.6284 13.6346C16.1804 12.6777 16.9963 11.9708 17.9212 11.5048C18.0262 10.7619 18.0262 10.008 17.9212 9.26506C16.9963 8.79911 16.1814 8.09218 15.6284 7.13528C15.0765 6.17938 14.8715 5.11949 14.9315 4.08559C14.3407 3.62247 13.6877 3.2458 12.9917 2.96471ZM10 6.38636C11.0608 6.38636 12.0781 6.80774 12.8281 7.55781C13.5782 8.30788 13.9996 9.32519 13.9996 10.3859C13.9996 11.4467 13.5782 12.464 12.8281 13.2141C12.0781 13.9641 11.0608 14.3855 10 14.3855C8.93924 14.3855 7.92193 13.9641 7.17186 13.2141C6.4218 12.464 6.00041 11.4467 6.00041 10.3859C6.00041 9.32519 6.4218 8.30788 7.17186 7.55781C7.92193 6.80774 8.93924 6.38636 10 6.38636ZM10 8.38615C9.46962 8.38615 8.96097 8.59684 8.58593 8.97188C8.2109 9.34691 8.00021 9.85557 8.00021 10.3859C8.00021 10.9163 8.2109 11.425 8.58593 11.8C8.96097 12.175 9.46962 12.3857 10 12.3857C10.5304 12.3857 11.039 12.175 11.4141 11.8C11.7891 11.425 11.9998 10.9163 11.9998 10.3859C11.9998 9.85557 11.7891 9.34691 11.4141 8.97188C11.039 8.59684 10.5304 8.38615 10 8.38615Z" fill="white"/>
</svg>
