<svg width="20" height="20" viewBox="0 0 20 20" fill="none" xmlns="http://www.w3.org/2000/svg">
<g clip-path="url(#clip0_3458_1982)">
<g clip-path="url(#clip1_3458_1982)">
<path fill-rule="evenodd" clip-rule="evenodd" d="M18.0996 12.6987C18.5967 12.6987 18.9996 13.1017 18.9996 13.5987V15.3987C18.9996 16.5901 18.5277 17.7374 17.683 18.5821C16.8383 19.4269 15.6909 19.8987 14.4996 19.8987H9.99961C9.50255 19.8987 9.09961 19.4958 9.09961 18.9987C9.09961 18.5017 9.50255 18.0987 9.99961 18.0987H14.4996C15.2163 18.0987 15.905 17.8146 16.4102 17.3093C16.9155 16.8041 17.1996 16.1154 17.1996 15.3987V13.5987C17.1996 13.1017 17.6026 12.6987 18.0996 12.6987Z" fill="#FFC500"/>
<path fill-rule="evenodd" clip-rule="evenodd" d="M10 1.89863C9.05984 1.89863 8.12329 2.08994 7.24744 2.45153C6.37699 2.81089 5.58618 3.33774 4.9143 4.00912C4.24598 4.68598 3.71076 5.47925 3.35289 6.34608L3.35021 6.35257L3.35019 6.35256C3.10105 6.94291 2.93615 7.56405 2.85625 8.19863H4.6C5.31189 8.19863 6.00343 8.47997 6.50962 8.99747C7.01413 9.50414 7.3 10.1798 7.3 10.8986V13.5986C7.3 14.3105 7.01869 15.002 6.50124 15.5082C5.99456 16.0127 5.31883 16.2986 4.6 16.2986H3.7C2.98814 16.2986 2.29662 16.0173 1.79044 15.4999C1.28589 14.9932 1 14.3175 1 13.5986V9.09863C1 7.92092 1.22935 6.74978 1.69045 5.65595C2.14223 4.56288 2.81183 3.57596 3.6358 2.74206L3.63959 2.73823L3.6396 2.73824C4.47932 1.89853 5.46984 1.23804 6.56056 0.787739C7.64671 0.339326 8.81616 0.0986328 10 0.0986328C11.1777 0.0986328 12.3489 0.32799 13.4427 0.789096C14.5358 1.24088 15.5227 1.91047 16.3566 2.73444L16.3604 2.73823L16.3604 2.73824C17.2001 3.57795 17.8606 4.56847 18.3109 5.65919C18.7593 6.74535 19 7.9148 19 9.09863V13.5986C19 14.3105 18.7187 15.002 18.2013 15.5081C17.6946 16.0127 17.0189 16.2986 16.3 16.2986H15.4C14.6881 16.2986 13.9966 16.0173 13.4905 15.4999C12.9859 14.9932 12.7 14.3175 12.7 13.5986V10.8986C12.7 10.1868 12.9813 9.49522 13.4988 8.98904C14.0055 8.48451 14.6812 8.19863 15.4 8.19863H17.1419C17.0601 7.56502 16.8929 6.94152 16.6471 6.34608C16.2877 5.47562 15.7609 4.68481 15.0895 4.01294C14.4127 3.34461 13.6194 2.80939 12.7526 2.45153L12.7461 2.44884L12.7461 2.44882C11.8788 2.08283 10.9451 1.89863 10 1.89863ZM17.2 9.99863H15.4C15.1668 9.99863 14.9443 10.0892 14.7674 10.266L14.7589 10.2745L14.7589 10.2745C14.5951 10.4339 14.5 10.6585 14.5 10.8986V13.5986C14.5 13.8318 14.5905 14.0544 14.7674 14.2312L14.7759 14.2397L14.7758 14.2398C14.9353 14.4035 15.1599 14.4986 15.4 14.4986H16.3C16.5332 14.4986 16.7557 14.4081 16.9326 14.2312L16.9411 14.2228L16.9411 14.2228C17.1049 14.0634 17.2 13.8388 17.2 13.5986V9.99863ZM2.8 9.99863V13.5986C2.8 13.8318 2.89053 14.0544 3.0674 14.2312L3.07588 14.2397L3.07582 14.2398C3.23527 14.4035 3.45987 14.4986 3.7 14.4986H4.6C4.8332 14.4986 5.05574 14.4081 5.2326 14.2312L5.24109 14.2228L5.24114 14.2228C5.4049 14.0634 5.5 13.8388 5.5 13.5986V10.8986C5.5 10.6654 5.40947 10.4429 5.2326 10.266L5.22412 10.2575L5.22418 10.2575C5.06473 10.0937 4.84013 9.99863 4.6 9.99863H2.8Z" fill="#4100E3"/>
</g>
</g>
<defs>
<clipPath id="clip0_3458_1982">
<rect width="20" height="19.9997" fill="white"/>
</clipPath>
<clipPath id="clip1_3458_1982">
<rect width="18" height="19.8" fill="white" transform="translate(1 0.0986328)"/>
</clipPath>
</defs>
</svg>
