<svg width="16" height="16" viewBox="0 0 16 16" fill="none" xmlns="http://www.w3.org/2000/svg">
<path d="M7.66667 16.0002C7.38 16.0002 7.1 15.9202 6.86 15.7668C6.62 15.6202 6.42 15.4002 6.29333 15.1468L5.50667 13.5735C3.85333 13.5535 2.74667 13.4668 1.85333 12.8735C1.39333 12.5668 1.00667 12.1802 0.7 11.7202C0 10.6668 0 9.36684 0 6.78017C0 4.1935 0 2.90017 0.7 1.8535C1.00667 1.3935 1.39333 1.00684 1.84667 0.706836C2.9 0.00683594 4.2 0.00683594 6.78667 0.00683594H8.53333C11.12 0.00683594 12.42 0.00683594 13.4733 0.706836C13.9267 1.0135 14.3133 1.40017 14.62 1.8535C15.32 2.90684 15.32 4.20684 15.32 6.7935C15.32 9.38017 15.32 10.6802 14.62 11.7335C14.3133 12.1935 13.9267 12.5802 13.4733 12.8802C12.5867 13.4735 11.48 13.5602 9.82 13.5802L9.03333 15.1468C8.90667 15.4002 8.70667 15.6202 8.46667 15.7668C8.22 15.9202 7.94 16.0002 7.66 16.0002H7.66667ZM6.79333 1.3335C4.47333 1.3335 3.30667 1.3335 2.59333 1.8135C2.28 2.02017 2.02 2.28684 1.81333 2.5935C1.33333 3.30684 1.33333 4.4735 1.33333 6.7935C1.33333 9.1135 1.33333 10.2802 1.81333 10.9935C2.02 11.3068 2.28667 11.5668 2.59333 11.7735C3.19333 12.1735 4.06667 12.2402 5.92 12.2468C6.17333 12.2468 6.4 12.3935 6.51333 12.6135L7.48 14.5468C7.5 14.5802 7.52 14.6068 7.55333 14.6268C7.62 14.6668 7.70667 14.6668 7.77333 14.6268C7.80667 14.6068 7.83333 14.5802 7.84667 14.5468L8.81333 12.6068C8.92667 12.3802 9.15333 12.2402 9.40667 12.2402C11.26 12.2335 12.1333 12.1668 12.7333 11.7668C13.0467 11.5602 13.3067 11.2935 13.5133 10.9868C13.9933 10.2735 13.9933 9.10684 13.9933 6.78684C13.9933 4.46684 13.9933 3.30017 13.5133 2.58684C13.3067 2.2735 13.04 2.0135 12.7333 1.80684C12.02 1.32684 10.8533 1.32684 8.53333 1.32684H6.78667L6.79333 1.3335Z" fill="#4100E3"/>
<path d="M5.03971 9.20638H7.66638C8.03305 9.20638 8.33305 8.90638 8.33305 8.53971C8.33305 8.17305 8.03305 7.87305 7.66638 7.87305H5.03971C4.67305 7.87305 4.37305 8.17305 4.37305 8.53971C4.37305 8.90638 4.67305 9.20638 5.03971 9.20638Z" fill="#FFC500"/>
<path d="M5.03971 5.70638H10.293C10.6597 5.70638 10.9597 5.40638 10.9597 5.03971C10.9597 4.67305 10.6597 4.37305 10.293 4.37305H5.03971C4.67305 4.37305 4.37305 4.67305 4.37305 5.03971C4.37305 5.40638 4.67305 5.70638 5.03971 5.70638Z" fill="#FFC500"/>
</svg>
