<svg width="20" height="20" viewBox="0 0 20 20" fill="none" xmlns="http://www.w3.org/2000/svg">
<g clip-path="url(#clip0_3458_2023)">
<g clip-path="url(#clip1_3458_2023)">
<path d="M8.07143 10.7104C7.88144 10.5204 7.63363 10.4213 7.3693 10.4213C7.10496 10.4213 6.85715 10.5204 6.66716 10.7104C6.27892 11.0986 6.27892 11.7264 6.66716 12.1147L8.9966 14.4441C9.21138 14.6589 9.50049 14.7663 9.78135 14.7663C10.0622 14.7663 10.3513 14.6589 10.5661 14.4441L14.3411 10.6691C14.5311 10.4791 14.6302 10.2313 14.6302 9.96695C14.6302 9.70262 14.5311 9.4548 14.3411 9.26481C13.9529 8.87657 13.3251 8.87657 12.9368 9.26481L9.78135 12.4203L8.07143 10.7104Z" fill="#FFC500"/>
<path d="M13.3581 0.137207H5.66764C3.64383 0.137207 2 1.78104 2 3.80485V16.1873C2 18.2111 3.64383 19.8549 5.66764 19.8549H15.3241C17.3479 19.8549 18.9917 18.2111 18.9917 16.1873V5.77909L13.3581 0.137207ZM17.0092 7.57987V16.1212C17.0092 17.0876 16.2245 17.8806 15.2498 17.8806H5.74198C4.77551 17.8806 3.98251 17.0959 3.98251 16.1212V3.87919C3.98251 2.91272 4.77551 2.11971 5.74198 2.11971H11.5573V7.57987H17.0175H17.0092ZM13.5398 5.59736V3.12749L16.0097 5.59736H13.5398Z" fill="#4100E3"/>
</g>
</g>
<defs>
<clipPath id="clip0_3458_2023">
<rect width="20" height="19.9997" fill="white"/>
</clipPath>
<clipPath id="clip1_3458_2023">
<rect width="17" height="19.7259" fill="white" transform="translate(2 0.137207)"/>
</clipPath>
</defs>
</svg>
