<svg xmlns="http://www.w3.org/2000/svg" width="25.722" height="26.563" viewBox="0 0 25.722 26.563">
  <g id="termofuse" transform="translate(0 -0.001)">
    <g id="Group_331" data-name="Group 331" transform="translate(0 0.001)">
      <path id="Path_563" data-name="Path 563" d="M12.869,0A12.853,12.853,0,1,1,9.939,25.37a12.76,12.76,0,0,1-2.53-.88L0,26.564l2.047-6.779A12.851,12.851,0,0,1,12.869,0m8.118,4.735A11.482,11.482,0,0,0,3.362,19.3l.185.272-1.511,5L7.541,23.03l.235.116A11.482,11.482,0,0,0,20.987,4.736" transform="translate(0 -0.001)" fill="#4100e3"/>
      <path id="Path_564" data-name="Path 564" d="M415.9,398.844h4.114v-1.6h-.525a.526.526,0,0,1-.525-.525v-7.539H416v1.6h.427a.526.526,0,0,1,.525.525v5.416a.526.526,0,0,1-.525.525H415.9Z" transform="translate(-405.09 -379.065)" fill="#ffc500" fill-rule="evenodd"/>
      <path id="Path_565" data-name="Path 565" d="M431.7,227.986a1.494,1.494,0,1,1-1.494,1.494,1.494,1.494,0,0,1,1.494-1.494" transform="translate(-419.026 -222.059)" fill="#ffc500" fill-rule="evenodd"/>
    </g>
  </g>
</svg>
