<svg width="16" height="16" viewBox="0 0 16 16" fill="none" xmlns="http://www.w3.org/2000/svg">
<path d="M8 0C12.4184 0 16 3.5816 16 8C16 12.4184 12.4184 16 8 16C3.5816 16 0 12.4184 0 8C0 3.5816 3.5816 0 8 0ZM8 1.6C6.30261 1.6 4.67475 2.27428 3.47452 3.47452C2.27428 4.67475 1.6 6.30261 1.6 8C1.6 9.69739 2.27428 11.3253 3.47452 12.5255C4.67475 13.7257 6.30261 14.4 8 14.4C9.69739 14.4 11.3253 13.7257 12.5255 12.5255C13.7257 11.3253 14.4 9.69739 14.4 8C14.4 6.30261 13.7257 4.67475 12.5255 3.47452C11.3253 2.27428 9.69739 1.6 8 1.6Z" fill="#4100E3"/>
<path d="M8.53121 3.40212C8.38478 3.27192 8.19565 3.19998 7.99971 3.19995C7.78753 3.19995 7.58405 3.28424 7.43402 3.43427C7.28399 3.58429 7.19971 3.78778 7.19971 3.99995V7.99995L7.20691 8.10475C7.22992 8.27915 7.30977 8.44111 7.43411 8.56555L9.83411 10.9656L9.90931 11.032C10.0701 11.1563 10.2722 11.2147 10.4745 11.1955C10.6769 11.1762 10.8643 11.0806 10.9987 10.9282C11.1331 10.7757 11.2045 10.5778 11.1983 10.3747C11.1921 10.1715 11.1088 9.97832 10.9653 9.83435L8.79971 7.66875V3.99995L8.79411 3.90635C8.77118 3.71175 8.67763 3.53233 8.53121 3.40212Z" fill="#FFC500"/>
</svg>
