<svg width="20" height="21" viewBox="0 0 20 21" fill="none" xmlns="http://www.w3.org/2000/svg">
<path fill-rule="evenodd" clip-rule="evenodd" d="M2.87389 7.48434C2.87389 5.52993 3.65029 3.65557 5.03228 2.27359C6.41428 0.89162 8.28867 0.115234 10.2431 0.115234C12.1975 0.115234 14.0719 0.89162 15.4539 2.27359C16.8359 3.65557 17.6123 5.52993 17.6123 7.48434V11.4468L19.5304 15.283C19.6187 15.4595 19.6604 15.6557 19.6515 15.8529C19.6427 16.0501 19.5835 16.2418 19.4797 16.4097C19.3759 16.5777 19.231 16.7163 19.0585 16.8124C18.8861 16.9085 18.6919 16.9589 18.4945 16.9589H14.3214C14.0873 17.8624 13.5597 18.6625 12.8216 19.2338C12.0834 19.805 11.1765 20.1149 10.2431 20.1149C9.30974 20.1149 8.40281 19.805 7.66466 19.2338C6.92651 18.6625 6.39894 17.8624 6.16477 16.9589H1.99169C1.79427 16.9589 1.60013 16.9085 1.4277 16.8124C1.25526 16.7163 1.11026 16.5777 1.00647 16.4097C0.902677 16.2418 0.843537 16.0501 0.834666 15.8529C0.825795 15.6557 0.867488 15.4595 0.955786 15.283L2.87389 11.4468V7.48434ZM8.41975 16.9589C8.60455 17.2789 8.87034 17.5447 9.19041 17.7295C9.51047 17.9143 9.87353 18.0115 10.2431 18.0115C10.6127 18.0115 10.9757 17.9143 11.2958 17.7295C11.6159 17.5447 11.8817 17.2789 12.0665 16.9589H8.41975ZM10.2431 2.22069C8.84708 2.22069 7.50823 2.77525 6.52109 3.76238C5.53395 4.7495 4.97938 6.08833 4.97938 7.48434V11.4468C4.97936 11.7735 4.90331 12.0957 4.75725 12.3879L3.52554 14.8534H16.9617L15.73 12.3879C15.5836 12.0958 15.5072 11.7736 15.5068 11.4468V7.48434C15.5068 6.08833 14.9523 4.7495 13.9651 3.76238C12.978 2.77525 11.6391 2.22069 10.2431 2.22069Z" fill="white"/>
</svg>
