<svg width="20" height="21" viewBox="0 0 20 21" fill="none" xmlns="http://www.w3.org/2000/svg">
<path d="M10.4999 0.115234C8.54567 0.115234 6.67149 0.891548 5.28964 2.27339C3.90779 3.65524 3.13148 5.52943 3.13148 7.48366V11.1973C3.13163 11.3606 3.09379 11.5217 3.02095 11.6679L1.21359 15.2816C1.1253 15.4581 1.08361 15.6543 1.09248 15.8515C1.10135 16.0487 1.16048 16.2403 1.26426 16.4082C1.36805 16.5761 1.51303 16.7147 1.68545 16.8108C1.85786 16.9069 2.05198 16.9574 2.24937 16.9573H18.7504C18.9478 16.9574 19.1419 16.9069 19.3144 16.8108C19.4868 16.7147 19.6318 16.5761 19.7355 16.4082C19.8393 16.2403 19.8985 16.0487 19.9073 15.8515C19.9162 15.6543 19.8745 15.4581 19.7862 15.2816L17.9799 11.6679C17.9067 11.5218 17.8685 11.3607 17.8683 11.1973V7.48366C17.8683 5.52943 17.092 3.65524 15.7102 2.27339C14.3283 0.891548 12.4541 0.115234 10.4999 0.115234ZM10.4999 20.1152C9.84658 20.1156 9.20924 19.9133 8.67571 19.5362C8.14218 19.1592 7.73873 18.6259 7.52095 18.01H13.4788C13.2611 18.6259 12.8576 19.1592 12.3241 19.5362C11.7906 19.9133 11.1532 20.1156 10.4999 20.1152Z" fill="#FFC500"/>
</svg>
