<svg xmlns="http://www.w3.org/2000/svg" xmlns:xlink="http://www.w3.org/1999/xlink" width="25.143" height="15.28" viewBox="0 0 25.143 15.28">
  <defs>
    <clipPath id="clip-path">
      <rect id="Rectangle_38" data-name="Rectangle 38" width="25.143" height="15.28" transform="translate(0 0)" fill="#9e9ab7"/>
    </clipPath>
  </defs>
  <g id="back" transform="translate(0 0)">
    <g id="Group_23" data-name="Group 23" transform="translate(0 0)" clip-path="url(#clip-path)">
      <path id="Path_47" data-name="Path 47" d="M23.855,6.352H4.4L8.552,2.2A1.289,1.289,0,0,0,6.729.377L.376,6.729a1.287,1.287,0,0,0-.218.292l0,.006c-.017.031-.031.062-.045.094L.1,7.143c-.012.029-.023.059-.033.089,0,.01-.008.02-.011.031-.009.029-.016.059-.023.089,0,.012-.006.023-.008.034-.007.035-.012.069-.016.1,0,.007,0,.014,0,.021a1.3,1.3,0,0,0,0,.26c0,.007,0,.014,0,.021,0,.035.009.07.016.1,0,.012.006.023.008.034.007.03.014.06.023.089,0,.01.007.021.011.031.01.03.02.06.033.089l.01.021c.014.032.029.063.045.094l0,.006a1.293,1.293,0,0,0,.218.292L6.729,14.9a1.289,1.289,0,0,0,1.823-1.823L4.4,8.929H23.855a1.288,1.288,0,0,0,0-2.577" transform="translate(0 0)" fill="#9e9ab7"/>
    </g>
  </g>
</svg>
