<svg id="chat-new" xmlns="http://www.w3.org/2000/svg" xmlns:xlink="http://www.w3.org/1999/xlink" width="27.501" height="23.583" viewBox="0 0 27.501 23.583">
  <defs>
    <clipPath id="clip-path">
      <rect id="Rectangle_28" data-name="Rectangle 28" width="27.501" height="23.583" fill="#190c39"/>
    </clipPath>
  </defs>
  <g id="Group_18" data-name="Group 18" clip-path="url(#clip-path)">
    <path id="Path_44" data-name="Path 44" d="M27.5,14.558c0-.006,0-.013,0-.019s0-.011,0-.017-.005-.041-.01-.061L24.739,1.411A1.785,1.785,0,0,0,23,0H4.5A1.785,1.785,0,0,0,2.762,1.411L.016,14.462c0,.02-.007.04-.01.061s0,.011,0,.017,0,.013,0,.019,0,.04,0,.059H0V22.83a.753.753,0,0,0,.754.753H26.748a.753.753,0,0,0,.754-.753V14.617h0c0-.02,0-.039,0-.059M4.237,1.722A.271.271,0,0,1,4.5,1.507H23a.271.271,0,0,1,.265.215L25.82,13.864H17.782a.753.753,0,0,0-.753.753,3.278,3.278,0,0,1-6.555,0,.753.753,0,0,0-.753-.753H1.682Z" fill="#190c39"/>
  </g>
</svg>
