<svg xmlns="http://www.w3.org/2000/svg" xmlns:xlink="http://www.w3.org/1999/xlink" width="26.37" height="22.289" viewBox="0 0 26.37 22.289">
  <defs>
    <clipPath id="clip-path">
      <rect id="Rectangle_173" data-name="Rectangle 173" width="26.37" height="22.289" fill="#190c39"/>
    </clipPath>
  </defs>
  <g id="chat" transform="translate(0 0)">
    <g id="Group_182" data-name="Group 182" transform="translate(0 0)" clip-path="url(#clip-path)">
      <path id="Path_379" data-name="Path 379" d="M20.168,8.092C20.168,3.633,15.638,0,10.081,0S0,3.633,0,8.092a7.359,7.359,0,0,0,3.139,5.877L3.3,19.147l4.275-3.224a11.933,11.933,0,0,0,2.5.258c5.558,0,10.087-3.629,10.087-8.089M10.081,14.516A9.168,9.168,0,0,1,7.3,14.178L4.6,16.514,4.483,12.9A5.486,5.486,0,0,1,1.663,8.092c0-3.552,3.771-6.424,8.418-6.424S18.5,4.54,18.5,8.092s-3.767,6.424-8.421,6.424M20.989,5.332a7.424,7.424,0,0,1,.748,3.222,8.2,8.2,0,0,1-3.266,6.37,12.282,12.282,0,0,1-7.649,2.554c-.059,0-.122-.005-.185-.005a10.6,10.6,0,0,0,6.433,2.086,11.488,11.488,0,0,0,2.314-.237l3.945,2.968.143-4.774a6.772,6.772,0,0,0,2.9-5.424c0-2.99-2.2-5.567-5.381-6.758" transform="translate(0 0)" fill="#190c39"/>
    </g>
  </g>
</svg>
