<svg id="Group_6" data-name="Group 6" xmlns="http://www.w3.org/2000/svg" xmlns:xlink="http://www.w3.org/1999/xlink" width="32" height="32.11" viewBox="0 0 32 32.11">
  <defs>
    <clipPath id="clip-path">
      <rect id="Rectangle_6" data-name="Rectangle 6" width="32" height="32.11" fill="#040542"/>
    </clipPath>
  </defs>
  <g id="Group_2" data-name="Group 2" clip-path="url(#clip-path)">
    <path id="Path_7" data-name="Path 7" d="M42.8,12.7h0l-5.5-.025a.875.875,0,0,1-.764-.454l-2.167-3.95a2.973,2.973,0,0,1,.012-2.9l2.021-3.612A1.465,1.465,0,0,1,37.7,1h.09a1.5,1.5,0,0,1,1.479,1.518l-.013,2.557,1.735.008.012-2.556a1.517,1.517,0,0,1,.427-1.054,1.461,1.461,0,0,1,1.059-.452H42.5a1.484,1.484,0,0,1,1.29.775L45.78,5.426a2.971,2.971,0,0,1-.012,2.9l-2.2,3.93a.875.875,0,0,1-.764.448m-4.979-1.774,4.467.02,1.946-3.478a1.231,1.231,0,0,0,.005-1.2L42.753,3.549l-.012,2.417a.876.876,0,0,1-.876.872h0l-3.487-.016a.877.877,0,0,1-.872-.88l.013-2.577-1.6,2.866a1.231,1.231,0,0,0-.005,1.2Z" transform="translate(-14.151 -0.415)" fill="#040542"/>
    <path id="Path_8" data-name="Path 8" d="M41.547,41.563h-.016a3.833,3.833,0,0,1-3.812-3.844l.694-14.9,1.75.082-.693,14.86a2.073,2.073,0,0,0,2.068,2.049h.009a2.079,2.079,0,0,0,2.077-2.068l-.565-14.829,1.75-.067.565,14.866a3.84,3.84,0,0,1-3.827,3.848" transform="translate(-15.698 -9.498)" fill="#040542"/>
    <rect id="Rectangle_4" data-name="Rectangle 4" width="2.335" height="1.751" transform="matrix(0.004, -1, 1, 0.004, 25.095, 28.02)" fill="#040542"/>
    <path id="Path_9" data-name="Path 9" d="M1.751,26.855H0V0H19.85V1.751H1.751Z" fill="#040542"/>
    <rect id="Rectangle_5" data-name="Rectangle 5" width="1.751" height="23.353" transform="translate(12.844 3.503)" fill="#040542"/>
    <path id="Path_10" data-name="Path 10" d="M1.751,52.5H0V49H19.85v1.751H1.751Z" transform="translate(0 -20.393)" fill="#040542"/>
    <path id="Path_11" data-name="Path 11" d="M17.577,27.362a2.64,2.64,0,1,1,0-5.278v1.751a.891.891,0,1,0,0,1.775Z" transform="translate(-6.186 -9.191)" fill="#040542"/>
    <path id="Path_12" data-name="Path 12" d="M27.717,27.362V25.611a.891.891,0,1,0,0-1.775V22.084a2.64,2.64,0,1,1,0,5.278" transform="translate(-11.535 -9.191)" fill="#040542"/>
  </g>
</svg>
