<svg id="lock" xmlns="http://www.w3.org/2000/svg" width="14" height="18" viewBox="0 0 14 18">
  <path id="lock-2" data-name="lock" d="M11.5,18h-9A2.5,2.5,0,0,1,0,15.5v-7A2.509,2.509,0,0,1,2,6.05V5A5,5,0,1,1,12,5V6.05A2.509,2.509,0,0,1,14,8.5v7A2.5,2.5,0,0,1,11.5,18ZM2.5,7A1.5,1.5,0,0,0,1,8.5v7A1.5,1.5,0,0,0,2.5,17h9A1.5,1.5,0,0,0,13,15.5v-7A1.507,1.507,0,0,0,11.616,7a.5.5,0,0,1-.118.014A.49.49,0,0,1,11.367,7ZM7,1A4.005,4.005,0,0,0,3,5V6h8V5A4,4,0,0,0,7,1ZM7,15a1.3,1.3,0,0,1-1.171-.725l-.276-.552A5.263,5.263,0,0,1,5,11.382V11a2,2,0,0,1,4,0v.383a5.274,5.274,0,0,1-.553,2.342l-.276.552A1.3,1.3,0,0,1,7,15Zm0-5a1,1,0,0,0-1,1v.383a4.261,4.261,0,0,0,.446,1.894l.277.554a.309.309,0,0,0,.552,0l.277-.554A4.25,4.25,0,0,0,8,11.382V11A1,1,0,0,0,7,10Z" fill="#fff"/>
</svg>
