<svg xmlns="http://www.w3.org/2000/svg" xmlns:xlink="http://www.w3.org/1999/xlink" width="32" height="32.435" viewBox="0 0 32 32.435">
  <defs>
    <clipPath id="clip-path">
      <rect id="Rectangle_31" data-name="Rectangle 31" width="32" height="32.435" fill="#040542"/>
    </clipPath>
  </defs>
  <g id="Group_14" data-name="Group 14" transform="translate(0 0)">
    <g id="Group_14-2" data-name="Group 14" transform="translate(0 0)" clip-path="url(#clip-path)">
      <path id="Path_31" data-name="Path 31" d="M8.524,14.348A2.9,2.9,0,0,1,5.8,12.439L4.769,9.525A2.9,2.9,0,0,1,6.5,5.817L21.42.356a2.9,2.9,0,0,1,3.716,1.731L26.169,5a2.9,2.9,0,0,1-1.734,3.707L9.519,14.17a2.9,2.9,0,0,1-.994.177M22.413,1.9a1.19,1.19,0,0,0-.4.071L7.094,7.435a1.177,1.177,0,0,0-.7,1.507l1.033,2.914a1.177,1.177,0,0,0,1.5.7L23.846,7.091a1.177,1.177,0,0,0,.7-1.507L23.514,2.669a1.178,1.178,0,0,0-1.1-.767" transform="translate(-1.957 -0.076)" fill="#040542"/>
      <rect id="Rectangle_27" data-name="Rectangle 27" width="1.723" height="5.046" transform="matrix(0.944, -0.331, 0.331, 0.944, 12.463, 23.718)" fill="#040542"/>
      <path id="Path_32" data-name="Path 32" d="M24.887,50.367a1.608,1.608,0,0,1-.577-.106,1.465,1.465,0,0,1-.86-.862l-.692-1.9a1.557,1.557,0,0,1,.991-1.961l4.437-1.662,4.562-1.661a1.556,1.556,0,0,1,2.019.865l.692,1.9a1.466,1.466,0,0,1-.1,1.213,1.654,1.654,0,0,1-.883.746l-9,3.323a1.716,1.716,0,0,1-.585.1m-.436-3.253.542,1.489,8.772-3.239-.542-1.489-4.441,1.616Zm9.424-1.79.3.807-.295-.809,0,0" transform="translate(-9.655 -17.933)" fill="#040542"/>
      <path id="Path_33" data-name="Path 33" d="M43.56,6.349l-.639-1.6.588-.235a1.379,1.379,0,0,0,.844-1.767l-.045-.123a1.371,1.371,0,0,0-1.757-.82l-.563.226-.64-1.6L41.937.2a3.095,3.095,0,0,1,3.99,1.839l.045.123a3.1,3.1,0,0,1-1.849,3.965Z" transform="translate(-17.607 0)" fill="#040542"/>
      <rect id="Rectangle_28" data-name="Rectangle 28" width="2.584" height="1.723" transform="translate(28.983 0.926) rotate(-19.999)" fill="#040542"/>
      <rect id="Rectangle_29" data-name="Rectangle 29" width="1.722" height="4.96" transform="matrix(0.94, -0.342, 0.342, 0.94, 0, 9.778)" fill="#040542"/>
      <rect id="Rectangle_30" data-name="Rectangle 30" width="1.722" height="2.84" transform="translate(18.477 9.801) rotate(-19.82)" fill="#040542"/>
      <path id="Path_34" data-name="Path 34" d="M28.207,34.6a1.71,1.71,0,0,1-1.582-1.072l-.882-2.5a.861.861,0,0,1,.456-1.071l3.174-1.439.711,1.569L27.629,31.2l.607,1.72,5.132-2.184-1.862-4.859-2.419.907-.605-1.613,3.22-1.207a.861.861,0,0,1,1.107.5l2.163,5.66a1.707,1.707,0,0,1-.954,2.207l-5.165,2.142a1.743,1.743,0,0,1-.648.127" transform="translate(-10.941 -10.18)" fill="#040542"/>
      <path id="Path_35" data-name="Path 35" d="M5.939,49.894,5.1,48.387l2.884-1.6a.861.861,0,0,1,.947.075,5.337,5.337,0,0,0,5.038.32l.617,1.608a7.255,7.255,0,0,1-6.211-.25Z" transform="translate(-2.174 -19.879)" fill="#040542"/>
      <path id="Path_36" data-name="Path 36" d="M9.189,33.291l-.641-1.6c2.334-.937,2.139-4.282,2.137-4.315a.864.864,0,0,1,.539-.859l2.445-.981a2.073,2.073,0,0,0,1.039-1.607l-5.58,2.24-3.95,4.4a.861.861,0,0,1-.371.243L.682,32.176.143,30.54l3.906-1.287,3.93-4.381a.857.857,0,0,1,.32-.225l6.806-2.732a.861.861,0,0,1,1.12.478,3.865,3.865,0,0,1-1.915,4.743l-1.9.763c-.048,1.321-.47,4.289-3.219,5.393" transform="translate(-0.061 -9.305)" fill="#040542"/>
    </g>
  </g>
</svg>
