<svg xmlns="http://www.w3.org/2000/svg" width="43.245" height="40.364" viewBox="0 0 43.245 40.364">
  <g id="plumbing-new" transform="translate(-566 -390.727)">
    <path id="Path_26" data-name="Path 26" d="M4.164,167.3v.914a14.173,14.173,0,0,0,28.345,0V167.3H24.621v.914a6.29,6.29,0,0,1-12.579,0V167.3Z" transform="translate(563.529 248.719)" fill="#fff"/>
    <path id="Path_27" data-name="Path 27" d="M64.454,134.738h6.634v-7.889H64.454a9.959,9.959,0,0,0-9.95,9.694h7.911a2.049,2.049,0,0,1,2.039-1.8" transform="translate(533.657 272.721)" fill="#fff"/>
    <rect id="Rectangle_15" data-name="Rectangle 15" width="11.261" height="2.253" transform="translate(566 390.727)" fill="#fff"/>
    <rect id="Rectangle_16" data-name="Rectangle 16" width="7.883" height="14.028" transform="translate(567.689 395.232)" fill="#fff"/>
    <rect id="Rectangle_17" data-name="Rectangle 17" width="11.261" height="2.252" transform="translate(566 411.512)" fill="#fff"/>
    <rect id="Rectangle_18" data-name="Rectangle 18" width="11.261" height="2.253" transform="translate(586.474 411.512)" fill="#fff"/>
    <rect id="Rectangle_19" data-name="Rectangle 19" width="2.253" height="11.261" transform="translate(606.992 397.886)" fill="#fff"/>
  </g>
</svg>
