<svg id="_1._Icons_Line_ab-testing" data-name="1. Icons / Line /  ab-testing" xmlns="http://www.w3.org/2000/svg" width="13.847" height="18.003" viewBox="0 0 13.847 18.003">
  <path id="bell" d="M6.922,18a3,3,0,0,1-2.83-2H2.5A2.5,2.5,0,0,1,.217,12.485l.706-1.591V8a6.011,6.011,0,0,1,4-5.659V2a2,2,0,0,1,4,0v.341a6.014,6.014,0,0,1,4,5.659v2.894l.707,1.59A2.5,2.5,0,0,1,11.345,16H9.753A3.008,3.008,0,0,1,6.922,18ZM5.19,16a2,2,0,0,0,3.466,0ZM6.922,3a5.006,5.006,0,0,0-5,5v3l-.043.2-.75,1.688A1.5,1.5,0,0,0,2.5,15h8.845a1.5,1.5,0,0,0,1.371-2.111l-.75-1.687-.043-.2V8A5.006,5.006,0,0,0,6.922,3Zm0-1a6.074,6.074,0,0,1,1,.083V2a1,1,0,0,0-2,0v.083A6.091,6.091,0,0,1,6.923,2Z" fill="#fff"/>
</svg>
