<svg xmlns="http://www.w3.org/2000/svg" xmlns:xlink="http://www.w3.org/1999/xlink" width="32" height="33" viewBox="0 0 32 33">
  <defs>
    <clipPath id="clip-path">
      <rect id="Rectangle_21" data-name="Rectangle 21" width="32" height="33" transform="translate(0 -0.294)" fill="#040542"/>
    </clipPath>
  </defs>
  <g id="Group_10" data-name="Group 10" transform="translate(0 0.363)">
    <path id="Path_23" data-name="Path 23" d="M32.2,1.909l1.132,2.07L35.4,5.11,33.333,6.242,32.2,8.311l-1.132-2.07L29,5.11l2.069-1.131Z" transform="translate(-12.397 -0.812)" fill="#040542"/>
    <path id="Path_24" data-name="Path 24" d="M43.072,11.911l.815,1.491,1.491.815-1.491.815-.815,1.491-.815-1.491-1.491-.815,1.491-.815Z" transform="translate(-17.427 -5.088)" fill="#040542"/>
    <g id="Group_11" data-name="Group 11" transform="translate(0 -0.069)">
      <g id="Group_10-2" data-name="Group 10" clip-path="url(#clip-path)">
        <path id="Path_25" data-name="Path 25" d="M14.313,45.74h-.962a2.476,2.476,0,0,1-2.473-2.473V35.578a1.863,1.863,0,0,0-1.861-1.861H5.3a1.863,1.863,0,0,0-1.861,1.861v7.689A2.476,2.476,0,0,1,.962,45.74H0V44.023H.962a.756.756,0,0,0,.756-.756V35.578A3.582,3.582,0,0,1,5.3,32H9.017A3.582,3.582,0,0,1,12.6,35.578v7.689a.756.756,0,0,0,.756.756h.962Z" transform="translate(0 -13.607)" fill="#040542"/>
        <rect id="Rectangle_15" data-name="Rectangle 15" width="2" height="17" transform="translate(6 -0.294)" fill="#040542"/>
        <rect id="Rectangle_16" data-name="Rectangle 16" width="8" height="2" transform="translate(4 23.706)" fill="#040542"/>
        <rect id="Rectangle_17" data-name="Rectangle 17" width="2" height="4" transform="translate(4 27.706)" fill="#040542"/>
        <rect id="Rectangle_18" data-name="Rectangle 18" width="2" height="4" transform="translate(7 27.706)" fill="#040542"/>
        <path id="Path_26" data-name="Path 26" d="M39.38,45.5H30.618a.859.859,0,0,1-.856-.785L28.51,30.241l1.711-.148L31.406,43.78h7.186l1.163-13.446,1.712.148L40.235,44.712a.859.859,0,0,1-.856.785" transform="translate(-12.188 -12.792)" fill="#040542"/>
        <path id="Path_27" data-name="Path 27" d="M33.085,41.6c-5.059,0-9.176-4.533-9.176-10.1h1.718c0,4.624,3.346,8.385,7.458,8.385s7.458-3.761,7.458-8.385H42.26c0,5.57-4.117,10.1-9.176,10.1" transform="translate(-10.221 -13.393)" fill="#040542"/>
        <rect id="Rectangle_19" data-name="Rectangle 19" width="18" height="2" transform="translate(14 13.706)" fill="#040542"/>
        <rect id="Rectangle_20" data-name="Rectangle 20" width="18" height="2" transform="translate(14 16.706)" fill="#040542"/>
      </g>
    </g>
  </g>
</svg>
