<svg id="headphone" xmlns="http://www.w3.org/2000/svg" width="20" height="20.016" viewBox="0 0 20 20.016">
  <path id="headphone-2" data-name="headphone" d="M10.5,20.016h-1a1.5,1.5,0,1,1,0-3h1a1.5,1.5,0,0,1,1.415,1h2.143a1.5,1.5,0,0,0,1.424-1.026l.227-.683a1.947,1.947,0,0,1,.125-.291H15.5a.5.5,0,0,1-.5-.5v-7a.5.5,0,0,1,.5-.5H16V7A6,6,0,1,0,4,7V8.016h.5a.5.5,0,0,1,.5.5v7a.5.5,0,0,1-.5.5h-2a2.5,2.5,0,0,1-2.5-2.5v-3a2.5,2.5,0,0,1,2.5-2.5H3V7A7,7,0,1,1,17,7V8.016h.5a2.5,2.5,0,0,1,2.5,2.5v3a2.5,2.5,0,0,1-2.5,2.5.885.885,0,0,0-.841.607l-.228.684a2.5,2.5,0,0,1-2.372,1.709H11.915A1.5,1.5,0,0,1,10.5,20.016Zm-1-2a.5.5,0,1,0,0,1h1a.5.5,0,0,0,0-1Zm6.5-9v6h1.5a1.5,1.5,0,0,0,1.5-1.5v-3a1.5,1.5,0,0,0-1.5-1.5Zm-13.5,0a1.5,1.5,0,0,0-1.5,1.5v3a1.5,1.5,0,0,0,1.5,1.5H4v-6Z" fill="#fff"/>
</svg>
