<svg xmlns="http://www.w3.org/2000/svg" xmlns:xlink="http://www.w3.org/1999/xlink" width="272" height="278.166" viewBox="0 0 272 278.166">
  <defs>
    <clipPath id="clip-path">
      <rect id="Rectangle_1" data-name="Rectangle 1" width="272" height="278.166" fill="none"/>
    </clipPath>
  </defs>
  <g id="logo-new" transform="translate(83 -25)">
    <g id="Group_1" data-name="Group 1" transform="translate(-83 25)" clip-path="url(#clip-path)">
      <path id="Path_2" data-name="Path 2" d="M120.659,133.07a22.976,22.976,0,0,1,8.833,1.712,21.858,21.858,0,0,1,7.168,4.734,22.737,22.737,0,0,1,0,32,21.748,21.748,0,0,1-7.168,4.734,23.745,23.745,0,0,1-17.713,0,21.85,21.85,0,0,1-7.123-4.734,22.74,22.74,0,0,1,0-32,21.961,21.961,0,0,1,7.123-4.734,22.875,22.875,0,0,1,8.88-1.712m0,7.755A13.826,13.826,0,0,0,115.024,142a14.551,14.551,0,0,0-4.6,3.154,14.96,14.96,0,0,0-4.193,10.368,14.256,14.256,0,0,0,1.127,5.634,15.36,15.36,0,0,0,3.065,4.687,14.121,14.121,0,0,0,4.6,3.2,14.115,14.115,0,0,0,11.269,0,14.185,14.185,0,0,0,4.6-3.2,15.471,15.471,0,0,0,3.065-4.687,14.309,14.309,0,0,0,1.127-5.634,14.631,14.631,0,0,0-1.127-5.68,14.822,14.822,0,0,0-3.065-4.689,14.62,14.62,0,0,0-4.6-3.154,13.847,13.847,0,0,0-5.634-1.171" transform="translate(0.2 0.271)" fill="#161615"/>
      <path id="Path_3" data-name="Path 3" d="M83.35,170.013h-.18a19.2,19.2,0,0,1-6.129,5.816,15.718,15.718,0,0,1-8.2,2.207,19.517,19.517,0,0,1-8.656-1.847,18.606,18.606,0,0,1-6.354-5,21.832,21.832,0,0,1-3.878-7.3,28.6,28.6,0,0,1-1.3-8.655,25.189,25.189,0,0,1,1.395-8.339,21.826,21.826,0,0,1,3.968-7.031,19.85,19.85,0,0,1,6.221-4.869,18.029,18.029,0,0,1,8.248-1.848,15.949,15.949,0,0,1,8.474,2.255,19.888,19.888,0,0,1,6.221,6.039h.18V98.344h8.113v78.25H83.35Zm-13.253.812a13.336,13.336,0,0,0,5.859-1.216,12.617,12.617,0,0,0,4.283-3.336A14.707,14.707,0,0,0,82.9,161.4a18.828,18.828,0,0,0,.9-5.906,18.536,18.536,0,0,0-.9-5.813,14.237,14.237,0,0,0-2.659-4.824,12.728,12.728,0,0,0-4.327-3.291,13.428,13.428,0,0,0-5.815-1.217,12.253,12.253,0,0,0-5.634,1.263A12.8,12.8,0,0,0,60.27,145a15.26,15.26,0,0,0-2.613,4.824,17.823,17.823,0,0,0-.9,5.678,18.237,18.237,0,0,0,.9,5.725,16.2,16.2,0,0,0,2.57,4.914,12.062,12.062,0,0,0,4.145,3.426,12.433,12.433,0,0,0,5.725,1.262" transform="translate(0.099 0.2)" fill="#ffc500"/>
      <path id="Path_4" data-name="Path 4" d="M120.659,133.07a22.976,22.976,0,0,1,8.833,1.712,21.858,21.858,0,0,1,7.168,4.734,22.737,22.737,0,0,1,0,32,21.748,21.748,0,0,1-7.168,4.734,23.745,23.745,0,0,1-17.713,0,21.85,21.85,0,0,1-7.123-4.734,22.74,22.74,0,0,1,0-32,21.961,21.961,0,0,1,7.123-4.734,22.875,22.875,0,0,1,8.88-1.712m0,7.755A13.826,13.826,0,0,0,115.024,142a14.551,14.551,0,0,0-4.6,3.154,14.96,14.96,0,0,0-4.193,10.368,14.256,14.256,0,0,0,1.127,5.634,15.36,15.36,0,0,0,3.065,4.687,14.121,14.121,0,0,0,4.6,3.2,14.115,14.115,0,0,0,11.269,0,14.185,14.185,0,0,0,4.6-3.2,15.471,15.471,0,0,0,3.065-4.687,14.309,14.309,0,0,0,1.127-5.634,14.631,14.631,0,0,0-1.127-5.68,14.822,14.822,0,0,0-3.065-4.689,14.62,14.62,0,0,0-4.6-3.154,13.847,13.847,0,0,0-5.634-1.171" transform="translate(0.2 0.271)" fill="#ffc500"/>
      <path id="Path_5" data-name="Path 5" d="M158.6,140.013h.18a12.426,12.426,0,0,1,5.364-5.185,16.049,16.049,0,0,1,7.347-1.759,17.048,17.048,0,0,1,7.348,1.4,11.237,11.237,0,0,1,4.6,3.876,16.013,16.013,0,0,1,2.346,5.816,36.294,36.294,0,0,1,.675,7.212v25.151H178.34v-24.16a40.476,40.476,0,0,0-.272-4.914,9.476,9.476,0,0,0-1.261-3.831,6.4,6.4,0,0,0-2.841-2.479,11.819,11.819,0,0,0-4.912-.857,10.077,10.077,0,0,0-6.086,1.577,8.987,8.987,0,0,0-3.064,4.012,17.82,17.82,0,0,0-1.128,5.41q-.182,2.975-.18,5.859v19.382h-8.113v-42.19H158.6Z" transform="translate(0.307 0.271)" fill="#ffc500"/>
      <path id="Path_6" data-name="Path 6" d="M202.408,156.781a15.42,15.42,0,0,0,.9,5.228,13.929,13.929,0,0,0,2.569,4.463,12.729,12.729,0,0,0,4.012,3.11,11.512,11.512,0,0,0,5.227,1.171,11.738,11.738,0,0,0,7.484-2.208,22.872,22.872,0,0,0,5.138-5.994l6.85,3.876a21.415,21.415,0,0,1-8.159,8.519,22.251,22.251,0,0,1-11.4,3.019,21.127,21.127,0,0,1-8.7-1.712,18.9,18.9,0,0,1-6.489-4.688,20.887,20.887,0,0,1-4.1-7.031,25.889,25.889,0,0,1-1.443-8.745,29.811,29.811,0,0,1,1.306-9.015,20.869,20.869,0,0,1,3.878-7.213,17.587,17.587,0,0,1,6.4-4.778,21.84,21.84,0,0,1,8.97-1.713,20.186,20.186,0,0,1,8.744,1.759,17.3,17.3,0,0,1,6.129,4.778,20.56,20.56,0,0,1,3.653,7.122,30.866,30.866,0,0,1,1.214,8.789v1.264Zm24.07-6.131a12.9,12.9,0,0,0-3.741-7.663,10.947,10.947,0,0,0-7.887-2.884,11.424,11.424,0,0,0-8.023,2.975,12.582,12.582,0,0,0-3.968,7.571Z" transform="translate(0.396 0.271)" fill="#ffc500"/>
      <path id="Path_7" data-name="Path 7" d="M134.093,179.811l-6.442,2.723a1.456,1.456,0,0,1-1.909-.774l-6.973-16.5a1.455,1.455,0,0,1,.774-1.908l6.443-2.723a1.751,1.751,0,0,1,2.29.929l6.748,15.962a1.753,1.753,0,0,1-.93,2.291" transform="translate(0.242 0.327)" fill="#121639"/>
      <path id="Path_8" data-name="Path 8" d="M144.661,146.023h0v0ZM138.149,108h0a2.362,2.362,0,0,0,.1-1.883c-.022-.043-.023-.062-.029-.069s-.015-.037-.022-.056a4.44,4.44,0,0,0-2.574-2.108,5.081,5.081,0,0,0-3.53-.071,2.491,2.491,0,0,0-1.479,1.7L126.5,120l-2.8,9.837v0h0v0l0,0v0l.006.014A3.035,3.035,0,0,0,125.3,130.9l.043.013a3.611,3.611,0,0,0,2.119.227l.011,0,.157-.044.013-.02a.919.919,0,0,0,.088-.309l.056-.2,6.889-15.007ZM100,100.955a6.282,6.282,0,0,0-6.009,2.518A2.892,2.892,0,0,0,93.7,106.3c.035.081.074.162.123.257l11.216,21.916,2,3.9c.013.052.136.169.676.164a5.993,5.993,0,0,0,3.375-1.411c.393-.389.394-.57.37-.591l-1.383-4.173-7.746-23.344c-.036-.1-.074-.2-.108-.28l0-.005A2.9,2.9,0,0,0,100,100.955M77.744,155.3h0l.006,0Zm22.172-14.762-10.194-5.11L77.494,129.3a2.4,2.4,0,0,0-2.069-.1l-.007,0a4.613,4.613,0,0,0-2.254,2.525,4.692,4.692,0,0,0-.2,3.363l.014.032a2.389,2.389,0,0,0,1.551,1.377l5.728,1.846,18.151,5.856s0,0,0,0a.181.181,0,0,0,.042-.01,3.176,3.176,0,0,0,1.178-1.616,3.267,3.267,0,0,0,.315-1.982.313.313,0,0,0-.03-.048m.468,32.879a.425.425,0,0,0-.164-.041L93,179.16l-8.244,6.606-.009.006a1.925,1.925,0,0,0-.5,2.4l.021.048a4.539,4.539,0,0,0,1.73,2,2.34,2.34,0,0,0,2.111.325,1.946,1.946,0,0,0,.666-.479l5.681-6.189,7.716-8.408a1.028,1.028,0,0,0-.079-.288,3.976,3.976,0,0,0-1.057-1.341,3.214,3.214,0,0,0-.657-.426" transform="translate(0.148 0.205)" fill="#fff"/>
      <path id="Path_9" data-name="Path 9" d="M171.353,276.915l-11.872-28.34a2.362,2.362,0,0,0-2.956-1.319l-.032.013c-.1.033-.521.18-1.17.384a38.855,38.855,0,0,1-4.407,1.125,12.763,12.763,0,0,1-2.03.226,3.477,3.477,0,0,1-.588-.037l-.038-.008-.067-.025c-3.059-1.7-5.695-5.218-9.99-8.826-4.331-3.614-10.455-7.008-20.358-8.082a.261.261,0,0,1-.19-.123,1.085,1.085,0,0,1-.08-.157c-.013-.028-.02-.042-.027-.059l-.011-.025a5.712,5.712,0,0,1,.475-3.915,8.221,8.221,0,0,1,4.221-4.149.257.257,0,0,1,.167-.168.253.253,0,0,1,.2.016c2.038-.8,4.919-1.086,8.807-.089a34.971,34.971,0,0,1,7.678,3.109.253.253,0,0,1,.116.127l2.02,4.82a2.445,2.445,0,1,0,4.51-1.889L119.191,166.19a5.059,5.059,0,0,1,.186-4.369,6.611,6.611,0,0,1,3.213-3.03l.007,0v0l.009,0a4.137,4.137,0,0,1,3.143-.157,5.178,5.178,0,0,1,2.7,3.1l.041.1c1.938,4.761,4.475,10.868,7,16.9,2.46,5.871,4.906,11.664,6.77,16.07a.2.2,0,0,0-.033-.045.258.258,0,0,1,.044.07h0a.193.193,0,0,1,.01.032c0,.009,0,.01,0,.01l0,0v.007l0,.014a.411.411,0,0,0,.019.057l3.564,8.506a2.469,2.469,0,0,0,4.554-1.908l-.378-.9c0-.006-.015-.037-.034-.083s-.047-.111-.082-.193c0,0-4.316-10.182-4.912-11.6a4.566,4.566,0,0,1,8.6-3.014l5.07,12.325a2.469,2.469,0,1,0,4.554-1.908l-.1-.246a.277.277,0,0,1-.013-.037l0-.006c0-.014-.013-.038-.025-.069-.025-.064-.062-.158-.109-.277-.1-.238-.231-.577-.4-.982-.331-.81-.775-1.885-1.218-2.957-.889-2.146-1.778-4.282-1.779-4.286a4.562,4.562,0,0,1,8.3-3.772l.016.04c.022.073.07.187.158.421.728,1.839,3.55,8.648,3.554,8.657a2.469,2.469,0,1,0,4.554-1.911l-2.186-5.405a4.566,4.566,0,1,1,8.425-3.522s.877,2.239.945,2.4l1.09,2.6c2.714,6.478,5.248,13.085,7.968,19.58.993,2.368,2.008,4.722,3.07,7.048.066.144.127.29.187.432l.008.018c2.906,6.963-.14,14.06-1.829,21.09a2.336,2.336,0,0,0,.111,1.448l0,.011,0,.006,18.675,41.4,5.089-.105-18.484-40.913s0-.007-.016-.035c-.33-.853-.055-2.992.357-5.168.415-2.191.971-4.394,1.193-5.262,1.038-4.05,1.964-7.757.487-11.867-.206-.574-.433-1.144-.671-1.712-.756-1.8-1.634-3.581-2.39-5.384,0,0,0-.007-.012-.033s-.025-.053-.037-.083c-.066-.158-.129-.317-.19-.472q-.821-2.04-1.67-4.06c-1.617-3.859-3.294-7.695-4.912-11.553-.284-.677-.565-1.358-.843-2.036-.295-.717-.594-1.432-.884-2.127,0-.006-.009-.019-.016-.037-.3-.723-2.879-7.019-2.879-7.018a9.278,9.278,0,0,0-16.388-1.414.254.254,0,0,1-.386.054A9.268,9.268,0,0,0,156,180.543a.261.261,0,0,1-.182.115.257.257,0,0,1-.205-.063,9.271,9.271,0,0,0-13.254.886.258.258,0,0,1-.433-.067c-.632-1.506-1.276-3.039-1.921-4.579-2.523-6.023-5.058-12.124-6.985-16.855l-.088-.213,0-.005a9.984,9.984,0,0,0-5.393-5.685,8.992,8.992,0,0,0-6.769.175l-.009,0h0l-.005,0-.026.01a11.456,11.456,0,0,0-5.719,5.352,10,10,0,0,0-.343,8.427l.022.048,21.53,51.392a.255.255,0,0,1-.326.338A26.634,26.634,0,0,0,127.105,218a16.108,16.108,0,0,0-6.515,1.163l-.027.009h0a12.959,12.959,0,0,0-6.857,6.626,10.026,10.026,0,0,0-.5,7.76,5.406,5.406,0,0,0,1.49,2.074,4.72,4.72,0,0,0,2.527,1.075c9.163,1.026,14.122,3.886,17.961,7.038s6.46,6.882,10.776,9.354a6.846,6.846,0,0,0,3.886.587,32.448,32.448,0,0,0,5.893-1.223.256.256,0,0,1,.309.147l10.182,24.3Z" transform="translate(0.229 0.313)" fill="#fff"/>
      <path id="Path_10" data-name="Path 10" d="M83.35,87.991h-.18a19.2,19.2,0,0,1-6.129,5.816,15.718,15.718,0,0,1-8.2,2.207,19.517,19.517,0,0,1-8.656-1.847,18.606,18.606,0,0,1-6.354-5,21.832,21.832,0,0,1-3.878-7.3,28.6,28.6,0,0,1-1.3-8.655,25.189,25.189,0,0,1,1.395-8.339,21.826,21.826,0,0,1,3.968-7.031,19.85,19.85,0,0,1,6.221-4.869,18.029,18.029,0,0,1,8.248-1.848,15.95,15.95,0,0,1,8.474,2.255,19.889,19.889,0,0,1,6.221,6.039h.18V16.322h8.113v78.25H83.35ZM70.1,88.8a13.336,13.336,0,0,0,5.859-1.216,12.617,12.617,0,0,0,4.283-3.336A14.707,14.707,0,0,0,82.9,79.382a18.828,18.828,0,0,0,.9-5.906,18.536,18.536,0,0,0-.9-5.813,14.237,14.237,0,0,0-2.659-4.824,12.728,12.728,0,0,0-4.327-3.291A13.428,13.428,0,0,0,70.1,58.331a12.253,12.253,0,0,0-5.634,1.263,12.8,12.8,0,0,0-4.193,3.381A15.26,15.26,0,0,0,57.656,67.8a17.823,17.823,0,0,0-.9,5.678,18.237,18.237,0,0,0,.9,5.725,16.2,16.2,0,0,0,2.57,4.914,12.062,12.062,0,0,0,4.145,3.426A12.433,12.433,0,0,0,70.1,88.8" transform="translate(0.099 0.033)" fill="#ffc500"/>
      <path id="Path_11" data-name="Path 11" d="M107.852,27.387a5.321,5.321,0,0,1,3.965,1.668,5.54,5.54,0,0,1,1.622,4.012,5.236,5.236,0,0,1-1.622,3.921,5.776,5.776,0,0,1-7.933,0,5.247,5.247,0,0,1-1.622-3.921,5.553,5.553,0,0,1,1.622-4.012,5.327,5.327,0,0,1,3.968-1.668m4.055,67.163h-8.113V52.36h8.113Z" transform="translate(0.208 0.056)" fill="#ffc500"/>
      <path id="Path_12" data-name="Path 12" d="M132.954,57.991h.18a12.426,12.426,0,0,1,5.364-5.185,16.05,16.05,0,0,1,7.347-1.759,17.048,17.048,0,0,1,7.348,1.4,11.238,11.238,0,0,1,4.6,3.876,16.014,16.014,0,0,1,2.346,5.816,36.294,36.294,0,0,1,.675,7.212V94.5H152.7V70.341a40.48,40.48,0,0,0-.272-4.914,9.482,9.482,0,0,0-1.261-3.831,6.4,6.4,0,0,0-2.841-2.479,11.819,11.819,0,0,0-4.912-.857,10.077,10.077,0,0,0-6.086,1.577,8.986,8.986,0,0,0-3.064,4.012,17.85,17.85,0,0,0-1.128,5.41q-.182,2.975-.18,5.859V94.5h-8.113V52.312h8.113Z" transform="translate(0.254 0.104)" fill="#ffc500"/>
      <path id="Path_13" data-name="Path 13" d="M211.39,96.879a52.033,52.033,0,0,1-.9,10.006,20.909,20.909,0,0,1-3.2,7.935A15.208,15.208,0,0,1,200.978,120a27.4,27.4,0,0,1-18.255.54,18.444,18.444,0,0,1-6.4-3.786,17.53,17.53,0,0,1-4.239-5.994,20.948,20.948,0,0,1-1.623-8.023h8.115q0,5.679,3.516,8.79a15.315,15.315,0,0,0,15.237,1.892,9.259,9.259,0,0,0,3.65-3.291,13.571,13.571,0,0,0,1.8-4.912,35.809,35.809,0,0,0,.495-6.086V87.92h-.18a19.2,19.2,0,0,1-6.129,5.816,15.71,15.71,0,0,1-8.2,2.207,19.517,19.517,0,0,1-8.656-1.847,18.606,18.606,0,0,1-6.354-5,21.832,21.832,0,0,1-3.878-7.3,28.6,28.6,0,0,1-1.3-8.655,25.19,25.19,0,0,1,1.395-8.339,21.826,21.826,0,0,1,3.968-7.031,19.85,19.85,0,0,1,6.221-4.869,18.029,18.029,0,0,1,8.248-1.848,15.95,15.95,0,0,1,8.474,2.255,19.216,19.216,0,0,1,6.221,6.22h.18V52.312h8.113Zm-21.366-8.148a13.336,13.336,0,0,0,5.859-1.216,12.617,12.617,0,0,0,4.283-3.336,14.653,14.653,0,0,0,2.659-4.868,18.829,18.829,0,0,0,.9-5.906,18.537,18.537,0,0,0-.9-5.813,14.186,14.186,0,0,0-2.659-4.824,12.728,12.728,0,0,0-4.327-3.291,13.428,13.428,0,0,0-5.815-1.217,12.253,12.253,0,0,0-5.634,1.263A12.8,12.8,0,0,0,180.2,62.9a15.32,15.32,0,0,0-2.613,4.824,17.823,17.823,0,0,0-.9,5.678,18.237,18.237,0,0,0,.9,5.725,16.262,16.262,0,0,0,2.57,4.914A12.062,12.062,0,0,0,184.3,87.47a12.433,12.433,0,0,0,5.725,1.262" transform="translate(0.343 0.104)" fill="#ffc500"/>
      <path id="Path_14" data-name="Path 14" d="M154.144,130.384a1.413,1.413,0,0,0,.469-1.729.428.428,0,0,1-.021-.052.543.543,0,0,1-.02-.067,3.584,3.584,0,0,0-1.238-1.592,1.762,1.762,0,0,0-1.571-.349,1.353,1.353,0,0,0-.509.33l-11.427,11.11a.914.914,0,0,0,.037.138,3.078,3.078,0,0,0,.745,1.072,3.936,3.936,0,0,0,.387.3l-.044.066h.01l.04-.06a.5.5,0,0,0,.16.074.1.1,0,0,0,.019.006l.028.006a.224.224,0,0,0,.027-.038.713.713,0,0,1,.337-.281" transform="translate(0.285 0.258)" fill="#fff"/>
      <path id="Path_15" data-name="Path 15" d="M167.2,146.394a1.926,1.926,0,0,0-2.164-1.162h-.005l-19.417,3.938a1.749,1.749,0,0,0-.169.9,3.954,3.954,0,0,0,.346,1.688,1.221,1.221,0,0,0,.156.236l.014.022,19.793-.938a1.89,1.89,0,0,0,.782-.2,2.348,2.348,0,0,0,1.113-1.838" transform="translate(0.296 0.296)" fill="#fff"/>
      <path id="Path_16" data-name="Path 16" d="M81.1,158.566l-1.945.118a1.422,1.422,0,0,0-.57.148,1.769,1.769,0,0,0-.817,1.4,3.538,3.538,0,0,0,.366,2.03.278.278,0,0,1,.015.029h0a1.433,1.433,0,0,0,1.622.852.432.432,0,0,1,.047-.009l3.832-.839,11.714-2.552a1.826,1.826,0,0,0,.076-.606,3.091,3.091,0,0,0-.28-1.294,1.3,1.3,0,0,0-.092-.144Z" transform="translate(0.158 0.321)" fill="#fff"/>
    </g>
  </g>
</svg>
