<svg id="Group_12" data-name="Group 12" xmlns="http://www.w3.org/2000/svg" xmlns:xlink="http://www.w3.org/1999/xlink" width="32" height="38" viewBox="0 0 32 38">
  <defs>
    <clipPath id="clip-path">
      <rect id="Rectangle_26" data-name="Rectangle 26" width="32" height="38" fill="#040542"/>
    </clipPath>
  </defs>
  <rect id="Rectangle_22" data-name="Rectangle 22" width="2" height="4" transform="translate(22 1)" fill="#040542"/>
  <rect id="Rectangle_23" data-name="Rectangle 23" width="2" height="6" transform="translate(15)" fill="#040542"/>
  <g id="Group_13" data-name="Group 13">
    <g id="Group_12-2" data-name="Group 12" clip-path="url(#clip-path)">
      <path id="Path_28" data-name="Path 28" d="M25.816,22h-15.7A4.121,4.121,0,0,1,6,17.879V15.117A4.121,4.121,0,0,1,10.117,11h15.7a4.121,4.121,0,0,1,4.116,4.117v2.762A4.121,4.121,0,0,1,25.816,22m-15.7-9.056A2.179,2.179,0,0,0,7.94,15.117v2.762a2.179,2.179,0,0,0,2.177,2.177h15.7a2.179,2.179,0,0,0,2.176-2.177V15.117a2.178,2.178,0,0,0-2.176-2.177Z" transform="translate(-2.119 -3.885)" fill="#040542"/>
      <path id="Path_29" data-name="Path 29" d="M16.818,30.29h-1.94v-1.94H2.418A2.421,2.421,0,0,1,0,25.931V19.343A1.345,1.345,0,0,1,1.343,18H5.175v1.94H1.94v5.99a.478.478,0,0,0,.478.478h14.4Z" transform="translate(0 -6.357)" fill="#040542"/>
      <path id="Path_30" data-name="Path 30" d="M23.5,51.937H20.911A2.914,2.914,0,0,1,18,49.026V41.911A2.914,2.914,0,0,1,20.911,39H23.5a2.914,2.914,0,0,1,2.911,2.911v7.115A2.914,2.914,0,0,1,23.5,51.937m-2.587-11a.971.971,0,0,0-.97.97v7.115a.971.971,0,0,0,.97.97H23.5a.971.971,0,0,0,.97-.97V41.911a.971.971,0,0,0-.97-.97Z" transform="translate(-6.357 -13.774)" fill="#040542"/>
      <rect id="Rectangle_24" data-name="Rectangle 24" width="3" height="2" transform="translate(29 12)" fill="#040542"/>
      <rect id="Rectangle_25" data-name="Rectangle 25" width="2" height="4" transform="translate(8 1)" fill="#040542"/>
    </g>
  </g>
</svg>
