<svg id="service-popup-image" xmlns="http://www.w3.org/2000/svg" xmlns:xlink="http://www.w3.org/1999/xlink" width="187" height="176.411" viewBox="0 0 187 176.411">
  <defs>
    <clipPath id="clip-path">
      <path id="Clip_6" data-name="Clip 6" d="M0,0H31.234V18.98H0Z" transform="translate(0.114 0.042)" fill="none"/>
    </clipPath>
  </defs>
  <circle id="Oval" cx="77" cy="77" r="77" transform="translate(33)" fill="#edf5ff"/>
  <circle id="Oval_Copy" data-name="Oval Copy" cx="33.5" cy="33.5" r="33.5" transform="translate(0 22)" fill="#edf5ff"/>
  <g id="Group_38" data-name="Group 38" transform="translate(26 37)">
    <path id="Fill_1" data-name="Fill 1" d="M132.928,3.538S117.219,57.269,97.76,91.274L66.522,105.72,0,93.489s10.871-9.032,24.358-36.075c3.181-6.338,6.49-13.68,9.834-22.125C38.2,25.18,42.266,13.48,46.208,0Z" transform="translate(2.065 33.686)" fill="#ffcf72"/>
    <path id="Fill_3" data-name="Fill 3" d="M28.972,10.719,0,22.125C3.182,15.787,6.49,8.445,9.835,0c5.152,1.707,11.618,4.891,19.137,10.719" transform="translate(26.424 68.975)" fill="#ffb921"/>
    <g id="Group_7" data-name="Group 7" transform="translate(68.478 120.389)">
      <path id="Clip_6-2" data-name="Clip 6" d="M0,0H31.234V18.98H0Z" transform="translate(0.114 0.042)" fill="none"/>
      <g id="Group_7-2" data-name="Group 7" clip-path="url(#clip-path)">
        <path id="Fill_5" data-name="Fill 5" d="M0,18.98S8.6,9.34,4.822,0L31.234,4.533Z" transform="translate(0.114 0.042)" fill="#ffb921"/>
      </g>
    </g>
    <path id="Fill_8" data-name="Fill 8" d="M52.652.113a60.308,60.308,0,0,0-6.922,4.949c-2.335,1.79-4.6,3.69-6.828,5.605A161.365,161.365,0,0,0,26.64,22.453,161.52,161.52,0,0,0,15.416,35.405q-2.676,3.518-5.293,7.084c-.388.529-.758,1.078-1.123,1.631-.024-.759-.056-1.514-.092-2.261a83.4,83.4,0,0,0-.756-9.06c-.93-5.891-1.968-12.388-4.806-17.712-.883-1.657-3.689-1.075-3.312.972.525,2.853,1.437,5.667,2.131,8.487a78.191,78.191,0,0,1,1.63,8.64c.372,2.9.754,5.817.9,8.744.147,2.943-.051,5.881,0,8.821.043,2.242,2.864,3.19,3.925.992,1.249-2.588,3.309-5,4.945-7.366C15.147,42.1,16.8,39.9,18.526,37.733c3.448-4.316,6.9-8.636,10.61-12.727,3.742-4.125,7.654-8.09,11.65-11.968,1.988-1.929,4.023-3.8,6.083-5.654,2.184-1.962,4.578-3.781,6.624-5.878.582-.6.053-1.894-.842-1.392" transform="translate(52.458 60.196)" fill="#040542"/>
    <path id="Fill_10" data-name="Fill 10" d="M8.84,2.048C9.8,4.013,8.666,6.531,6.319,7.672S1.3,8.146.34,6.182.513,1.7,2.86.557,7.884.083,8.84,2.048" transform="translate(94.831 44.901)" fill="#ffb700"/>
    <path id="Fill_12" data-name="Fill 12" d="M3.677.852a1.828,1.828,0,0,1-1.048,2.34,1.827,1.827,0,0,1-2.487-.62A1.827,1.827,0,0,1,1.189.232a1.828,1.828,0,0,1,2.488.62" transform="translate(85.122 58.039)" fill="#ffb700"/>
    <path id="Fill_14" data-name="Fill 14" d="M3.868,0,3.842,2.242A1.265,1.265,0,0,1,2.064,3.4L0,2.528c.639-.337,1.31-.737,1.987-1.179S3.3.45,3.868,0" transform="translate(52.338 76.968)" fill="#001053"/>
    <path id="Fill_16" data-name="Fill 16" d="M11.235,0l-.056,4.425-.042,3.584c-.565.45-1.2.9-1.881,1.35s-1.348.842-1.987,1.179l-3.3-1.4L0,7.466,5.3,3.313Z" transform="translate(45.068 68.959)" fill="#ffb0ac"/>
    <path id="Fill_18" data-name="Fill 18" d="M11.56,0,51.273,60.736c.58.886-.534,2.687-2.6,4.437a19.052,19.052,0,0,1-3.854,2.519c-2.427,1.188-4.527,1.489-5.107.6L0,7.559Z" transform="translate(4.878 7.756)" fill="#6e6e6e"/>
    <path id="Fill_20" data-name="Fill 20" d="M3.853,0,24.487,31.557l20.333,31.1c-2.427,1.188-4.527,1.489-5.107.6L0,2.52Z" transform="translate(4.878 12.795)" fill="#040542"/>
    <path id="Fill_22" data-name="Fill 22" d="M3.853,0,44.821,62.654a18.9,18.9,0,0,1-1.851,1.376,18.624,18.624,0,0,1-2,1.144L0,2.52Z" transform="translate(8.732 10.275)" fill="#2f3079"/>
    <path id="Fill_24" data-name="Fill 24" d="M3.853,0,43.566,60.736c.58.886-.534,2.687-2.6,4.437L0,2.52Z" transform="translate(12.585 7.756)" fill="#4d4e9a"/>
    <path id="Fill_26" data-name="Fill 26" d="M4.852,2.531C1.659,4.619-.473,7.01.09,7.871L.306,8.2.7,8.8l.216.332C1.48,10,4.525,9,7.719,6.914s5.325-4.478,4.762-5.34l-.217-.331-.393-.6L11.653.31c-.563-.861-3.608.133-6.8,2.221" transform="translate(4.787 7.445)" fill="#001053"/>
    <path id="Fill_28" data-name="Fill 28" d="M11.573,6.969a.137.137,0,0,1-.032.03c-.113.11-.233.22-.351.324s-.256.229-.387.338c-.193.164-.383.315-.58.466-.382.3-.8.594-1.227.877-2.382,1.557-4.758,2.375-6.127,2.22a1.444,1.444,0,0,1-.884-.364A5.279,5.279,0,0,1,0,7.111L5.437,3.556,10.873,0a5.117,5.117,0,0,1,1.162.834,5.194,5.194,0,0,1,1.479,2.485l-.006,0c.328.817-.453,2.21-1.935,3.645" transform="translate(2.818 4.305)" fill="#f2f8ff"/>
    <path id="Fill_30" data-name="Fill 30" d="M7.642,6.135a.137.137,0,0,1-.032.03c-.113.11-.233.22-.351.324s-.256.229-.387.338c-.193.164-.383.315-.58.466a19.186,19.186,0,0,1-4.4,2.512A1.394,1.394,0,0,1,.9,7.2,16.42,16.42,0,0,0,4.084,5.461C5.716,4.328,7.449,2.657,7.89.5A1.368,1.368,0,0,1,8.1,0,5.194,5.194,0,0,1,9.583,2.485l-.006,0c.328.817-.453,2.21-1.935,3.645" transform="translate(6.749 5.138)" fill="#fff"/>
    <path id="Fill_32" data-name="Fill 32" d="M13.117,6.539a13.636,13.636,0,0,1-3.6,3.254c-2.732,1.787-5.461,2.543-6.454,1.857l-.006.005L2.982,11.6c-.005,0-.005,0,0-.006A10.219,10.219,0,0,1,.08,7.963l.012,0c-.549-1.19,1.4-3.695,4.487-5.716s6.17-2.8,7.04-1.825l.012,0a7.544,7.544,0,0,1,.56.7,10.582,10.582,0,0,1,1.6,3.407.005.005,0,0,0,.005.006l.022.1-.007,0a2.752,2.752,0,0,1-.694,1.913" transform="translate(0 0)" fill="#f2f8ff"/>
    <path id="Fill_34" data-name="Fill 34" d="M10.227.362C10.8,1.238,9,3.43,6.2,5.258S.679,7.856.106,6.98s1.228-3.069,4.023-4.9,5.525-2.6,6.1-1.722" transform="translate(0.272 0.734)" fill="#fff"/>
    <path id="Fill_36" data-name="Fill 36" d="M8.064,5.429a17.58,17.58,0,0,1-5.91,4.455,1.507,1.507,0,0,1-.794.123A1.532,1.532,0,0,1,.914,7.084C2.492,6.378,6.6,3.887,6.955.725L6.971.581A1.516,1.516,0,0,1,7.139,0a10.582,10.582,0,0,1,1.6,3.407.005.005,0,0,0,.005.006l.022.1-.007,0a2.752,2.752,0,0,1-.694,1.913" transform="translate(5.053 1.111)" fill="#fff"/>
  </g>
</svg>
