<svg xmlns="http://www.w3.org/2000/svg" xmlns:xlink="http://www.w3.org/1999/xlink" width="17.408" height="20" viewBox="0 0 17.408 20">
  <defs>
    <clipPath id="clip-path">
      <rect id="Rectangle_176" data-name="Rectangle 176" width="17.408" height="20" transform="translate(0 0)" fill="#04043e"/>
    </clipPath>
  </defs>
  <g id="sign-out" transform="translate(0 -0.005)">
    <g id="Group_184" data-name="Group 184" transform="translate(0 0.005)" clip-path="url(#clip-path)">
      <path id="Path_380" data-name="Path 380" d="M205.6,1.176a2.9,2.9,0,0,0-.87-.835A2.232,2.232,0,0,0,203.559,0h-8.827a2.232,2.232,0,0,0-1.171.336,2.9,2.9,0,0,0-.87.835,4.394,4.394,0,0,0-.731,2.5V4.815a.712.712,0,1,0,1.424,0V3.673a3.007,3.007,0,0,1,.476-1.683,1.162,1.162,0,0,1,.873-.561h8.827a1.162,1.162,0,0,1,.873.561,3.007,3.007,0,0,1,.476,1.683V16.337a3.007,3.007,0,0,1-.476,1.683,1.162,1.162,0,0,1-.873.561h-8.827a1.162,1.162,0,0,1-.873-.561,3.007,3.007,0,0,1-.476-1.683V14.772a.712.712,0,1,0-1.424,0v1.565a4.394,4.394,0,0,0,.731,2.5,2.9,2.9,0,0,0,.87.835,2.232,2.232,0,0,0,1.171.336h8.827a2.232,2.232,0,0,0,1.171-.336,2.9,2.9,0,0,0,.87-.835,4.394,4.394,0,0,0,.731-2.5V3.673a4.394,4.394,0,0,0-.731-2.5" transform="translate(-188.923 -0.005)" fill="#04043e"/>
      <path id="Path_381" data-name="Path 381" d="M8.609,407.121a.712.712,0,1,0,.953,1.057l3.268-2.945,0,0,.022-.021,0,0,.022-.023.008-.008.013-.015.009-.011.01-.013.02-.027,0-.006.012-.018,0-.007.012-.02,0,0a.713.713,0,0,0,.034-.069v0l.009-.022v-.006l.008-.021,0-.007.01-.033,0-.015,0-.013,0-.019,0-.011,0-.022v-.008q0-.032.006-.063v-.006q0-.013,0-.025s0-.006,0-.008,0-.017,0-.025,0,0,0-.007,0-.02,0-.03v-.012l0-.018,0-.016,0-.013,0-.018v0q0-.023-.011-.047h0l-.007-.023v0a.706.706,0,0,0-.037-.093l0-.006-.01-.019,0-.008-.016-.027-.009-.014-.008-.012-.011-.016-.007-.009-.018-.024h0l-.022-.026,0,0,0,0-.017-.018-.008-.008-.017-.016-.008-.008-3.267-2.944a.712.712,0,0,0-.953,1.057l1.891,1.7H.712a.712.712,0,1,0,0,1.424H10.5Z" transform="translate(0 -394.704)" fill="#04043e"/>
    </g>
  </g>
</svg>
